<svg xmlns="http://www.w3.org/2000/svg" width="154.069" height="35.271" viewBox="0 0 154.069 35.271">
  <g id="vc-andressen-horowitz" transform="translate(0)" opacity="0.8">
    <path id="Path_4284" data-name="Path 4284" d="M81.069,22.3a6.87,6.87,0,0,0-6.986,6.986,6.986,6.986,0,0,0,13.971,0A6.87,6.87,0,0,0,81.069,22.3Zm0,2.748a4,4,0,0,1,4.123,4.237,4.132,4.132,0,0,1-4.123,4.237,4,4,0,0,1-4.123-4.237A4,4,0,0,1,81.069,25.049Zm58.175,6.757V25.392h3.321V22.644h-3.321V18.865l-2.863.916v2.863h-2.4v2.748h2.4v6.413c0,3.436,1.718,4.7,6.184,4.123V33.409C140.39,33.523,139.245,33.523,139.245,31.805Zm14.887,1.489H147.6l6.528-7.9V22.758H143.94v2.634h6.528l-6.528,7.9v2.748h10.192V33.294ZM96.186,22.415v3.092c-1.947-.115-4.123.687-4.123,3.779v6.642H89.2V22.644h2.863V24.82A4.268,4.268,0,0,1,96.186,22.415Zm6.871-.115a6.87,6.87,0,0,0-6.986,6.986,6.986,6.986,0,1,0,13.971,0A6.736,6.736,0,0,0,103.057,22.3Zm0,2.748a4,4,0,0,1,4.123,4.237,4.132,4.132,0,0,1-4.123,4.237,4,4,0,0,1-4.123-4.237A4.132,4.132,0,0,1,103.057,25.049Zm26-2.4-4.237,13.4h-2.748l-2.748-8.932-2.748,8.932h-2.748l-4.237-13.284h2.977l2.519,9.161,2.748-9.161h2.748l2.748,9.161,2.519-9.161h3.206Zm3.779,0h-2.863V35.928h2.863V22.644ZM39.5,1.8V7.3A7.518,7.518,0,0,0,35.377,5.81,7.017,7.017,0,0,0,28.391,13.6a7.29,7.29,0,0,0,6.3,6.3,6.856,6.856,0,0,0,4.81-1.374v1.031h2.863V1ZM39.385,12.91a4.165,4.165,0,0,1-5.039,4.008,4.344,4.344,0,0,1-3.207-3.206,4.169,4.169,0,1,1,8.245-.8ZM11.1,6.382V7.3A7.043,7.043,0,0,0,7.091,5.924,7.017,7.017,0,0,0,.105,13.711a7.29,7.29,0,0,0,6.3,6.3,6.856,6.856,0,0,0,4.81-1.374v1.031h2.977V6.382Zm0,6.528A4.165,4.165,0,0,1,6.06,16.918a4.344,4.344,0,0,1-3.207-3.206A4.2,4.2,0,0,1,6.976,8.787,4.105,4.105,0,0,1,11.1,12.91ZM22.207,5.924a4.624,4.624,0,0,0-4.123,2.061V6.268H15.222V19.552h2.863v-7.1c0-2.748,1.489-3.779,3.436-3.779A2.747,2.747,0,0,1,24.5,11.765v7.9h2.863V11.536C27.361,7.986,25.185,5.924,22.207,5.924Zm53.48,9.734a4.136,4.136,0,0,1-3.436,1.6,3.915,3.915,0,0,1-4.237-3.206h10.65a3.9,3.9,0,0,0,.115-1.145,6.816,6.816,0,1,0-13.628,0c0,4.008,2.863,6.986,7.215,6.986a7.107,7.107,0,0,0,5.84-2.863l-2.519-1.374Zm-3.665-7.1A3.591,3.591,0,0,1,75.8,11.765H67.9A3.993,3.993,0,0,1,72.023,8.558Zm36.531,8.818a4.136,4.136,0,0,0,3.436-1.6l2.4,1.374a6.676,6.676,0,0,1-5.84,2.863c-4.466,0-7.215-2.977-7.215-6.986a6.736,6.736,0,0,1,6.986-6.986c4.008,0,6.642,3.206,6.642,6.986a1.245,1.245,0,0,1-.115.573c0,.229-.115.344-.115.573h-10.65a4.533,4.533,0,0,0,4.466,3.206Zm3.55-5.5a3.591,3.591,0,0,0-3.779-3.206,3.872,3.872,0,0,0-4.008,3.206Zm20.728,7.787h-2.863V17.032h2.863Zm-16.376,0h2.863v-7.1c0-2.748,1.489-3.779,3.436-3.779a2.857,2.857,0,0,1,2.977,3.092v7.787h2.863V11.536c0-3.436-2.176-5.5-5.039-5.5A4.624,4.624,0,0,0,119.433,8.1V6.382H116.57V19.666ZM82.444,10.047c0-.916.916-1.374,1.947-1.374a2.571,2.571,0,0,1,2.4,1.374l2.519-1.374a5.406,5.406,0,0,0-4.924-2.748c-2.748,0-4.81,1.489-4.81,4.008,0,2.748,2.4,3.436,4.466,4.008h.115c.115,0,.115.115.229.115,1.374.458,2.4.687,2.4,1.718s-.916,1.489-2.29,1.489a2.764,2.764,0,0,1-2.748-1.489l-2.748,1.26A5.67,5.67,0,0,0,84.276,19.9c2.863,0,5.268-1.489,5.268-4.123,0-2.863-2.519-3.55-4.466-4.123-1.374-.344-2.634-.687-2.634-1.6Zm11.108,0c0-.916.916-1.374,1.947-1.374a2.874,2.874,0,0,1,2.519,1.374l2.519-1.26a5.406,5.406,0,0,0-4.924-2.748c-2.748,0-4.81,1.489-4.81,4.008,0,2.748,2.4,3.436,4.466,4.008H95.5c1.374.458,2.519.8,2.519,1.718,0,1.031-1.031,1.489-2.29,1.489a2.666,2.666,0,0,1-2.748-1.489l-2.519,1.26A5.67,5.67,0,0,0,95.728,19.9c2.977,0,5.268-1.489,5.268-4.123,0-2.863-2.4-3.55-4.466-4.123h-.344c-.115,0-.229-.115-.344-.115-1.26-.229-2.29-.573-2.29-1.489Zm-42.944-.8V6.153a4.267,4.267,0,0,0-4.123,2.4V6.382H43.622V19.666h2.863V13.024c0-3.092,2.176-4.008,4.123-3.779Zm13.17,7.787v7.329A4.624,4.624,0,0,1,67.9,22.3c2.977,0,5.039,1.947,5.039,5.5v8.245H70.076v-7.9A2.8,2.8,0,0,0,67.1,25.049c-1.947,0-3.436,1.145-3.436,3.779v7.1H60.8V19.437a8.11,8.11,0,0,1-2.977.573c-4.466,0-7.215-2.977-7.215-6.986a6.736,6.736,0,0,1,6.986-6.986c4.008,0,6.642,3.206,6.642,6.986a1.245,1.245,0,0,1-.115.573c0,.229-.115.344-.115.573H53.356a4.094,4.094,0,0,0,4.237,3.206,4.9,4.9,0,0,0,2.977-1.031,1.143,1.143,0,0,0,.458-.573l2.748,1.26Zm-2.29-5.153a3.662,3.662,0,0,0-3.779-3.206A3.872,3.872,0,0,0,53.7,11.879Z" transform="translate(-0.063 -1)" fill="#707a83"/>
  </g>
</svg>
