<svg xmlns="http://www.w3.org/2000/svg" width="121.499" height="26.441" viewBox="0 0 121.499 26.441">
  <g id="vc-coinbase" transform="translate(0 0)">
    <path id="Path_4285" data-name="Path 4285" d="M7.867,26.475C3.933,26.475,0,23.634,0,17.187S3.824,7.9,7.867,7.9a8.83,8.83,0,0,1,4.589,1.2l-1.2,2.622A5.223,5.223,0,0,0,8.3,10.85c-2.4,0-4.589,1.857-4.589,6.228S6.009,23.415,8.3,23.415a5.224,5.224,0,0,0,2.95-.874l1.2,2.732A8.152,8.152,0,0,1,7.867,26.475Z" transform="translate(0 -0.143)" fill="#8a939b" fill-rule="evenodd"/>
    <path id="Path_4286" data-name="Path 4286" d="M20.367,26.475c-5.026,0-7.867-4.043-7.867-9.287S15.232,7.9,20.367,7.9c5.026,0,7.867,3.933,7.867,9.287S25.393,26.475,20.367,26.475Zm0-15.624c-2.841,0-4.152,2.513-4.152,6.337s1.42,6.337,4.152,6.337c2.841,0,4.152-2.513,4.152-6.337S23.208,10.85,20.367,10.85Z" transform="translate(1.158 -0.143)" fill="#8a939b" fill-rule="evenodd"/>
    <path id="Path_4287" data-name="Path 4287" d="M31.485,5.652A2.1,2.1,0,0,1,29.3,3.576a2.188,2.188,0,0,1,4.37,0A2.1,2.1,0,0,1,31.485,5.652ZM29.628,8.93h3.715V26.74H29.737V8.93Z" transform="translate(2.714 -0.736)" fill="#8a939b" fill-rule="evenodd"/>
    <path id="Path_4288" data-name="Path 4288" d="M47,26.147V14.237c0-2.076-1.311-3.387-3.715-3.387a8.882,8.882,0,0,0-3.278.546v14.75H36.4V9.211A17.138,17.138,0,0,1,43.284,7.9c5.026,0,7.43,2.185,7.43,5.9V26.037H47Z" transform="translate(3.372 -0.143)" fill="#8a939b" fill-rule="evenodd"/>
    <path id="Path_4289" data-name="Path 4289" d="M58.709,27.132A13.59,13.59,0,0,1,52.7,25.821V.8h3.606V9.432a8.666,8.666,0,0,1,3.5-.765c4.589,0,7.758,3.278,7.758,8.741C67.45,24.182,64.063,27.132,58.709,27.132Zm.437-15.624a7.308,7.308,0,0,0-2.841.546V23.745a7.619,7.619,0,0,0,2.622.437c2.841,0,5.026-1.967,5.026-6.556C63.845,13.8,61.987,11.508,59.146,11.508Z" transform="translate(4.881 -0.8)" fill="#8a939b" fill-rule="evenodd"/>
    <path id="Path_4290" data-name="Path 4290" d="M75.858,26.475c-5.135,0-7.758-2.076-7.758-5.572,0-4.917,5.245-5.9,10.708-6.119V13.691c0-2.295-1.53-3.059-3.824-3.059a13.553,13.553,0,0,0-4.917,1.093l-.874-2.513A16.005,16.005,0,0,1,75.421,7.9c4.261,0,6.884,1.639,6.884,6.009V25.163A14.576,14.576,0,0,1,75.858,26.475Zm3.059-9.287c-3.606.219-7.321.546-7.321,3.715,0,1.857,1.42,3.059,4.152,3.059a10.13,10.13,0,0,0,3.059-.437V17.187Z" transform="translate(6.308 -0.143)" fill="#8a939b" fill-rule="evenodd"/>
    <path id="Path_4291" data-name="Path 4291" d="M89.072,26.475A11.986,11.986,0,0,1,83.5,25.163l1.2-2.732a9.781,9.781,0,0,0,4.261,1.2c1.967,0,3.278-.983,3.278-2.4,0-1.639-1.311-2.295-3.169-2.95-2.4-.874-5.026-1.967-5.026-5.354,0-2.95,2.294-5.026,6.228-5.026a10.307,10.307,0,0,1,5.245,1.311l-1.093,2.513a7.46,7.46,0,0,0-3.715-1.093c-1.857,0-2.95.983-2.95,2.295,0,1.639,1.311,2.185,3.059,2.841,2.513.874,5.245,1.967,5.245,5.463C95.956,24.4,93.443,26.475,89.072,26.475Z" transform="translate(7.734 -0.143)" fill="#8a939b" fill-rule="evenodd"/>
    <path id="Path_4292" data-name="Path 4292" d="M112.3,17.178l-11.8,1.639c.328,3.169,2.4,4.808,5.463,4.808a11.254,11.254,0,0,0,4.917-1.093l1.093,2.732a14.252,14.252,0,0,1-6.228,1.311c-5.572,0-8.741-3.606-8.741-9.287C97,11.824,100.059,8,105.085,8c4.589,0,7.43,3.059,7.43,7.867A2.366,2.366,0,0,0,112.3,17.178Zm-7.43-6.556c-2.732,0-4.589,2.076-4.7,5.791l8.632-1.2C108.8,12.043,107.271,10.622,104.867,10.622Z" transform="translate(8.985 -0.134)" fill="#8a939b" fill-rule="evenodd"/>
  </g>
</svg>
