<svg xmlns="http://www.w3.org/2000/svg" width="128.921" height="35.815" viewBox="0 0 128.921 35.815">
  <path id="vc-dapper" d="M0,14.769V28.739H5.647c6.836,0,7.728,0,9.66-.594a12.437,12.437,0,0,0,7.282-4.607,14.974,14.974,0,0,0,1.783-3.418,16.882,16.882,0,0,0-.3-11.146,11.739,11.739,0,0,0-9.363-7.728C13.078.8,13.078.8,6.39.8H0ZM13.078,5.853a8.294,8.294,0,0,1,5.053,2.972,11.062,11.062,0,0,1,.743,10.551,8.413,8.413,0,0,1-5.8,4.31c-.594.149-.743.149-4.161.149H5.35V5.7H8.768C12.186,5.7,12.335,5.853,13.078,5.853ZM34.627,9.568a11.807,11.807,0,0,0-3.269.892,7.249,7.249,0,0,0-3.567,3.715,6.565,6.565,0,0,0-.446,1.189s.892.3,2.081.594,2.081.594,2.229.594.149-.149.3-.446a3.889,3.889,0,0,1,3.864-2.675,3.831,3.831,0,0,1,2.972,1.04A3.06,3.06,0,0,1,39.679,17v.892l-1.189-.3a11.482,11.482,0,0,0-3.715-.446,8.7,8.7,0,0,0-4.161.743,5.264,5.264,0,0,0-3.121,4.458,5.718,5.718,0,0,0,1.635,4.9,7.312,7.312,0,0,0,5.944,1.635,6.382,6.382,0,0,0,4.607-2.675l.3-.446v2.972h4.756V15.661l-.149-.743c-.743-2.972-2.675-4.607-6.093-5.35A33.515,33.515,0,0,0,34.627,9.568ZM37.45,20.863a8.008,8.008,0,0,1,1.486.446c1.04.3,1.04.3.892,1.04A3.154,3.154,0,0,1,37.3,25.024a12.012,12.012,0,0,1-2.378.149,2.376,2.376,0,0,1-1.932-1.338,3.089,3.089,0,0,1-.149-1.635c.149-.743.892-1.189,1.783-1.486A17.985,17.985,0,0,1,37.45,20.863ZM57.81,9.568A8.818,8.818,0,0,0,53.2,12.094c-.149.149-.3.446-.446.446V9.865H47.7v26.75h5.053v-10.4l.3.3A6.726,6.726,0,0,0,59,28.888a9.213,9.213,0,0,0,7.133-3.715,11.611,11.611,0,0,0-.149-12.186,11.879,11.879,0,0,0-1.932-1.932,10.332,10.332,0,0,0-3.418-1.486A8.942,8.942,0,0,0,57.81,9.568Zm1.338,4.458a4.848,4.848,0,0,1,3.121,2.526,6.412,6.412,0,0,1,.594,3.418,4.814,4.814,0,0,1-3.418,4.458,3.3,3.3,0,0,1-1.338.149,4.885,4.885,0,0,1-2.526-.594,6.2,6.2,0,0,1-1.189-.892A3.577,3.577,0,0,1,53.5,21.9a5.438,5.438,0,0,1-.594-3.418c.3-2.526,1.635-4.31,4.013-4.756C57.215,13.878,58.553,13.878,59.147,14.026Zm21.1-4.458a6.463,6.463,0,0,0-3.121,1.338,7.789,7.789,0,0,0-1.635,1.486l-.149.3V9.865H70.293v26.75h5.053V26.361l.3.3a6.008,6.008,0,0,0,3.864,2.229,13.158,13.158,0,0,0,3.418,0,8.61,8.61,0,0,0,4.607-2.378,9.7,9.7,0,0,0,2.675-7.728c-.149-2.972-1.04-5.35-2.824-6.985a8.185,8.185,0,0,0-5.944-2.378C81.142,9.419,80.547,9.568,80.25,9.568Zm1.338,4.458c1.932.446,3.121,2.081,3.567,4.161a8.081,8.081,0,0,1,0,2.675,5.051,5.051,0,0,1-3.418,3.864,7.251,7.251,0,0,1-2.526.149,5.1,5.1,0,0,1-3.864-4.013,8.067,8.067,0,0,1,0-2.675,4.76,4.76,0,0,1,1.486-2.824,4.224,4.224,0,0,1,2.526-1.338A5.629,5.629,0,0,1,81.588,14.026Zm19.171-4.458a8.422,8.422,0,0,0-5.35,2.675,9.608,9.608,0,0,0-2.675,5.8,14.359,14.359,0,0,0,.149,3.567,9.164,9.164,0,0,0,4.9,6.688,11.435,11.435,0,0,0,9.363.149,9.544,9.544,0,0,0,2.972-2.378,8.76,8.76,0,0,0,1.189-2.378c0-.149-.149-.149-2.081-1.04C106.7,21.606,107,21.754,107,21.9a4.572,4.572,0,0,1-.594,1.338,3.154,3.154,0,0,1-1.932,1.486,6.188,6.188,0,0,1-4.31-.3,6.2,6.2,0,0,1-1.189-.892,3.576,3.576,0,0,1-.892-1.189,3,3,0,0,1-.446-1.635v-.446h12.929l.149-.446c0-.3.149-.892.149-1.783a5.659,5.659,0,0,0-.149-1.932,7.741,7.741,0,0,0-6.39-6.242,6.172,6.172,0,0,0-1.932-.149A8.827,8.827,0,0,0,100.759,9.568Zm2.675,4.161a4.2,4.2,0,0,1,2.229,1.635,3.5,3.5,0,0,1,.3,1.189v.3H97.935a.46.46,0,0,1,.149-.3C98.678,14.324,100.907,13.135,103.434,13.729Zm19.022-4.161a4.428,4.428,0,0,0-2.972,2.081l-.3.446V9.865h-5.053V28.888h5.053V22.349c0-6.39,0-6.539.149-6.836a2.164,2.164,0,0,1,.892-1.338,2.4,2.4,0,0,1,1.337-.446,2.313,2.313,0,0,1,2.526,1.635c.149.3.149.446,0,1.04,0,.446,0,.892-.149.892v.149H128.7v-.3a7.825,7.825,0,0,0,0-3.715,5.279,5.279,0,0,0-4.161-3.864A4.856,4.856,0,0,0,122.456,9.568Z" transform="translate(0 -0.8)" fill="#8a939b"/>
</svg>
