<svg id="vc-quantstamp" xmlns="http://www.w3.org/2000/svg" width="151.501" height="28.128" viewBox="0 0 151.501 28.128">
  <path id="Path_4308" data-name="Path 4308" d="M25.412,14.964a11.628,11.628,0,0,0-1.843-6.207l4.462-4.462L24.636.9,20.174,5.362a11.5,11.5,0,0,0-12.415,0L3.395.9,0,4.295,4.462,8.756a11.5,11.5,0,0,0,0,12.415L0,25.633l3.395,3.395,4.462-4.462a11.5,11.5,0,0,0,12.415,0l4.462,4.462,3.395-3.395-4.462-4.462A12.454,12.454,0,0,0,25.412,14.964Zm-18.04,0a6.656,6.656,0,0,1,11.445-4.656,6.537,6.537,0,0,1,1.261,7.274l-4.365-4.365-3.395,3.395,4.365,4.365a6.372,6.372,0,0,1-6.3-.485A6.6,6.6,0,0,1,7.371,14.964Z" transform="translate(0 -0.9)" fill="#8a939b"/>
  <path id="Path_4309" data-name="Path 4309" d="M50.658,15.28a6.863,6.863,0,0,1-3.88,6.4l1.358,1.746L45.42,24.786l-1.843-2.425h-.1a6.821,6.821,0,0,1-7.08-7.08A6.821,6.821,0,0,1,43.48,8.2,6.957,6.957,0,0,1,50.658,15.28ZM43.48,19.548c2.522,0,3.88-1.94,3.88-4.268S46,11.013,43.48,11.013s-3.88,1.94-3.88,4.268S40.959,19.548,43.48,19.548ZM55.6,22.167c-2.231,0-3.395-1.358-3.395-3.783V12.662h2.91v5.044c0,1.261.388,1.94,1.552,1.94,1.261,0,1.746-.776,1.746-2.037V12.662h2.91v9.117h-2.91V20.615A2.934,2.934,0,0,1,55.6,22.167Zm11.833,0c-2.716,0-4.365-2.037-4.365-4.85,0-2.716,1.649-4.85,4.365-4.85a3.4,3.4,0,0,1,2.91,1.552V12.856h2.91v9.117h-2.91V20.712A3.326,3.326,0,0,1,67.437,22.167Zm.873-2.328a2.192,2.192,0,0,0,2.231-2.425,2.239,2.239,0,1,0-4.462,0A2.245,2.245,0,0,0,68.31,19.839Zm7.371-7.08h2.91v1.358A2.986,2.986,0,0,1,81.6,12.565c2.231,0,3.395,1.261,3.395,3.783V22.07h-2.91V17.317c0-1.552-.388-2.231-1.649-2.231-1.164,0-1.746.776-1.746,2.134v4.753h-2.91l-.1-9.214Zm16.295,6.983a2.7,2.7,0,0,0,.97-.1v2.328a8.49,8.49,0,0,1-1.94.194c-1.358,0-3.3-.291-3.3-3.395V15.086H86.254V12.856h1.455V10.14h2.91v2.716h2.037v2.328H90.618V18.19C90.715,19.451,91.3,19.742,91.976,19.742Zm6.4,2.522c-2.716,0-4.365-1.358-4.365-3.007h2.91c0,.679.582,1.067,1.552,1.067.679,0,1.067-.291,1.067-.873a.739.739,0,0,0-.679-.776l-2.231-.582A2.667,2.667,0,0,1,94.3,15.474c0-1.746,1.552-2.91,3.88-2.91,2.716,0,4.074,1.067,4.074,2.813h-2.91c0-.679-.485-.97-1.261-.97-.679,0-1.067.291-1.067.776,0,.388.291.679.776.776l2.134.582c1.455.388,2.328,1.261,2.328,2.522C102.354,21,100.9,22.264,98.378,22.264Zm10.572-2.522a2.7,2.7,0,0,0,.97-.1v2.328a8.49,8.49,0,0,1-1.94.194c-1.358,0-3.3-.291-3.3-3.395V15.086h-1.455V12.856h1.455V10.14h2.91v2.716h2.037v2.328h-2.037V18.19C107.689,19.451,108.271,19.742,108.95,19.742Zm6.4,2.425c-2.716,0-4.365-2.037-4.365-4.85,0-2.716,1.649-4.85,4.365-4.85a3.4,3.4,0,0,1,2.91,1.552V12.856h2.91v9.117h-2.91V20.712A3.326,3.326,0,0,1,115.351,22.167Zm.873-2.328a2.192,2.192,0,0,0,2.231-2.425,2.239,2.239,0,1,0-4.462,0A2.245,2.245,0,0,0,116.224,19.839Zm7.371-7.08h2.91v1.358a2.8,2.8,0,0,1,2.619-1.552,2.909,2.909,0,0,1,2.91,1.649,3.155,3.155,0,0,1,2.91-1.649c2.619,0,3.3,1.843,3.3,3.783V22.07h-2.91V16.929c0-1.261-.485-1.843-1.358-1.843s-1.552.485-1.552,2.231V22.07h-2.91V16.735c0-1.261-.485-1.746-1.358-1.746-.97,0-1.552.485-1.552,2.231v4.753h-2.91V12.759Zm16.877,0h2.91v1.358a3.446,3.446,0,0,1,3.007-1.552c2.522,0,4.171,1.94,4.171,4.85s-1.746,4.85-4.268,4.85a3.273,3.273,0,0,1-2.91-1.552v5.141h-2.91Zm4.947,7.08a2.176,2.176,0,0,0,2.134-2.425,2.194,2.194,0,1,0-4.365,0A2.3,2.3,0,0,0,145.419,19.839Zm5.917-5.141a1.8,1.8,0,0,1-.679-.194.968.968,0,0,1-.388-.485,1.4,1.4,0,0,1-.194-.679,2.468,2.468,0,0,1,.194-.679c.1-.194.291-.291.388-.485a1.285,1.285,0,0,1,1.358,0,.968.968,0,0,1,.388.485,1.4,1.4,0,0,1,.194.679,1.8,1.8,0,0,1-.194.679,2.117,2.117,0,0,1-.388.485A.818.818,0,0,1,151.335,14.7Zm0-.194a.741.741,0,0,0,.485-.194.757.757,0,0,0,.388-.388.874.874,0,0,0,.1-.485,4.2,4.2,0,0,0-.1-.485,1.019,1.019,0,0,0-.873-.485.741.741,0,0,0-.485.194.757.757,0,0,0-.388.388.874.874,0,0,0-.1.485,4.2,4.2,0,0,0,.1.485.757.757,0,0,0,.388.388A4.2,4.2,0,0,0,151.335,14.5Zm-.388-1.746h.485c.1,0,.194.1.291.1a.485.485,0,0,1,0,.582l-.194.194.291.485h-.194l-.291-.388h-.291v.388h-.194V12.759Zm.485.776c.1,0,.194,0,.194-.1.1-.1.1-.1.1-.194s0-.194-.1-.194c-.1-.1-.1-.1-.194-.1h-.291v.485h.291Z" transform="translate(-1.095 -1.12)" fill="#8a939b"/>
</svg>
