<svg xmlns="http://www.w3.org/2000/svg" width="161.312" height="41.443" viewBox="0 0 161.312 41.443">
  <g id="vc-trust-wallet" transform="translate(0.5 0.501)">
    <path id="Path_4305" data-name="Path 4305" d="M46.44,14.98H42V12.34H54v2.64h-4.44V26.141H46.44ZM57,16.9a4.8,4.8,0,0,1,1.44-1.2,5.814,5.814,0,0,1,2.16-.36v2.88h-.72a2.823,2.823,0,0,0-2.04.72,2.934,2.934,0,0,0-.72,2.16v5.04H54V15.58h2.88L57,16.9Zm15-1.32V26.141h-2.88v-1.2a3.276,3.276,0,0,1-1.44,1.08,4.815,4.815,0,0,1-1.8.36,4.005,4.005,0,0,1-3.24-1.2,4.848,4.848,0,0,1-1.2-3.6v-6h3.12V21.1q0,2.52,2.16,2.52a2.442,2.442,0,0,0,1.8-.72,2.934,2.934,0,0,0,.72-2.16V15.58Zm5.28,10.681a9.136,9.136,0,0,1-2.52-.36,6.527,6.527,0,0,1-2.04-.84L73.8,22.9a4.208,4.208,0,0,0,1.68.72,5.614,5.614,0,0,0,1.92.24c1.32,0,1.92-.36,1.92-.96,0-.36-.12-.48-.48-.6a9.394,9.394,0,0,0-1.68-.36,9.63,9.63,0,0,1-2.16-.48,2.389,2.389,0,0,1-1.44-.96,2.948,2.948,0,0,1-.6-1.8,3.234,3.234,0,0,1,.6-1.8,3.578,3.578,0,0,1,1.68-1.2,8.629,8.629,0,0,1,2.64-.48,13.224,13.224,0,0,1,2.16.24,4.064,4.064,0,0,1,1.8.72l-1.08,2.16a6.634,6.634,0,0,0-3-.84,3.918,3.918,0,0,0-1.44.24c-.36.24-.48.36-.48.72a.658.658,0,0,0,.48.72,12.753,12.753,0,0,0,1.68.36c.84.12,1.56.36,2.16.48a2.88,2.88,0,0,1,1.44.84,2.948,2.948,0,0,1,.6,1.8,3.2,3.2,0,0,1-2.28,3A4.78,4.78,0,0,1,77.283,26.261Zm12.481-.72a4.263,4.263,0,0,1-1.08.48,4.923,4.923,0,0,1-1.32.12,4.157,4.157,0,0,1-2.88-.96A3.544,3.544,0,0,1,83.4,22.3V18.1h-1.68V15.7H83.4V13.18h3V15.7h2.64v2.4H86.4v4.32a1.467,1.467,0,0,0,.36,1.08,1.363,1.363,0,0,0,.96.36,2.027,2.027,0,0,0,1.2-.36Zm25.922-13.2-4.44,13.681h-3.36l-3-9.361-3.12,9.361H98.4L93.844,12.34h3.24l3.12,9.6,3.24-9.6h3l3.12,9.721,3.24-9.721Zm3.84,3a4.967,4.967,0,0,1,3.72,1.2,4.429,4.429,0,0,1,1.32,3.48v6h-2.88V24.7a3.514,3.514,0,0,1-3.24,1.44,5.814,5.814,0,0,1-2.16-.36,2.415,2.415,0,0,1-1.32-1.08,2.755,2.755,0,0,1-.48-1.68,2.636,2.636,0,0,1,1.08-2.28,5.517,5.517,0,0,1,3.48-.84h2.4a2.073,2.073,0,0,0-.6-1.56,2.484,2.484,0,0,0-1.8-.6,8.1,8.1,0,0,0-1.68.24,2.861,2.861,0,0,0-1.32.72l-1.08-2.16a10.638,10.638,0,0,1,2.04-.96A17.9,17.9,0,0,1,119.526,15.34Zm-.24,8.881a3.2,3.2,0,0,0,1.44-.36,1.915,1.915,0,0,0,.84-1.08V21.7h-2.04c-1.2,0-1.92.36-1.92,1.2a1.091,1.091,0,0,0,.48.96A1.593,1.593,0,0,0,119.286,24.221ZM126.126,11.5h3.12V26.021h-3.12Zm4.8,0h3.12V26.021h-3.12Zm15,9.361v.84h-8.041a2.668,2.668,0,0,0,.96,1.56,3.433,3.433,0,0,0,2.04.6,4.476,4.476,0,0,0,1.44-.24,2.743,2.743,0,0,0,1.2-.84l1.68,1.8a5.51,5.51,0,0,1-4.32,1.68,6.313,6.313,0,0,1-3.12-.72,4.841,4.841,0,0,1-2.16-1.92,5.575,5.575,0,0,1-.72-2.76,5.11,5.11,0,0,1,2.76-4.68,5.7,5.7,0,0,1,2.88-.72,5.26,5.26,0,0,1,2.76.72,5.313,5.313,0,0,1,2.64,4.68Zm-5.4-3.12a2.948,2.948,0,0,0-1.8.6,2.509,2.509,0,0,0-.84,1.56h5.16a2.478,2.478,0,0,0-2.52-2.16Zm13.081,7.8a4.263,4.263,0,0,1-1.08.48,4.923,4.923,0,0,1-1.32.12,4.157,4.157,0,0,1-2.88-.96,3.544,3.544,0,0,1-1.08-2.88V18.1h-1.68V15.7h1.68V13.18h3.12V15.7h2.64v2.4h-2.64v4.32a1.467,1.467,0,0,0,.36,1.08,1.363,1.363,0,0,0,.96.36,2.028,2.028,0,0,0,1.2-.36Z" transform="translate(7.204 1.1)" fill="#8a939b"/>
    <path id="Path_4306" data-name="Path 4306" d="M27.882,1H14.561A13.624,13.624,0,0,0,1,14.561V27.882A13.547,13.547,0,0,0,14.561,41.443H27.882A13.547,13.547,0,0,0,41.443,27.882V14.561A13.547,13.547,0,0,0,27.882,1Z" transform="translate(-1 -1.001)" fill="none" stroke="#dfe5ec" stroke-width="1"/>
    <path id="Path_4307" data-name="Path 4307" d="M18.881,7.945a1.442,1.442,0,0,1,1.68,0,12.2,12.2,0,0,0,8.4,2.64h.24a1.239,1.239,0,0,1,1.32,1.32,88.149,88.149,0,0,1-.6,10.081,12.9,12.9,0,0,1-1.8,5.28,9.825,9.825,0,0,1-3.24,2.64,2.623,2.623,0,0,0-.6.36,31.6,31.6,0,0,0-3.6,2.16,1.092,1.092,0,0,1-1.44,0,25.743,25.743,0,0,0-3.6-2.16,2.623,2.623,0,0,1-.6-.36,8.535,8.535,0,0,1-3.24-2.64,12.276,12.276,0,0,1-1.8-5.28,92.159,92.159,0,0,1-.6-10.081,1.239,1.239,0,0,1,1.32-1.32h.24A11.108,11.108,0,0,0,18.881,7.945Zm.84,2.64a15.2,15.2,0,0,1-8.041,2.64,64.921,64.921,0,0,0,.6,8.521,10.515,10.515,0,0,0,1.32,4.08,6.957,6.957,0,0,0,2.4,1.92c.24.12.36.24.6.36.84.48,1.92,1.08,3.12,1.92a25.121,25.121,0,0,1,3.24-1.92c.24-.12.36-.24.6-.36a5.014,5.014,0,0,0,2.4-1.92c.6-.72.96-1.92,1.32-4.08.24-1.92.48-4.68.6-8.521A15.239,15.239,0,0,1,19.721,10.585Z" transform="translate(0.681 0.335)" fill="#8a939b" fill-rule="evenodd"/>
  </g>
</svg>
