<svg xmlns="http://www.w3.org/2000/svg" width="149.823" height="30.972" viewBox="0 0 149.823 30.972">
  <g id="vc-ycombinator" transform="translate(0 0)">
    <path id="Path_4293" data-name="Path 4293" d="M30.972.9H0V31.872H30.972Z" transform="translate(0 -0.9)" fill="#8a939b"/>
    <path id="Path_4294" data-name="Path 4294" d="M13.858,17.967,8.5,8h2.465l3.108,6.323c0,.107.107.214.214.322s.107.214.214.429l.107.107v.107c.107.214.107.322.214.536.107.107.107.322.214.429a8.5,8.5,0,0,0,.429-.965A4.344,4.344,0,0,1,16,14.323L19,8h2.251L15.895,18.074V24.5H13.858Z" transform="translate(0.61 -0.391)" fill="#fff"/>
    <path id="Path_4295" data-name="Path 4295" d="M42.516,6.5a6.285,6.285,0,0,1,3.965,1.286L45.409,9.072a5.121,5.121,0,0,0-3-1.072,4.12,4.12,0,0,0-3.858,2.679,11.029,11.029,0,0,0-.643,4.18,9.344,9.344,0,0,0,.536,3.322,4.281,4.281,0,0,0,4.287,2.894A4.77,4.77,0,0,0,45.838,20L46.91,21.4a7.992,7.992,0,0,1-4.287,1.286,5.682,5.682,0,0,1-4.608-2.251C36.729,19.039,36.3,17,36.3,14.645a9.111,9.111,0,0,1,1.822-5.787A5.122,5.122,0,0,1,42.516,6.5Z" transform="translate(2.603 -0.498)" fill="#8a939b"/>
    <path id="Path_4296" data-name="Path 4296" d="M47.6,16.494a5.911,5.911,0,0,1,1.393-4.287A4.426,4.426,0,0,1,52.53,10.6,4.778,4.778,0,0,1,56.5,12.529a7.266,7.266,0,0,1,1.072,4.287,6.316,6.316,0,0,1-1.715,4.715,4.472,4.472,0,0,1-3.108,1.179A4.642,4.642,0,0,1,49.1,21.1,6.825,6.825,0,0,1,47.6,16.494Zm7.288-3a2.746,2.746,0,0,0-4.715-.107,5.552,5.552,0,0,0-.536,3,6.781,6.781,0,0,0,.75,3.751,2.654,2.654,0,0,0,2.251,1.179A2.451,2.451,0,0,0,55.1,19.6a7.627,7.627,0,0,0,.322-2.465C55.423,15.315,55.316,14.137,54.888,13.494Z" transform="translate(3.413 -0.204)" fill="#8a939b"/>
    <path id="Path_4297" data-name="Path 4297" d="M59.929,13.722a6.922,6.922,0,0,0-.429-2.786l1.715-.429a3.291,3.291,0,0,1,.429,1.608v.107a7.379,7.379,0,0,1,1.393-1.179,4.069,4.069,0,0,1,1.929-.643,2.654,2.654,0,0,1,2.251,1.179c.107.214.322.536.429.75a4.976,4.976,0,0,1,3.644-1.822,2.744,2.744,0,0,1,2.036.857,3.4,3.4,0,0,1,.857,2.143v8.574H72.36V13.615c0-1.179-.536-1.608-1.393-1.608a2.363,2.363,0,0,0-1.608.643c-.214.214-.643.536-1.179.965l-.214.214v8.359H66.037V14.151c0-.75-.107-1.286-.322-1.393a1.155,1.155,0,0,0-1.179-.643c-.857,0-1.715.536-2.894,1.5v8.466H59.929V13.722Z" transform="translate(4.266 -0.219)" fill="#8a939b"/>
    <path id="Path_4298" data-name="Path 4298" d="M76.2,6.129,78.129,5.7a11.349,11.349,0,0,1,.322,2.894v3.858a4.511,4.511,0,0,1,3.322-1.5,3.872,3.872,0,0,1,3.215,1.5,6.6,6.6,0,0,1,1.286,4.287,6.914,6.914,0,0,1-1.286,4.394,3.75,3.75,0,0,1-3.322,1.608,3.145,3.145,0,0,1-1.715-.429,3.7,3.7,0,0,1-1.393-1.072,11.123,11.123,0,0,1-.322,1.286H76.522a8.4,8.4,0,0,0,.322-2.894V8.808A9.737,9.737,0,0,0,76.2,6.129Zm3,7.073a3.262,3.262,0,0,0-.857.857v5.894a3.265,3.265,0,0,0,2.786,1.393,2.1,2.1,0,0,0,2.036-1.072,6.513,6.513,0,0,0,.857-3.644,4.927,4.927,0,0,0-.75-3.108,2.425,2.425,0,0,0-2.143-.965A2.473,2.473,0,0,0,79.2,13.2Z" transform="translate(5.463 -0.556)" fill="#8a939b"/>
    <path id="Path_4299" data-name="Path 4299" d="M88,7.6a1.5,1.5,0,1,1,3,0,1.5,1.5,0,1,1-3,0Zm.429,14.9V11.137l1.822-.322V22.5Z" transform="translate(6.309 -0.527)" fill="#8a939b"/>
    <path id="Path_4300" data-name="Path 4300" d="M93.936,13.715a4.1,4.1,0,0,0-.107-1.5,4.007,4.007,0,0,0-.429-1.179l1.715-.536a3.675,3.675,0,0,1,.429,1.715A5.043,5.043,0,0,1,99.187,10.5a2.583,2.583,0,0,1,1.608.429,2.727,2.727,0,0,1,1.179,1.286,2.967,2.967,0,0,1,.322,1.393v8.681H100.58V14.572c0-.965-.107-1.5-.429-1.822a1.775,1.775,0,0,0-1.286-.536,3.553,3.553,0,0,0-1.608.536,4.32,4.32,0,0,0-1.5,1.179V22.4H94.043V13.715Z" transform="translate(6.697 -0.212)" fill="#8a939b"/>
    <path id="Path_4301" data-name="Path 4301" d="M105.7,13.286,104.736,12a7.935,7.935,0,0,1,4.715-1.5,3.3,3.3,0,0,1,3.215,1.715,4.758,4.758,0,0,1,.214,1.929v.643l-.107,3.751v.536a4.837,4.837,0,0,0,.107,1.393,1.521,1.521,0,0,0,.857.965l-.965,1.286a2.067,2.067,0,0,1-1.5-1.608,4.511,4.511,0,0,1-3.322,1.5,4.007,4.007,0,0,1-2.786-.965,2.992,2.992,0,0,1-.965-2.358,3.474,3.474,0,0,1,1.5-3,7.631,7.631,0,0,1,4.394-1.072h.857v-.965c0-.965-.107-1.5-.429-1.715a1.946,1.946,0,0,0-1.5-.643,5.723,5.723,0,0,0-2.143.536C106.558,12.643,106.129,12.965,105.7,13.286Zm5.466,6.109.107-3h-.965a4.557,4.557,0,0,0-3.322.965,2.521,2.521,0,0,0-.643,1.822c0,1.393.643,2.036,1.929,2.036A3.58,3.58,0,0,0,111.166,19.4Z" transform="translate(7.471 -0.212)" fill="#8a939b"/>
    <path id="Path_4302" data-name="Path 4302" d="M118.008,11.022H120.9l-.536,1.393h-2.358V19.81a2.432,2.432,0,0,0,.322,1.393,1.714,1.714,0,0,0,1.179.429,3.853,3.853,0,0,0,1.179-.214L120.9,22.6a4.2,4.2,0,0,1-1.929.429,2.273,2.273,0,0,1-2.572-2.572V12.63h-1.5V11.237h1.393v-.214c0-.214.107-1.072.214-2.358V8.129l1.822-.429A12.425,12.425,0,0,0,118.008,11.022Z" transform="translate(8.238 -0.412)" fill="#8a939b"/>
    <path id="Path_4303" data-name="Path 4303" d="M122.2,16.494a5.911,5.911,0,0,1,1.393-4.287A4.281,4.281,0,0,1,127.13,10.6a4.778,4.778,0,0,1,3.965,1.929,7.266,7.266,0,0,1,1.072,4.287,6.316,6.316,0,0,1-1.715,4.715,4.472,4.472,0,0,1-3.108,1.179A4.642,4.642,0,0,1,123.7,21.1,7.425,7.425,0,0,1,122.2,16.494Zm7.395-3a2.746,2.746,0,0,0-4.715-.107,5.552,5.552,0,0,0-.536,3,6.781,6.781,0,0,0,.75,3.751,2.654,2.654,0,0,0,2.251,1.179,2.45,2.45,0,0,0,2.465-1.715,7.627,7.627,0,0,0,.322-2.465A8.857,8.857,0,0,0,129.595,13.494Z" transform="translate(8.761 -0.204)" fill="#8a939b"/>
    <path id="Path_4304" data-name="Path 4304" d="M134.629,13.5a5.358,5.358,0,0,0-.429-2.465l1.715-.536a3.675,3.675,0,0,1,.429,1.715v.214a3.787,3.787,0,0,1,3.215-1.822,1.359,1.359,0,0,1,.643.107l-.75,1.929a1.165,1.165,0,0,0-.536-.107,2.357,2.357,0,0,0-1.393.429,3.406,3.406,0,0,0-1.072,1.072,4,4,0,0,0-.214,1.286V22.5h-1.715v-9Z" transform="translate(9.622 -0.212)" fill="#8a939b"/>
  </g>
</svg>
