<?xml version="1.0" ?><svg viewBox="0 0 32 32" xmlns="http://www.w3.org/2000/svg"><path class="a" d="M19.0994,7.26713V5.36789a.82875.82875,0,0,1,1.10253-.78222l1.21591.42557a9.50554,9.50554,0,0,1,6.04945,6.54158l2.31114,8.739a5.25506,5.25506,0,0,1,.17465,1.34351h0a5.25478,5.25478,0,0,1-2.39673,4.40957l-1.32189.85678a3.47954,3.47954,0,0,1-4.61738-.756l-1.22-1.53624"/><path class="a" d="M12.9006,7.26713V5.36789a.82875.82875,0,0,0-1.10253-.78222l-1.21591.42557a9.50554,9.50554,0,0,0-6.04945,6.54158l-2.31114,8.739a5.25506,5.25506,0,0,0-.17465,1.34351h0a5.25478,5.25478,0,0,0,2.39673,4.40957l1.32189.85678a3.47954,3.47954,0,0,0,4.61738-.756l1.22-1.53624"/><path class="a" d="M8.12775,9.09574v0a14.50852,14.50852,0,0,1,15.33671,0l0,0"/><path class="a" d="M24.95887,22.8594v0a20.24526,20.24526,0,0,1-18.3254,0l0,0"/><ellipse class="a" cx="19.95472" cy="18.83003" rx="2.38899" ry="2.83003"/><ellipse class="a" cx="11.24837" cy="18.83003" rx="2.38899" ry="2.83003"/></svg>