<?xml version="1.0" ?><svg style="enable-background:new 0 0 100 100;" version="1.1" viewBox="0 0 100 100" xml:space="preserve" xmlns="http://www.w3.org/2000/svg" xmlns:xlink="http://www.w3.org/1999/xlink"><g id="Layer_1"/><g id="Layer_2"><g><path d="M70.657,70.288C58.434,84.413,31.532,91.903,9.606,80.634c8.481-0.248,16.461-3.133,23.152-8.379    c1.024-0.757,0.442-2.507-0.835-2.492c-6.741-0.124-12.736-4.084-15.544-10.065c2.317,0.165,4.583-0.069,6.756-0.663    c1.396-0.357,1.327-2.452-0.094-2.712c-7.475-1.498-13.069-7.708-13.938-15.154c2.225,0.905,4.611,1.416,7.012,1.493    c0.613,0.016,1.182-0.375,1.372-0.967c0.19-0.593-0.035-1.24-0.553-1.585c-3.62-2.419-6.199-6.068-7.261-10.276    c-0.189-0.747-0.944-1.199-1.693-1.011c-0.747,0.188-1.199,0.946-1.011,1.693c0.81,3.209,2.379,6.137,4.553,8.564    c-1.128-0.354-2.222-0.821-3.255-1.395c-0.882-0.525-2.104,0.187-2.071,1.219c-0.09,7.599,4.101,14.486,10.489,18.021    c-0.73-0.046-1.469-0.14-2.206-0.278c-0.999-0.215-1.928,0.829-1.584,1.796c2.262,7.061,8.144,12.225,15.222,13.69    c-7.034,4.541-15.668,6.483-24.068,5.476c-1.433-0.216-2.155,1.805-0.918,2.558c23.286,15.463,55.146,8.693,69.553-7.966    C73.902,70.838,71.954,68.975,70.657,70.288z"/><path d="M97.172,20.523c-0.399-0.474-1.065-0.63-1.632-0.377c-1.653,0.734-3.359,1.342-5.107,1.822    c2.012-2.167,3.539-4.759,4.449-7.61c0.411-1.169-0.985-2.298-2.04-1.623c-3.371,2-7.014,3.436-10.84,4.272    c-3.784-3.727-8.941-5.85-14.271-5.85c-12.203-0.096-21.88,11.049-20.123,23.111c-14.099-1.189-27.221-8.1-36.223-19.14    c-0.566-0.75-1.84-0.65-2.286,0.181c-1.796,3.091-2.746,6.624-2.746,10.216c0.056,1.846,2.745,1.829,2.788,0    c0-2.423,0.5-4.812,1.457-7.014c9.827,11.148,23.788,17.917,38.633,18.66c0.897,0.071,1.652-0.838,1.428-1.706    c-4.128-17.149,17.85-29.016,29.862-15.983c0.328,0.35,0.81,0.505,1.287,0.413c3.065-0.605,6.026-1.565,8.844-2.863    c-1.479,2.515-3.578,4.644-6.131,6.173c-0.565,0.338-0.816,1.024-0.603,1.647c0.212,0.623,0.837,1.012,1.484,0.934    c2.274-0.271,4.506-0.736,6.675-1.388c-1.85,2.124-3.935,4.027-6.234,5.687c-1.051,0.85-0.367,2.407-0.525,3.578    c0.02,11.45-4.221,23.654-11.475,32.908c-1.102,1.431,1.044,3.157,2.2,1.712c8.006-10.239,12.477-23.68,12.036-36.381    c3.591-2.696,6.678-5.957,9.184-9.703C97.61,21.679,97.572,20.997,97.172,20.523z"/></g></g></svg>