<svg width="18" height="20" viewBox="0 0 18 20" fill="none" xmlns="http://www.w3.org/2000/svg">
<path d="M13.853 17.5663C12.9213 13.3548 7.49039 11.2483 6.21844 9.7177C5.56453 8.93079 5.72836 8.09478 6.13688 7.64491C6.57562 7.16279 7.41164 7.06754 8.03531 7.49177C8.58094 7.86178 9.64266 8.88829 9.88102 9.26709C10.1194 9.64516 10.1166 9.95803 10.2445 10.2123C10.3901 10.498 10.7191 10.6504 11.1959 10.5017C11.6374 10.3647 11.8814 10.183 11.8814 10.183C11.8814 10.183 11.4202 10.1646 11.2373 9.89428C11.2373 9.89428 10.5975 8.43255 10.3683 7.83467C11.1016 8.03763 11.5671 8.27209 11.8927 8.48604C11.9327 8.81136 11.7998 9.37187 11.7942 9.39678C11.809 9.38799 12.0459 9.24218 12.3982 8.87657C12.4158 8.89195 12.4334 8.90661 12.4502 8.92053C12.5747 9.02384 12.3455 9.84079 12.3455 9.84079C12.3455 9.84079 12.7758 9.53966 13.1048 9.13228C13.3896 8.78132 13.6294 8.33584 13.6294 8.33584C13.6294 8.33584 12.6977 7.92553 12.2681 7.21481C11.8371 6.50483 12.2126 5.73403 12.2126 5.73403C12.2126 5.73403 11.494 5.49371 10.8921 4.58956C10.2593 3.63852 10.504 2.46988 10.504 2.46988C9.9893 2.68529 9.53789 3.75209 9.53789 3.75209C9.53789 3.75209 8.23781 3.02892 6.54891 3.25386C5.02523 3.24946 3.60914 2.2867 3.02133 0.766357C3.02133 0.766357 2.56641 2.84648 4.28977 4.15581C4.19625 4.22175 4.10273 4.29136 4.00922 4.36609C3.16828 4.86506 2.10023 4.83575 1.27758 4.23494C1.27758 4.23494 1.32117 4.54707 1.48148 4.92221C1.6418 5.29662 1.91813 5.73477 2.3843 5.98681C2.43422 6.01392 2.48344 6.03591 2.53195 6.05496C2.43492 6.21615 2.34492 6.3832 2.26406 6.55465C1.80492 7.35769 0.883125 7.7636 0 7.52328C0 7.52328 0.463359 8.40471 1.29445 8.51242C1.48641 8.53733 1.65375 8.50729 1.79719 8.44794C1.79016 8.81282 1.80773 9.15426 1.84711 9.47811C1.82602 10.1874 1.36688 10.8167 0.6975 11.016H0.696797C0.696797 11.016 1.34227 11.4161 1.93992 11.1465C2.05664 11.0937 2.14664 11.0219 2.21625 10.942C2.70703 12.1774 3.59719 13.1738 4.73203 14.3102C5.03648 14.6158 5.3782 14.9426 5.72484 15.2833C9.135 15.4884 11.7169 17.0791 13.9036 19.5234C13.9725 18.9929 14.0231 18.3349 13.853 17.5663ZM10.2593 5.7714L11.224 6.77153L9.68414 6.1927L10.2593 5.7714ZM12.5861 10.4011C12.5861 10.4011 13.0577 10.902 13.7115 11.0015C13.6673 11.2739 13.6006 11.4098 13.6006 11.4098C13.6006 11.4098 14.7228 12.3513 16.0973 11.7448C16.0339 12.4977 15.138 12.8299 15.138 12.8299C15.138 12.8299 16.1004 14.0726 18 13.3101C16.9694 14.7077 15.4309 14.3182 14.4951 13.8189C13.654 13.3701 12.571 12.0445 12.5861 10.4011Z" fill="#ACACAC"/>
</svg>
