<svg width="19" height="20" viewBox="0 0 19 20" fill="none" xmlns="http://www.w3.org/2000/svg">
<path d="M18.0032 2.94038C18.0032 2.12396 17.7798 1.47787 17.3395 1.02044C15.5717 -0.814794 10.924 1.13666 6.75666 5.46462C6.60524 5.62191 6.46684 5.78958 6.33376 5.96142C6.29007 5.9426 6.2398 5.92577 6.18199 5.91176C4.9818 5.61948 1.12984 6.30136 0.0084984 10.9697C-0.0203598 11.0894 0.0257984 11.2147 0.12386 11.2837C0.171399 11.3175 0.22634 11.3341 0.281275 11.3341C0.339223 11.3341 0.397199 11.3155 0.44637 11.2783C1.96837 10.1278 3.18938 9.66506 4.25526 9.8354C4.1817 9.97437 4.10704 10.1099 4.02994 10.2395C3.96096 10.3554 3.97773 10.5054 4.07031 10.6016L4.51169 11.06L3.68546 11.9178C3.63243 11.9728 3.60275 12.0475 3.60275 12.1253C3.60275 12.2032 3.63243 12.2779 3.68546 12.3329L6.45039 15.2046C6.50532 15.2616 6.577 15.2902 6.64898 15.2902C6.72097 15.2902 6.79267 15.2616 6.84761 15.2046L7.67494 14.3453L8.11756 14.805C8.17197 14.8614 8.24367 14.8906 8.31619 14.8906C8.36699 14.8906 8.41811 14.8763 8.4637 14.8471C8.57997 14.7724 8.70064 14.6998 8.82481 14.6284C9.00791 15.7446 8.56438 17.025 7.44261 18.626C7.37285 18.7256 7.37038 18.8602 7.43628 18.9624C7.48931 19.0448 7.5775 19.0921 7.66979 19.0921C7.69233 19.0921 7.71511 19.0892 7.73764 19.0835C12.2217 17.9215 12.8843 13.9216 12.6079 12.6741C12.591 12.5979 12.5689 12.538 12.5449 12.4849C12.7237 12.3377 12.8979 12.1839 13.0607 12.0148C16.0632 8.89659 18.0032 5.33438 18.0032 2.94038ZM4.51698 9.28648C3.41952 9.04544 2.21355 9.38067 0.781511 10.3308C1.48586 8.29403 2.76876 7.33189 3.77528 6.87874C4.52989 6.53924 5.21666 6.4442 5.65619 6.4442C5.77405 6.4442 5.87375 6.45106 5.95259 6.46167L4.51698 9.28648ZM6.64898 14.5831L4.28266 12.1253L4.9101 11.4741L6.95444 13.597L7.27642 13.9313L6.64898 14.5831ZM11.6833 15.1562C11.2481 16.2065 10.3213 17.5448 8.35355 18.2785C9.26667 16.7925 9.58944 15.541 9.35787 14.4005L12.0791 12.9085C12.128 13.2938 12.0923 14.1687 11.6833 15.1562ZM9.75811 13.4831C9.26339 13.7313 8.79223 13.9671 8.35985 14.2288L4.62356 10.3485C4.82534 9.98847 5.01187 9.59747 5.20079 9.19359L6.34309 6.94613C6.58217 6.56049 6.84704 6.19844 7.15389 5.87969C10.9663 1.92014 15.4481 -0.114886 16.9423 1.43551C17.273 1.77903 17.4406 2.28541 17.4406 2.94038C17.4406 5.15202 15.5207 8.6321 12.6634 11.5998C11.8676 12.4262 10.7951 12.9635 9.75811 13.4831Z" fill="#ACACAC"/>
<path d="M12.0187 4.09955C11.6981 4.4319 11.5215 4.87418 11.5215 5.34477C11.5215 5.81569 11.6981 6.25796 12.0187 6.59031C12.3492 6.93295 12.7832 7.10443 13.2172 7.10443C13.6513 7.10443 14.0853 6.93295 14.4155 6.59031C14.7361 6.25796 14.9125 5.81569 14.9125 5.34477C14.9125 4.87418 14.7361 4.4319 14.4155 4.09955C13.7551 3.41424 12.6797 3.41424 12.0187 4.09955ZM14.0189 6.17465C13.5766 6.63323 12.8577 6.63323 12.4154 6.17465C12.2019 5.95308 12.0841 5.65851 12.0841 5.34477C12.0841 5.03133 12.2019 4.73676 12.4154 4.51518C12.6365 4.2859 12.9269 4.1714 13.2172 4.1714C13.5076 4.1714 13.7977 4.2859 14.0189 4.51518C14.2323 4.73676 14.3499 5.03133 14.3499 5.34477C14.3499 5.65851 14.2323 5.95308 14.0189 6.17465Z" fill="#ACACAC"/>
<path d="M4.63192 14.152C4.52233 14.0372 4.34432 14.0372 4.23416 14.1514L1.42255 17.0715C1.31264 17.1857 1.3121 17.3712 1.42198 17.486C1.47692 17.5436 1.5489 17.5722 1.62114 17.5722C1.69284 17.5722 1.76483 17.5436 1.81977 17.4866L4.63139 14.5665C4.74126 14.4522 4.74183 14.2667 4.63192 14.152Z" fill="#ACACAC"/>
<path d="M1.61021 15.5658C1.68189 15.5658 1.75382 15.5372 1.80877 15.4803L3.65963 13.5579C3.76946 13.4437 3.76975 13.2582 3.66016 13.1435C3.55061 13.0287 3.37266 13.0285 3.26254 13.1429L1.41165 15.0653C1.30181 15.1795 1.30153 15.365 1.41112 15.4797C1.46604 15.5372 1.538 15.5658 1.61021 15.5658Z" fill="#ACACAC"/>
<path d="M5.20392 15.1594L3.35306 17.0818C3.24322 17.196 3.24294 17.3814 3.35252 17.4962C3.40744 17.5537 3.47937 17.5823 3.55161 17.5823C3.62326 17.5823 3.69523 17.5537 3.75014 17.4967L5.60103 15.5743C5.71087 15.4602 5.71116 15.2747 5.60157 15.16C5.49201 15.0452 5.31404 15.0449 5.20392 15.1594Z" fill="#ACACAC"/>
</svg>
