<svg width="18" height="19" viewBox="0 0 18 19" fill="none" xmlns="http://www.w3.org/2000/svg">
<path d="M8.18182 1.0396V7.86033C8.18188 7.97232 8.16076 8.08321 8.11966 8.18668C8.07857 8.29015 8.0183 8.38417 7.94232 8.46335C7.86633 8.54253 7.77611 8.60533 7.67681 8.64816C7.57752 8.69098 7.4711 8.71299 7.36364 8.71292H0.818182C0.710719 8.71299 0.604298 8.69098 0.505004 8.64816C0.40571 8.60533 0.315489 8.54253 0.239502 8.46335C0.163514 8.38417 0.10325 8.29015 0.0621544 8.18668C0.0210589 8.08321 -6.18429e-05 7.97232 1.36013e-07 7.86033V1.0396C-6.18429e-05 0.927621 0.0210589 0.816725 0.0621544 0.713254C0.10325 0.609784 0.163514 0.515769 0.239502 0.436586C0.315489 0.357403 0.40571 0.294604 0.505004 0.25178C0.604298 0.208956 0.710719 0.186947 0.818182 0.187012H7.36364C7.4711 0.186947 7.57752 0.208956 7.67681 0.25178C7.77611 0.294604 7.86633 0.357403 7.94232 0.436586C8.0183 0.51577 8.07857 0.609784 8.11966 0.713254C8.16076 0.816725 8.18188 0.927621 8.18182 1.0396ZM17.1818 0.187012H10.6364C10.5289 0.186947 10.4225 0.208956 10.3232 0.25178C10.2239 0.294604 10.1337 0.357403 10.0577 0.436586C9.9817 0.515769 9.92143 0.609784 9.88034 0.713254C9.83924 0.816725 9.81812 0.927621 9.81818 1.0396V7.86033C9.81812 7.97232 9.83924 8.08321 9.88034 8.18668C9.92143 8.29015 9.9817 8.38417 10.0577 8.46335C10.1337 8.54253 10.2239 8.60533 10.3232 8.64816C10.4225 8.69098 10.5289 8.71299 10.6364 8.71292H17.1818C17.2893 8.71299 17.3957 8.69098 17.495 8.64816C17.5943 8.60533 17.6845 8.54253 17.7605 8.46335C17.8365 8.38417 17.8968 8.29015 17.9378 8.18668C17.9789 8.08321 18.0001 7.97232 18 7.86033V1.0396C18.0001 0.927621 17.9789 0.816725 17.9378 0.713254C17.8968 0.609784 17.8365 0.51577 17.7605 0.436586C17.6845 0.357403 17.5943 0.294604 17.495 0.25178C17.3957 0.208956 17.2893 0.186947 17.1818 0.187012ZM7.36364 10.4181H0.818182C0.710719 10.418 0.604298 10.4401 0.505004 10.4829C0.40571 10.5257 0.315489 10.5885 0.239502 10.6677C0.163514 10.7469 0.10325 10.8409 0.0621544 10.9444C0.0210589 11.0478 -6.18429e-05 11.1587 1.36013e-07 11.2707V18.0914C-6.18429e-05 18.2034 0.0210589 18.3143 0.0621544 18.4178C0.10325 18.5212 0.163514 18.6153 0.239502 18.6944C0.315489 18.7736 0.40571 18.8364 0.505004 18.8793C0.604298 18.9221 0.710719 18.9441 0.818182 18.944H7.36364C7.4711 18.9441 7.57752 18.9221 7.67681 18.8793C7.77611 18.8364 7.86633 18.7736 7.94232 18.6944C8.0183 18.6153 8.07857 18.5212 8.11966 18.4178C8.16076 18.3143 8.18188 18.2034 8.18182 18.0914V11.2707C8.18188 11.1587 8.16076 11.0478 8.11966 10.9444C8.07857 10.8409 8.0183 10.7469 7.94232 10.6677C7.86633 10.5885 7.77611 10.5257 7.67681 10.4829C7.57752 10.4401 7.4711 10.418 7.36364 10.4181ZM17.1818 10.4181H10.6364C10.5289 10.418 10.4225 10.4401 10.3232 10.4829C10.2239 10.5257 10.1337 10.5885 10.0577 10.6677C9.9817 10.7469 9.92143 10.8409 9.88034 10.9444C9.83924 11.0478 9.81812 11.1587 9.81818 11.2707V18.0914C9.81812 18.2034 9.83924 18.3143 9.88034 18.4178C9.92143 18.5212 9.9817 18.6153 10.0577 18.6944C10.1337 18.7736 10.2239 18.8364 10.3232 18.8793C10.4225 18.9221 10.5289 18.9441 10.6364 18.944H17.1818C17.2893 18.9441 17.3957 18.9221 17.495 18.8793C17.5943 18.8364 17.6845 18.7736 17.7605 18.6944C17.8365 18.6153 17.8968 18.5212 17.9378 18.4178C17.9789 18.3143 18.0001 18.2034 18 18.0914V11.2707C18.0001 11.1587 17.9789 11.0478 17.9378 10.9444C17.8968 10.8409 17.8365 10.7469 17.7605 10.6677C17.6845 10.5885 17.5943 10.5257 17.495 10.4829C17.3957 10.4401 17.2893 10.418 17.1818 10.4181Z" fill="#ACACAC"/>
</svg>
