<svg width="18" height="19" viewBox="0 0 18 19" fill="none" xmlns="http://www.w3.org/2000/svg">
<path d="M3.11399 15.8792L3.13051 15.8583C3.59801 16.285 4.18199 16.5765 4.82628 16.6743L4.97601 16.6934L4.9761 18.7656C3.789 18.6893 2.70791 18.2047 1.86052 17.445L1.72868 17.3228L3.11399 15.8792ZM7.57338 15.7723L8.92437 17.18C8.94203 17.1984 8.96118 17.2143 8.98208 17.2268C8.14644 18.0693 7.04488 18.6272 5.82131 18.7504L5.63688 18.7656L5.63709 16.6934C6.38357 16.6161 7.05696 16.2799 7.57338 15.7723ZM2.00252 13.6117L2.01875 13.6108C2.07577 14.2108 2.28062 14.7656 2.59483 15.2349L2.6832 15.3608L2.64673 15.3923L1.27104 16.826C0.596852 15.9967 0.15389 14.9567 0.045844 13.8143L0.0302734 13.6116L2.00252 13.6117ZM8.59434 13.6108L8.61057 13.6117L10.5828 13.6116C10.5173 14.7195 10.1375 15.7388 9.53521 16.5739L9.4197 16.7283L9.39163 16.6931L8.00741 15.2511C8.32776 14.7783 8.53668 14.2177 8.59434 13.6108ZM5.30655 10.513C6.76636 10.513 7.94977 11.7462 7.94977 13.2674C7.94977 14.7886 6.76636 16.0218 5.30655 16.0218C3.84674 16.0218 2.66333 14.7886 2.66333 13.2674C2.66333 11.7462 3.84674 10.513 5.30655 10.513ZM11.1048 13.5364C11.4418 13.7311 11.816 13.8649 12.2131 13.9252L12.3628 13.9443L12.3629 16.0165C11.7629 15.9779 11.19 15.8351 10.6607 15.6051C10.919 14.9642 11.0741 14.2672 11.1048 13.5364ZM14.9602 13.0232L16.3112 14.4309C16.3288 14.4493 16.348 14.4652 16.3689 14.4777C15.5333 15.3202 14.4317 15.8781 13.2081 16.0013L13.0237 16.0165L13.0239 13.9443C13.7704 13.867 14.4438 13.5308 14.9602 13.0232ZM15.9812 10.8617L15.9974 10.8626L17.9696 10.8625C17.9041 11.9704 17.5243 12.9897 16.922 13.8248L16.8065 13.9792L16.7784 13.944L15.3942 12.502C15.7146 12.0292 15.9235 11.4686 15.9812 10.8617ZM13.4951 7.89336C14.5629 8.24661 15.3366 9.2883 15.3366 10.5183C15.3366 12.0395 14.1532 13.2727 12.6934 13.2727C12.088 13.2727 11.5303 13.0607 11.0847 12.704C11.0448 12.2434 10.9545 11.7983 10.8204 11.3739C12.0897 10.6185 13.0589 9.37734 13.4951 7.89336ZM1.27059 9.70932L2.64673 11.1425L2.6832 11.174C2.34942 11.6275 2.12151 12.1701 2.03793 12.7616L2.01875 12.9241L2.00252 12.9231L0.0302734 12.9231C0.102583 11.7013 0.557027 10.5873 1.27059 9.70932ZM7.87533 11.1019L9.28167 9.63579C9.9908 10.478 10.4574 11.5474 10.5678 12.7257L10.5828 12.9231L8.61057 12.9231L8.59434 12.9241C8.53411 12.2901 8.30888 11.7067 7.96402 11.2212L7.87533 11.1019ZM10.2115 8.62461L11.5625 10.0323C11.5802 10.0507 11.5993 10.0666 11.6202 10.0791C11.323 10.3788 10.9921 10.6425 10.634 10.8635C10.3666 10.2212 9.99564 9.63688 9.54291 9.13331C9.78607 8.99357 10.0107 8.82207 10.2115 8.62461ZM4.9761 7.76923L4.97615 9.82442C4.97615 9.83037 4.97628 9.83629 4.97705 9.84134C4.27316 9.91396 3.63422 10.2168 3.1323 10.6763L3.12338 10.6658L3.11399 10.6556L1.72868 9.212C2.59439 8.3822 3.72652 7.84954 4.9761 7.76923ZM5.63694 9.82442L5.63688 7.76923C6.78981 7.8433 7.84275 8.30244 8.67872 9.02476L8.816 9.14757L7.41024 10.6124C6.95615 10.2213 6.40005 9.95418 5.78972 9.86099L5.63604 9.84134L5.63694 9.82442ZM16.6685 6.8867C17.3776 7.72889 17.8442 8.79834 17.9546 9.97659L17.9696 10.174L15.9974 10.174L15.9812 10.175C15.9209 9.54102 15.6957 8.95764 15.3508 8.47209L15.2621 8.35278L16.6685 6.8867ZM11.2325 6.46311L11.2487 6.46405L13.221 6.46398C13.1554 7.57186 12.7756 8.59113 12.1734 9.42622L12.0578 9.58062L12.0298 9.54544L10.6456 8.10342C10.9659 7.63065 11.1748 7.07005 11.2325 6.46311ZM7.94469 3.36538C9.4045 3.36538 10.5879 4.59855 10.5879 6.11976C10.5879 7.23696 9.9496 8.19881 9.03229 8.63091C8.07586 7.79456 6.85706 7.27457 5.52335 7.22354C5.38036 6.88602 5.30148 6.51249 5.30148 6.11976C5.30148 4.59855 6.48489 3.36538 7.94469 3.36538ZM13.6671 5.10366C14.5675 5.27746 15.3878 5.69008 16.0655 6.27567L16.2028 6.39847L14.797 7.86329C14.464 7.57641 14.0761 7.35626 13.6521 7.22252C13.7156 6.8652 13.7486 6.4965 13.7486 6.11976C13.7486 5.77349 13.7207 5.43402 13.6671 5.10366ZM4.6569 6.46311C4.68253 6.7329 4.73804 6.99352 4.81995 7.24136C4.13903 7.29928 3.49173 7.48058 2.8981 7.76309C2.79225 7.41191 2.71976 7.04489 2.68399 6.66662L2.66842 6.46398L4.64067 6.46405L4.6569 6.46311ZM3.90874 2.56167L5.28488 3.9949L5.32135 4.02636C4.98757 4.47987 4.75965 5.02242 4.67608 5.61392L4.6569 5.7764L4.64067 5.77547L2.66842 5.77541C2.74073 4.55369 3.19517 3.4397 3.90874 2.56167ZM11.9198 2.48814C12.6289 3.33033 13.0955 4.39979 13.2059 5.57804L13.221 5.77541L11.2487 5.77547L11.2325 5.7764C11.1723 5.14247 10.947 4.55908 10.6022 4.07354L10.5135 3.95422L11.9198 2.48814ZM7.61425 0.621582L7.6143 2.67678C7.6143 2.68272 7.61443 2.68864 7.6152 2.69369C6.91131 2.76631 6.27236 3.06913 5.77045 3.52869L5.76153 3.51818L5.75214 3.50798L4.36682 2.06435C5.23254 1.23455 6.36467 0.701893 7.61425 0.621582ZM8.27503 0.621582C9.42795 0.695652 10.4809 1.15479 11.3169 1.87712L11.4541 1.99992L10.0484 3.46474C9.5943 3.07361 9.03819 2.80653 8.42787 2.71334L8.27419 2.69369L8.27509 2.67678L8.27503 0.621582Z" fill="#ACACAC"/>
</svg>
