<svg width="60" height="60" viewBox="0 0 60 60" fill="none" xmlns="http://www.w3.org/2000/svg">
<path d="M0.102539 31.7596C0.102539 30.5883 0.102539 29.4156 0.102539 28.2443C0.150825 27.823 0.19911 27.4018 0.245932 26.9791C0.961435 20.5238 3.41961 14.8289 7.75798 9.99991C12.3627 4.87299 18.0691 1.67179 24.8584 0.466751C25.9836 0.267134 27.1234 0.154116 28.2574 0C29.425 0 30.5941 0 31.7617 0C32.7626 0.126228 33.7692 0.21723 34.7627 0.383088C41.0091 1.42961 46.4537 4.1259 50.9325 8.6158C57.6501 15.3514 60.6101 23.5371 59.7497 33.0175C59.1732 39.3817 56.6887 45.0047 52.4484 49.7838C46.8151 56.1304 39.7259 59.5489 31.2657 59.9628C25.3661 60.2505 19.8191 58.8722 14.7696 55.7811C7.00883 51.0314 2.2432 44.1534 0.567836 35.1648C0.358598 34.039 0.254711 32.8942 0.102539 31.7596ZM30.0103 4.66017C16.0733 4.66017 4.76721 15.9957 4.74819 29.9865C4.72917 43.9523 16.0265 55.3041 29.9825 55.3422C43.9136 55.3804 55.2929 43.9714 55.2738 29.9865C55.2533 15.9943 43.9472 4.66017 30.0103 4.66017Z" fill="#E46400"/>
<path d="M27.6838 32.1133C25.2052 32.1133 22.8128 32.1133 20.4205 32.1133C19.7196 32.1133 19.0188 32.1324 18.3194 32.103C17.1049 32.0517 16.1597 31.0771 16.1158 29.872C16.0734 28.6934 16.9191 27.6851 18.1087 27.5119C18.3764 27.4737 18.6515 27.4605 18.9222 27.4605C21.5881 27.4575 24.2555 27.4575 26.9215 27.4575C27.1512 27.4575 27.3809 27.4575 27.6824 27.4575C27.6824 27.1978 27.6824 26.9908 27.6824 26.7824C27.6824 23.9907 27.678 21.199 27.6853 18.4058C27.6882 17.1582 28.3276 16.2409 29.368 15.9488C30.9146 15.5158 32.3192 16.6283 32.3295 18.331C32.347 21.1036 32.3339 23.8762 32.3339 26.6488C32.3339 26.8969 32.3339 27.1449 32.3339 27.4575C32.6236 27.4575 32.8518 27.4575 33.0801 27.4575C35.825 27.4575 38.5685 27.4517 41.3135 27.4605C42.5514 27.4649 43.4044 28.0124 43.76 28.9928C44.3174 30.5296 43.22 32.0928 41.5388 32.106C38.7748 32.1265 36.0109 32.1118 33.2469 32.1118C32.9747 32.1118 32.704 32.1118 32.3324 32.1118C32.3324 32.3364 32.3324 32.5404 32.3324 32.7445C32.3324 35.5758 32.3412 38.4071 32.328 41.237C32.3222 42.649 31.4033 43.6647 30.1303 43.716C28.7066 43.7747 27.6882 42.74 27.6824 41.1944C27.6721 38.4027 27.6794 35.611 27.6794 32.8178C27.6838 32.608 27.6838 32.3966 27.6838 32.1133Z" fill="#E46400"/>
</svg>
