<svg width="18" height="18" viewBox="0 0 18 18" fill="none" xmlns="http://www.w3.org/2000/svg">
<g clip-path="url(#clip0_1_4)">
<path d="M12.9304 4.76143C12.6333 4.45173 12.4593 4.03655 12.4433 3.59895C12.4273 3.16134 12.5704 2.73357 12.844 2.40116C12.8666 2.37352 12.8784 2.33798 12.8769 2.30168C12.8754 2.26537 12.8609 2.23098 12.8361 2.2054L11.26 0.561178C11.234 0.534042 11.1986 0.518799 11.1618 0.518799C11.125 0.518799 11.0896 0.534042 11.0636 0.561178L8.55143 3.17899C8.45874 3.27555 8.38892 3.39329 8.3475 3.52287C8.30624 3.65275 8.2365 3.77082 8.14382 3.86772C8.05114 3.96462 7.93807 4.03769 7.81357 4.08112C7.68914 4.12432 7.57604 4.19707 7.48321 4.29362L1.04067 11.0056C1.01463 11.0328 1 11.0696 1 11.108C1 11.1464 1.01463 11.1832 1.04067 11.2103L2.61675 12.8527C2.6413 12.8785 2.6743 12.8937 2.70914 12.8952C2.74398 12.8967 2.77808 12.8844 2.80461 12.8609C3.12353 12.5755 3.53413 12.4261 3.95422 12.4427C4.37431 12.4593 4.77288 12.6406 5.07014 12.9504C5.3674 13.2602 5.54142 13.6755 5.55735 14.1132C5.57328 14.551 5.42995 14.9789 5.15605 15.3112C5.13342 15.3388 5.12166 15.3744 5.12312 15.4107C5.12457 15.447 5.13914 15.4814 5.16391 15.507L6.73999 17.1493C6.76604 17.1765 6.80137 17.1917 6.83821 17.1917C6.87504 17.1917 6.91037 17.1765 6.93642 17.1493L13.3793 10.4358C13.472 10.3391 13.5418 10.2213 13.5832 10.0916C13.6245 9.96171 13.6942 9.84364 13.7869 9.74673C13.8796 9.64983 13.9927 9.57677 14.1172 9.53334C14.2415 9.49018 14.3545 9.41742 14.4472 9.32083L16.9593 6.70302C16.9854 6.67587 17 6.63906 17 6.60068C17 6.56229 16.9854 6.52548 16.9593 6.49833L15.3833 4.85596C15.3587 4.83016 15.3257 4.81497 15.2909 4.81346C15.256 4.81194 15.2219 4.8242 15.1954 4.84778C14.8769 5.13337 14.4666 5.28313 14.0467 5.26712C13.6267 5.25111 13.2281 5.07051 12.9304 4.76143Z" stroke="#ACACAC" stroke-miterlimit="10"/>
<path d="M8.80351 4.55401L8.21387 3.94006" stroke="#ACACAC" stroke-miterlimit="10" stroke-linecap="round"/>
<path d="M10.3756 6.19262L9.98242 5.78357" stroke="#ACACAC" stroke-miterlimit="10" stroke-linecap="round"/>
<path d="M11.9475 7.83117L11.5547 7.42175" stroke="#ACACAC" stroke-miterlimit="10" stroke-linecap="round"/>
<path d="M13.7166 9.67388L13.127 9.05994" stroke="#ACACAC" stroke-miterlimit="10" stroke-linecap="round"/>
</g>
<defs>
<clipPath id="clip0_1_4">
<rect width="18" height="18" fill="white"/>
</clipPath>
</defs>
</svg>
