<svg width="15" height="15" viewBox="0 0 15 15" fill="none" xmlns="http://www.w3.org/2000/svg">
<path d="M0.750225 7.51483L4.01451 8.87331L5.27799 13.4041C5.35884 13.6942 5.67707 13.8015 5.88829 13.6089L7.70786 11.955C7.89859 11.7817 8.17026 11.773 8.36959 11.9344L11.6514 14.5911C11.8774 14.7743 12.1975 14.6362 12.2542 14.3318L14.6583 1.4372C14.7202 1.10464 14.4271 0.827203 14.1431 0.949677L0.7464 6.71222C0.415797 6.85438 0.418678 7.37629 0.750225 7.51483ZM5.07437 8.15015L11.454 3.76895C11.5687 3.69044 11.6866 3.8633 11.5882 3.96514L6.32312 9.42223C6.13805 9.61431 6.01867 9.87137 5.98486 10.1504L5.80551 11.6324C5.78176 11.8303 5.53247 11.8499 5.4835 11.6584L4.79373 8.95592C4.71473 8.64769 4.82985 8.31844 5.07437 8.15015Z" fill="white"/>
</svg>
