<svg width="15" height="16" viewBox="0 0 15 16" fill="none" xmlns="http://www.w3.org/2000/svg">
<path d="M14.476 3.82425C14.4648 3.68933 14.3795 3.57342 14.2577 3.52721C14.1355 3.48071 13.9988 3.51236 13.9069 3.60795L12.0269 5.56693L9.94272 4.87926L9.2828 2.70746L11.1629 0.748328C11.2549 0.652545 11.2849 0.510039 11.2406 0.382982C11.1958 0.255671 11.0848 0.166996 10.9551 0.155307C9.8133 0.0527952 8.69456 0.477596 7.8857 1.32059C6.7779 2.47508 6.48454 4.16095 7.00403 5.59795C6.94725 5.6478 6.89122 5.70062 6.83596 5.75758L0.560319 11.9284C0.558106 11.9306 0.555923 11.9331 0.553528 11.9353C-0.184509 12.7044 -0.184509 13.9558 0.553528 14.725C1.29169 15.4941 2.48379 15.4847 3.22171 14.7156C3.22489 14.7125 3.2278 14.7094 3.23071 14.706L9.10082 8.11551C9.15432 8.0595 9.20401 8.0009 9.25085 7.94075C10.6302 8.48307 12.2491 8.17809 13.3578 7.02285C14.1665 6.17979 14.5745 5.0139 14.476 3.82425ZM2.27601 13.8942C2.00405 14.1775 1.56359 14.1774 1.29166 13.8942C1.01981 13.6111 1.01981 13.1518 1.29166 12.8686C1.56359 12.5854 2.00405 12.5854 2.27601 12.8686C2.54785 13.1518 2.54785 13.6111 2.27601 13.8942Z" fill="#ACACAC"/>
</svg>
