<svg width="17" height="14" viewBox="0 0 17 14" fill="none" xmlns="http://www.w3.org/2000/svg">
<path d="M14.604 3.91953C14.6102 4.05837 14.6134 4.19786 14.6134 4.33797C14.6134 8.61152 11.3706 13.5391 5.44182 13.5391C3.62122 13.5391 1.92656 13.0036 0.5 12.0861C0.752509 12.1161 1.00877 12.1314 1.26909 12.1314C2.7795 12.1314 4.16925 11.6144 5.27286 10.7469C3.86189 10.7209 2.67163 9.78588 2.26138 8.50112C2.45842 8.53897 2.66013 8.5593 2.86806 8.5593C3.16171 8.5593 3.44662 8.5196 3.71725 8.44578C2.24269 8.14863 1.13127 6.84173 1.13127 5.2749C1.13127 5.26114 1.13127 5.24769 1.13161 5.23425C1.56618 5.4763 2.06311 5.62174 2.59181 5.63861C1.72672 5.05882 1.15778 4.06898 1.15778 2.94687C1.15778 2.35425 1.31644 1.79882 1.5942 1.32126C3.18412 3.27774 5.55897 4.56497 8.23815 4.70007C8.18329 4.46333 8.15457 4.21658 8.15457 3.96296C8.15457 2.17722 9.59795 0.729248 11.378 0.729248C12.3058 0.729248 13.1431 1.12205 13.7311 1.75033C14.4656 1.60554 15.1551 1.33628 15.778 0.965657C15.5373 1.72094 15.0267 2.35453 14.3608 2.75482C15.013 2.67663 15.6346 2.50278 16.2126 2.2457C15.7805 2.89403 15.2337 3.46352 14.604 3.91953Z" fill="white"/>
</svg>
