<svg width="16" height="16" viewBox="0 0 16 16" fill="none" xmlns="http://www.w3.org/2000/svg">
<path d="M15.4757 10.2962C15.7608 9.50396 15.9163 8.6532 15.9163 7.7677C15.9163 6.88221 15.7608 6.03145 15.4757 5.23923C15.4688 5.21543 15.4605 5.19222 15.4505 5.1699C14.3509 2.20661 11.4263 0.0820312 7.99967 0.0820312C4.5731 0.0820312 1.64835 2.20661 0.548828 5.1699C0.538841 5.1923 0.530519 5.21543 0.523634 5.23923C0.238559 6.03145 0.0830078 6.88221 0.0830078 7.7677C0.0830078 8.6532 0.238559 9.50396 0.523634 10.2962C0.530594 10.32 0.538841 10.3432 0.548828 10.3655C1.64843 13.3289 4.5731 15.4534 7.99967 15.4534C11.4263 15.4534 14.3509 13.3288 15.4505 10.3655C15.4605 10.3432 15.4688 10.32 15.4757 10.2962ZM7.99967 14.3517C7.69818 14.3517 7.21209 13.822 6.80581 12.6386C6.60971 12.0675 6.45272 11.4111 6.33832 10.6969H9.66103C9.54663 11.4111 9.38964 12.0675 9.19362 12.6386C8.78726 13.822 8.30117 14.3517 7.99967 14.3517ZM6.20063 9.59518C6.14608 9.00774 6.11725 8.39488 6.11725 7.7677C6.11725 7.14052 6.14608 6.52767 6.20063 5.94023H9.79865C9.85319 6.52767 9.88202 7.14052 9.88202 7.7677C9.88202 8.39488 9.85319 9.00774 9.79865 9.59518H6.20063ZM1.21779 7.76778C1.21779 7.13391 1.31077 6.52076 1.4838 5.9403H5.06237C5.00933 6.53986 4.9824 7.15433 4.9824 7.76778C4.9824 8.38122 5.00926 8.99569 5.06237 9.59525H1.4838C1.31077 9.01472 1.21779 8.40164 1.21779 7.76778ZM7.99967 1.18376C8.30117 1.18376 8.78734 1.71347 9.19362 2.89688C9.38964 3.46794 9.54671 4.12443 9.66103 4.8385H6.33825C6.45264 4.12435 6.60963 3.46794 6.80573 2.89688C7.21209 1.71347 7.69818 1.18376 7.99967 1.18376ZM10.9369 5.9403H14.5155C14.6885 6.52076 14.7815 7.13391 14.7815 7.76778C14.7815 8.40164 14.6885 9.01479 14.5155 9.59525H10.9369C10.9899 8.99569 11.0169 8.38122 11.0169 7.76778C11.0169 7.15433 10.9899 6.53986 10.9369 5.9403ZM14.0721 4.83857H10.8067C10.6048 3.48733 10.2586 2.27506 9.77277 1.41263C11.6562 1.90833 13.2167 3.17393 14.0721 4.83857ZM6.2265 1.41255C5.74071 2.27499 5.39443 3.48726 5.19258 4.83857H1.92722C2.78267 3.17393 4.34302 1.90833 6.2265 1.41255ZM1.92722 10.6969H5.19258C5.39443 12.0481 5.74071 13.2604 6.2265 14.1229C4.34302 13.6271 2.78267 12.3616 1.92722 10.6969ZM9.77277 14.1229C10.2586 13.2605 10.6048 12.0482 10.8067 10.6969H14.0721C13.2167 12.3616 11.6562 13.6271 9.77277 14.1229Z" fill="white"/>
</svg>
