<svg xmlns="http://www.w3.org/2000/svg" width="621.93" height="337.053" viewBox="0 0 621.93 337.053">
  <g id="Group_2789" data-name="Group 2789" transform="translate(-45.301 -62.013)">
    <g id="Background_Complete" data-name="Background Complete" transform="translate(76.689 66.629)">
      <g id="Group_2696" data-name="Group 2696" transform="translate(-24 91.527)">
        <g id="Group_2694" data-name="Group 2694">
          <g id="Group_2693" data-name="Group 2693">
            <rect id="Rectangle_471" data-name="Rectangle 471" width="143.503" height="96.703" transform="translate(0.468 0.468)" fill="#fff"/>
            <path id="Path_4320" data-name="Path 4320" d="M223.274,262.37H78.836V164.731H223.274Zm-143.5-.936H222.338V165.667H79.772Z" transform="translate(-78.836 -164.731)" fill="#ebebeb"/>
          </g>
        </g>
        <g id="Group_2695" data-name="Group 2695" transform="translate(7.725 4.481)">
          <path id="Path_4321" data-name="Path 4321" d="M93.7,172.822a3.3,3.3,0,1,1-3.3-3.3A3.305,3.305,0,0,1,93.7,172.822Z" transform="translate(-87.089 -169.518)" fill="#37474f"/>
          <path id="Path_4322" data-name="Path 4322" d="M108.116,172.822a3.3,3.3,0,1,1-3.3-3.3A3.3,3.3,0,0,1,108.116,172.822Z" transform="translate(-88.012 -169.518)" fill="#ebebeb"/>
          <path id="Path_4323" data-name="Path 4323" d="M122.534,172.822a3.3,3.3,0,1,1-3.3-3.3A3.305,3.305,0,0,1,122.534,172.822Z" transform="translate(-88.935 -169.518)" fill="#ffc727"/>
        </g>
        <rect id="Rectangle_472" data-name="Rectangle 472" width="143.503" height="0.936" transform="translate(0.468 14.568)" fill="#ebebeb"/>
      </g>
      <g id="Group_2700" data-name="Group 2700" transform="translate(432.422 158.994)">
        <g id="Group_2698" data-name="Group 2698">
          <g id="Group_2697" data-name="Group 2697">
            <rect id="Rectangle_473" data-name="Rectangle 473" width="143.503" height="96.703" transform="translate(0.468 0.468)" fill="#fff"/>
            <path id="Path_4324" data-name="Path 4324" d="M685.268,334.451H540.83v-97.64H685.268Zm-143.5-.936H684.332V237.747H541.766Z" transform="translate(-540.83 -236.811)" fill="#ebebeb"/>
          </g>
        </g>
        <g id="Group_2699" data-name="Group 2699" transform="translate(7.725 4.481)">
          <path id="Path_4325" data-name="Path 4325" d="M555.693,244.9a3.3,3.3,0,1,1-3.3-3.3A3.305,3.305,0,0,1,555.693,244.9Z" transform="translate(-549.083 -241.598)" fill="#37474f"/>
          <path id="Path_4326" data-name="Path 4326" d="M570.11,244.9a3.3,3.3,0,1,1-3.3-3.3A3.305,3.305,0,0,1,570.11,244.9Z" transform="translate(-550.006 -241.598)" fill="#ebebeb"/>
          <path id="Path_4327" data-name="Path 4327" d="M584.528,244.9a3.3,3.3,0,1,1-3.3-3.3A3.305,3.305,0,0,1,584.528,244.9Z" transform="translate(-550.929 -241.598)" fill="#ffc727"/>
        </g>
        <rect id="Rectangle_474" data-name="Rectangle 474" width="143.503" height="0.936" transform="translate(0.468 14.569)" fill="#ebebeb"/>
      </g>
      <g id="Group_2704" data-name="Group 2704" transform="translate(33.121 171.705)">
        <path id="Path_4328" data-name="Path 4328" d="M183.1,265.586a15.183,15.183,0,0,1-15.194,15.195c-.271,0-.523,0-.776-.019l-27.032.054a15.194,15.194,0,0,1,0-30.389h26.78c.343-.018.686-.036,1.029-.036A15.194,15.194,0,0,1,183.1,265.586Z" transform="translate(-124.906 -250.392)" fill="#f04148"/>
        <g id="Group_2703" data-name="Group 2703" transform="translate(15.357 9.344)">
          <g id="IaQ7Yo">
            <g id="Group_2702" data-name="Group 2702">
              <g id="Group_2701" data-name="Group 2701">
                <path id="Path_4329" data-name="Path 4329" d="M141.323,266.726a3.054,3.054,0,0,1,.526-1.584c.133-.215.281-.42.422-.629l.917-.919c.355-.256.7-.523,1.066-.765a13.208,13.208,0,0,1,4.814-1.872,30.6,30.6,0,0,1,11.961.015,13.034,13.034,0,0,1,4.751,1.845c.377.249.736.525,1.1.789l.885.884a10.658,10.658,0,0,1,.65,1.058,9.474,9.474,0,0,1,.377,1.141c-.14.011-.206.021-.271.022q-3.777.006-7.553.012a.3.3,0,0,1-.3-.18,2.623,2.623,0,0,0-2.234-1.426,53.126,53.126,0,0,0-6.829,0,2.626,2.626,0,0,0-2.23,1.433c-.06.1-.109.18-.256.181q-3.836-.007-7.67,0C141.413,266.736,141.374,266.73,141.323,266.726Z" transform="translate(-141.313 -260.375)" fill="#fff"/>
                <path id="Path_4330" data-name="Path 4330" d="M141.314,271.684q0-1.332,0-2.664c0-.068.006-.137.007-.184l7.741-.009c-.008.173-.025.37-.025.567,0,.756,0,1.514,0,2.27a.87.87,0,0,1-.985.985l-5.768.006A.861.861,0,0,1,141.314,271.684Z" transform="translate(-141.313 -260.915)" fill="#fff"/>
                <path id="Path_4331" data-name="Path 4331" d="M162.369,271.722c.01-.971.047-1.942.073-2.907l7.63-.011c0,.045.01.1.01.165,0,.9,0,1.806,0,2.71a.852.852,0,0,1-.943.948q-2.917.006-5.836,0A.842.842,0,0,1,162.369,271.722Z" transform="translate(-142.661 -260.914)" fill="#fff"/>
              </g>
            </g>
          </g>
        </g>
      </g>
      <g id="Group_2705" data-name="Group 2705" transform="translate(68.188 59.072)">
        <path id="Path_4332" data-name="Path 4332" d="M682.3,237.188a4.214,4.214,0,0,1,.03-4.412q.336-.556.646-1.133t.591-1.176a4.2,4.2,0,0,1,3.646-2.455l5.428-.168-.549-17.68-5.463.168a4.183,4.183,0,0,1-3.781-2.231,24.242,24.242,0,0,0-1.352-2.192,4.244,4.244,0,0,1-.308-4.43l2.559-4.773-15.593-8.362-2.56,4.773a4.244,4.244,0,0,1-3.86,2.194,24.611,24.611,0,0,0-2.576.086,4.18,4.18,0,0,1-3.95-1.915l-2.882-4.643L637.3,198.161l2.873,4.637a4.132,4.132,0,0,1,0,4.33q-.355.584-.682,1.193t-.617,1.229a4.146,4.146,0,0,1-3.629,2.4l-5.432.165.549,17.679,5.413-.171a4.134,4.134,0,0,1,3.773,2.141,24.7,24.7,0,0,0,1.484,2.394,4.134,4.134,0,0,1,.234,4.323l-2.559,4.771,15.594,8.363,2.559-4.772a4.244,4.244,0,0,1,3.865-2.194,24.447,24.447,0,0,0,2.581-.083,4.192,4.192,0,0,1,3.955,1.923l2.869,4.63,15.031-9.323Zm-26.2-3.644A14.493,14.493,0,1,1,673,228.433,14.51,14.51,0,0,1,656.108,233.544Z" transform="translate(-170.291 -128.787)" fill="#ebebeb"/>
        <path id="Path_4333" data-name="Path 4333" d="M616.315,182.926a2.953,2.953,0,0,1-1.442-2.735q.024-.455.023-.913t-.023-.919a2.943,2.943,0,0,1,1.438-2.726l3.295-1.9L613.413,163l-3.294,1.9a2.946,2.946,0,0,1-3.09-.108,17.335,17.335,0,0,0-1.6-.926,2.943,2.943,0,0,1-1.627-2.617v-3.794h-12.4v3.794a2.943,2.943,0,0,1-1.627,2.617,17.216,17.216,0,0,0-1.6.926,2.946,2.946,0,0,1-3.09.108L581.8,163l-6.193,10.733,3.308,1.911a2.939,2.939,0,0,1,1.434,2.723q-.022.453-.022.912t.022.913a2.951,2.951,0,0,1-1.442,2.734l-3.3,1.9,6.193,10.733,3.284-1.9a2.946,2.946,0,0,1,3.089.1,17.137,17.137,0,0,0,1.605.928,2.945,2.945,0,0,1,1.63,2.618V201.1h12.4v-3.794a2.945,2.945,0,0,1,1.63-2.618,17.255,17.255,0,0,0,1.605-.928,2.944,2.944,0,0,1,3.088-.1l3.285,1.9,6.193-10.733Zm-18.7,6.508a10.15,10.15,0,1,1,10.145-10.156A10.159,10.159,0,0,1,597.612,189.434Z" transform="translate(-166.821 -126.81)" fill="#ebebeb"/>
        <path id="Path_4334" data-name="Path 4334" d="M138.866,152.083l6.193,10.733,3.284-1.9a2.942,2.942,0,0,1,3.089.1,17.13,17.13,0,0,0,1.605.927,2.945,2.945,0,0,1,1.63,2.619v3.793h12.4v-3.793a2.945,2.945,0,0,1,1.63-2.619,17.128,17.128,0,0,0,1.605-.927,2.942,2.942,0,0,1,3.088-.1l3.285,1.9,6.193-10.733-3.3-1.9a2.951,2.951,0,0,1-1.442-2.734q.022-.453.022-.913t-.022-.912a2.937,2.937,0,0,1,1.434-2.722l3.308-1.912L176.67,130.26l-3.294,1.9a2.946,2.946,0,0,1-3.09-.109,16.992,16.992,0,0,0-1.6-.925,2.945,2.945,0,0,1-1.627-2.618v-3.794h-12.4v3.794a2.945,2.945,0,0,1-1.627,2.618,16.992,16.992,0,0,0-1.6.925,2.948,2.948,0,0,1-3.09.109l-3.294-1.9-6.193,10.732,3.295,1.9a2.944,2.944,0,0,1,1.438,2.727c-.016.3-.023.61-.023.918s.007.61.023.913a2.952,2.952,0,0,1-1.442,2.735Zm11.848-5.546a10.15,10.15,0,1,1,10.145,10.156A10.143,10.143,0,0,1,150.714,146.538Z" transform="translate(-138.866 -124.714)" fill="#ebebeb"/>
      </g>
      <g id="Group_2709" data-name="Group 2709" transform="translate(183.273)">
        <circle id="Ellipse_333" data-name="Ellipse 333" cx="55.047" cy="55.047" r="55.047" transform="matrix(0.242, -0.97, 0.97, 0.242, 0, 118.069)" fill="#ebebeb"/>
        <circle id="Ellipse_334" data-name="Ellipse 334" cx="42.017" cy="42.017" r="42.017" transform="translate(15.744 108.492) rotate(-75.936)" fill="#fff"/>
        <circle id="Ellipse_335" data-name="Ellipse 335" cx="30.026" cy="30.026" r="30.026" transform="translate(30.258 99.721) rotate(-75.853)" fill="#ebebeb"/>
        <circle id="Ellipse_336" data-name="Ellipse 336" cx="16.599" cy="16.599" r="16.599" transform="translate(46.539 89.951) rotate(-75.759)" fill="#fff"/>
        <circle id="Ellipse_337" data-name="Ellipse 337" cx="7.503" cy="7.503" r="7.503" transform="matrix(0.247, -0.969, 0.969, 0.247, 57.587, 83.362)" fill="#ebebeb"/>
        <g id="Group_2708" data-name="Group 2708" transform="translate(66.712)">
          <g id="Group_2707" data-name="Group 2707" transform="translate(0 9.792)">
            <rect id="Rectangle_475" data-name="Rectangle 475" width="89.172" height="2.139" transform="translate(3.586 63.054) rotate(-45)" fill="#c7c7c7"/>
            <g id="Group_2706" data-name="Group 2706" transform="translate(0 59.911)">
              <path id="Path_4335" data-name="Path 4335" d="M354.158,147.448l-8.242,2.208,2.208-8.242Z" transform="translate(-345.916 -141.414)" fill="#a6a6a6"/>
            </g>
          </g>
          <path id="Path_4336" data-name="Path 4336" d="M427.748,73.389,415.925,85.212l-9.274,2.829,2.829-9.274L421.3,66.944l-2.829,9.274Z" transform="translate(-349.804 -66.944)" fill="#a6a6a6"/>
        </g>
      </g>
    </g>
    <g id="Desk" transform="translate(45.301 369.496)">
      <path id="Path_4337" data-name="Path 4337" d="M45.3,390.99l77.149-.228,77.149-.083,154.3-.157,154.3.156,77.149.082,77.149.229-77.149.229-77.149.082-154.3.156L199.6,391.3l-77.149-.083Z" transform="translate(-45.301 -390.523)" fill="#263238"/>
    </g>
    <g id="Devices" transform="translate(101.553 287.873)">
      <g id="Group_2714" data-name="Group 2714">
        <g id="Group_2710" data-name="Group 2710">
          <path id="Path_4338" data-name="Path 4338" d="M244.378,390.927H115.386L105.4,303.319H234.392Z" transform="translate(-105.4 -303.319)" fill="#37474f"/>
        </g>
        <g id="Group_2711" data-name="Group 2711" transform="translate(7.028 5.876)">
          <path id="Path_4339" data-name="Path 4339" d="M237.83,385.453H121.556L112.909,309.6H229.184Z" transform="translate(-112.909 -309.597)" fill="#fff"/>
        </g>
        <g id="Group_2712" data-name="Group 2712" transform="translate(79.494 81.732)">
          <rect id="Rectangle_476" data-name="Rectangle 476" width="132.392" height="5.881" fill="#37474f"/>
          <rect id="Rectangle_477" data-name="Rectangle 477" width="66.635" height="5.881" transform="translate(65.758)" fill="#263238"/>
        </g>
        <g id="Group_2713" data-name="Group 2713" transform="translate(7.741 5.879)">
          <path id="Path_4340" data-name="Path 4340" d="M197.189,309.6l-75.263,75.263-2.246-19.684L175.25,309.6Z" transform="translate(-114.055 -309.6)" fill="#ebebeb"/>
          <path id="Path_4341" data-name="Path 4341" d="M241.588,370.833,224.31,388.112H202.37l36.972-36.972Z" transform="translate(-119.348 -312.259)" fill="#ebebeb"/>
          <path id="Path_4342" data-name="Path 4342" d="M127.364,309.6l-12.926,12.926-.768-6.711,6.215-6.215Z" transform="translate(-113.67 -309.6)" fill="#ebebeb"/>
          <path id="Path_4343" data-name="Path 4343" d="M236.424,337.16,186.8,386.787H179.31l56.347-56.347Z" transform="translate(-117.872 -310.934)" fill="#ebebeb"/>
          <path id="Path_4344" data-name="Path 4344" d="M137.224,309.6l-21.687,21.687-.187-1.685,20-20Z" transform="translate(-113.778 -309.6)" fill="#ebebeb"/>
          <path id="Path_4345" data-name="Path 4345" d="M208.665,309.6l-75.853,75.853H130.94L206.793,309.6Z" transform="translate(-114.775 -309.6)" fill="#ebebeb"/>
          <path id="Path_4346" data-name="Path 4346" d="M234.7,325.655l-60.718,60.718H172.11l62.4-62.4Z" transform="translate(-117.411 -310.52)" fill="#ebebeb"/>
        </g>
      </g>
      <g id="Group_2719" data-name="Group 2719" transform="translate(292.037)">
        <g id="Group_2715" data-name="Group 2715" transform="translate(72.908)">
          <path id="Path_4347" data-name="Path 4347" d="M495.3,390.927H624.294l9.987-87.608H505.288Z" transform="translate(-495.302 -303.319)" fill="#37474f"/>
        </g>
        <g id="Group_2716" data-name="Group 2716" transform="translate(79.936 5.876)">
          <path id="Path_4348" data-name="Path 4348" d="M502.811,385.453H619.086l8.647-75.856H511.457Z" transform="translate(-502.811 -309.597)" fill="#fff"/>
        </g>
        <g id="Group_2717" data-name="Group 2717" transform="translate(0 81.732)">
          <rect id="Rectangle_478" data-name="Rectangle 478" width="132.392" height="5.881" fill="#37474f"/>
          <rect id="Rectangle_479" data-name="Rectangle 479" width="66.635" height="5.881" fill="#263238"/>
        </g>
        <g id="Group_2718" data-name="Group 2718" transform="translate(79.936 5.879)">
          <path id="Path_4349" data-name="Path 4349" d="M629.522,340.99,626.7,365.756,604.99,387.462H583.05Z" transform="translate(-507.946 -311.609)" fill="#ebebeb"/>
          <path id="Path_4350" data-name="Path 4350" d="M583.155,309.6l-75.843,75.853h-4.5l2.246-19.684L561.225,309.6Z" transform="translate(-502.81 -309.6)" fill="#ebebeb"/>
          <path id="Path_4351" data-name="Path 4351" d="M534.14,309.6l-25.15,25.15.964-8.452,16.7-16.7Z" transform="translate(-503.206 -309.6)" fill="#ebebeb"/>
          <path id="Path_4352" data-name="Path 4352" d="M618.551,309.6,542.7,385.453H535.21L611.063,309.6Z" transform="translate(-504.884 -309.6)" fill="#ebebeb"/>
          <path id="Path_4353" data-name="Path 4353" d="M630.026,330.89l-.234,2.115-53.81,53.81H574.11Z" transform="translate(-507.374 -310.963)" fill="#ebebeb"/>
          <path id="Path_4354" data-name="Path 4354" d="M627.325,309.6l-75.843,75.853H549.61L625.463,309.6Z" transform="translate(-505.806 -309.6)" fill="#ebebeb"/>
          <path id="Path_4355" data-name="Path 4355" d="M553.9,309.6,506.24,357.261l.243-2.115L552.029,309.6Z" transform="translate(-503.03 -309.6)" fill="#ebebeb"/>
        </g>
      </g>
    </g>
    <g id="Characters" transform="translate(142.43 144.857)">
      <g id="Group_2749" data-name="Group 2749" transform="translate(0 5.51)">
        <g id="Group_2748" data-name="Group 2748">
          <g id="Group_2722" data-name="Group 2722" transform="translate(86.962 77.781)">
            <g id="Group_2720" data-name="Group 2720" transform="translate(0.452 1.496)">
              <path id="Path_4356" data-name="Path 4356" d="M244.009,255.01c16,32.3,39.69,64.534,46.04,70.628,17.052,16.367,62.579,28.131,76,28.5,5.791.161,13.8-38.33,9.535-42.818s-60.487-16.708-63.5-19.016c-2.093-1.6-28.906-27.09-46.682-42.22C243.309,231.286,239.807,246.528,244.009,255.01Z" transform="translate(-242.464 -241.108)" fill="#fff" stroke="#263238" stroke-width="1"/>
            </g>
            <path id="Path_4357" data-name="Path 4357" d="M363.131,305.885,348.621,351.7s-47.574-12.566-60.3-24.764-39.1-56.062-44.246-70.509-1.793-25.868,21.485-7.117,43.1,37.93,47.234,41.018S363.131,305.885,363.131,305.885Z" transform="translate(-241.981 -239.51)" fill="#fff" stroke="#263238" stroke-width="1"/>
            <g id="Group_2721" data-name="Group 2721" transform="translate(94.736 62.158)">
              <path id="Path_4358" data-name="Path 4358" d="M355.674,312.2a2.34,2.34,0,1,0,1.962-2.665A2.339,2.339,0,0,0,355.674,312.2Z" transform="translate(-343.993 -306.148)" fill="#263238"/>
              <path id="Path_4359" data-name="Path 4359" d="M343.223,308.61a2.34,2.34,0,1,0,1.963-2.665A2.341,2.341,0,0,0,343.223,308.61Z" transform="translate(-343.196 -305.918)" fill="#263238"/>
            </g>
            <path id="Path_4360" data-name="Path 4360" d="M313.527,340.344c-10.418-4.043-20.348-8.751-25.206-13.4-12.729-12.205-39.1-56.066-44.244-70.518-3.295-9.238-3.117-17.232,3.529-16.9Z" transform="translate(-241.981 -239.51)" fill="#a6a6a6" opacity="0.3"/>
          </g>
          <g id="Group_2724" data-name="Group 2724" transform="translate(13.075 73.524)">
            <g id="Group_2723" data-name="Group 2723">
              <path id="Path_4361" data-name="Path 4361" d="M163.059,380.66l120.091.023c.481-4.389-24.23-126.755-35.991-142.094-2.518-3.28-10.817-4.191-17.874-3.313a31.461,31.461,0,0,0-5.433,1.11.83.83,0,0,1-.183.05,13.014,13.014,0,0,0-3.992,1.955C200.048,254.062,162.114,379.584,163.059,380.66Z" transform="translate(-163.041 -234.961)" fill="#fff" stroke="#263238" stroke-width="1"/>
            </g>
          </g>
          <g id="Group_2739" data-name="Group 2739" transform="translate(62.855)">
            <g id="Group_2726" data-name="Group 2726" transform="translate(9.623 50.617)">
              <g id="Group_2725" data-name="Group 2725">
                <path id="Path_4362" data-name="Path 4362" d="M244.841,253.416c-1.892-.075-14.434-9.887-18.292-17.529-.261-.525.709-5.922,1.577-12.536.512-4.016.987-8.5,1.125-12.622.023-.846,2.853.8,2.853.8L237.4,213l17.5,4.875s-2.831,8.556-3.027,15.744a9.243,9.243,0,0,0,.121,1.7c.007.078.025.173.028.282C252.435,238.831,247.934,253.538,244.841,253.416Z" transform="translate(-226.506 -210.488)" fill="#fff" stroke="#263238" stroke-width="1"/>
              </g>
              <path id="Path_4363" data-name="Path 4363" d="M252.265,235.454c.007.078.025.173.028.282a16.272,16.272,0,0,1-2.662.051c-17.4-.97-18.831-23.179-18.831-23.179l6.871.529,17.5,4.875s-2.831,8.556-3.027,15.744A9.245,9.245,0,0,0,252.265,235.454Z" transform="translate(-226.781 -210.624)" fill="#a6a6a6" opacity="0.3"/>
            </g>
            <g id="Group_2737" data-name="Group 2737">
              <path id="Path_4364" data-name="Path 4364" d="M239.681,229.868a0,0,0,1,1,0-.009" transform="translate(-217.726 -161.111)" fill="none" stroke="#f4a69d" stroke-linecap="round" stroke-linejoin="round"/>
              <g id="Group_2727" data-name="Group 2727" transform="translate(7.621 5.305)">
                <path id="Path_4365" data-name="Path 4365" d="M225.048,177.345c-2.624,9.224,2.725,35.626,9.36,41.408,9.62,8.384,25.118,8.907,32.177-2.6,6.843-11.152-.736-45.437-8.124-50.666C247.578,157.786,228.924,163.719,225.048,177.345Z" transform="translate(-224.367 -162.077)" fill="#fff" stroke="#263238" stroke-width="1"/>
              </g>
              <g id="Group_2733" data-name="Group 2733" transform="translate(27.939 25.706)">
                <g id="Group_2728" data-name="Group 2728" transform="translate(2.761 8.678)">
                  <path id="Path_4366" data-name="Path 4366" d="M252.959,194.805c-.027-.065-.123.112-.106.184.408,1.769.578,3.864-.916,4.773-.047.028-.023.117.035.1C253.882,199.194,253.63,196.416,252.959,194.805Z" transform="translate(-249.209 -193.25)" fill="#263238"/>
                  <path id="Path_4367" data-name="Path 4367" d="M250.818,193.155c-2.906.348-2,6.134.7,5.812C254.164,198.65,253.254,192.863,250.818,193.155Z" transform="translate(-249.024 -193.145)" fill="#263238"/>
                </g>
                <g id="Group_2729" data-name="Group 2729" transform="translate(16.928 6.717)">
                  <path id="Path_4368" data-name="Path 4368" d="M264.166,193.376c0-.071.154.062.163.136.225,1.8.785,3.826,2.5,4.167.053.01.063.1,0,.1C264.808,197.813,264.09,195.117,264.166,193.376Z" transform="translate(-264.16 -191.197)" fill="#263238"/>
                  <path id="Path_4369" data-name="Path 4369" d="M265.471,191.1c2.848-.672,3.984,5.074,1.345,5.7C264.219,197.414,263.084,191.667,265.471,191.1Z" transform="translate(-264.16 -191.05)" fill="#263238"/>
                </g>
                <path id="Path_4370" data-name="Path 4370" d="M247.93,190.4a22.791,22.791,0,0,0,2.116-1.142,3.887,3.887,0,0,0,1.938-1.576,1.239,1.239,0,0,0-.431-1.45,3.069,3.069,0,0,0-3.107.168,4.5,4.5,0,0,0-2.265,2.332A1.321,1.321,0,0,0,247.93,190.4Z" transform="translate(-246.075 -184.002)" fill="#263238"/>
                <path id="Path_4371" data-name="Path 4371" d="M267.111,187.379a22.786,22.786,0,0,1-2.393-.235,3.888,3.888,0,0,1-2.4-.706,1.239,1.239,0,0,1-.164-1.5,3.07,3.07,0,0,1,2.931-1.045,4.512,4.512,0,0,1,2.99,1.276A1.321,1.321,0,0,1,267.111,187.379Z" transform="translate(-247.093 -183.873)" fill="#263238"/>
                <path id="Path_4372" data-name="Path 4372" d="M254.044,212.857c.5.352,1.015.863,1.674.815a4.785,4.785,0,0,0,1.856-.754.064.064,0,0,1,.092.08,2.443,2.443,0,0,1-2.122,1.331,1.93,1.93,0,0,1-1.659-1.364C253.84,212.865,253.971,212.806,254.044,212.857Z" transform="translate(-246.574 -185.727)" fill="#263238"/>
                <g id="Group_2730" data-name="Group 2730" transform="translate(8.13 21.417)">
                  <path id="Path_4373" data-name="Path 4373" d="M260.928,208.064a7.331,7.331,0,0,1-2.546,2.7,3.305,3.305,0,0,1-1.959.434c-1.491-.152-1.733-1.459-1.647-2.625a7.866,7.866,0,0,1,.372-1.821A9.492,9.492,0,0,0,260.928,208.064Z" transform="translate(-254.761 -206.755)" fill="#fff"/>
                </g>
                <g id="Group_2732" data-name="Group 2732" transform="translate(8.455 0.786)">
                  <g id="Group_2731" data-name="Group 2731">
                    <path id="Path_4374" data-name="Path 4374" d="M255.162,205.394a6.175,6.175,0,0,0,4.5,2.075,7.77,7.77,0,0,0,2.211-.244,2.256,2.256,0,0,0,.412-.114c.128-.037.244-.07.383-.123a.45.45,0,0,0,.3-.458l0-.013a.949.949,0,0,0-.046-.181l0-.013-.028-.156c-.18-1.386-.644-3.464-.644-3.464.545.173,3.3.926,3.143.211-1.294-5.912-2.735-12.487-5.272-18.1a.168.168,0,0,0-.32.1c1.019,5.732,3.04,11.245,4.156,16.986a10.816,10.816,0,0,0-3.019-.421c-.186.087.969,4,1,4.628a.222.222,0,0,1,0,.067c-2.272.661-4.13.236-6.626-.968C255.156,205.125,255.033,205.268,255.162,205.394Z" transform="translate(-255.108 -184.713)" fill="#263238"/>
                  </g>
                </g>
              </g>
              <g id="Group_2734" data-name="Group 2734">
                <path id="Path_4375" data-name="Path 4375" d="M227.707,197.571c6.3-.943,5.856-12.568,5.856-12.568s10.568-3.355,10.953-11.734c0,0,11.234,5.06,18.886.95s4.622-13,3.442-14.825-5.13,2.46-5.13,2.46-1.267-5.1-2.727-5.421-2.5,3.024-2.5,3.024-10.919-1.973-20.326-.325-12.694,11.852-12.694,11.852-4.894,1.81-6.015,5.587S223.688,198.173,227.707,197.571Z" transform="translate(-216.296 -156.409)" fill="#263238"/>
                <path id="Path_4376" data-name="Path 4376" d="M231.949,186.431c8.536-.111,13.28-6.486,13.325-14.687a.079.079,0,0,1,.158-.01c.851,7.508-4.912,16.854-13.509,15.079A.194.194,0,0,1,231.949,186.431Z" transform="translate(-217.22 -157.386)" fill="#263238"/>
                <path id="Path_4377" data-name="Path 4377" d="M223.6,171.781a.089.089,0,0,1,.08.157c-2.185,1.429-4.75,2.636-6.086,5.012-1.615,2.87-.692,6.193.479,9.017,1.814,4.376,5.018,9.936,9.469,12.015.256.119.063.494-.194.389-5.293-2.161-9.245-9.406-10.7-14.658C215.02,177.835,218.25,173.879,223.6,171.781Z" transform="translate(-216.225 -157.393)" fill="#263238"/>
                <path id="Path_4378" data-name="Path 4378" d="M256.508,174.459c4.013,1.683,9.5.98,12.747-2.075,3.952-3.721,2.277-8.662-.248-12.614-.124-.194.144-.462.316-.28,3.151,3.342,4.189,8.964,1.053,12.691-3.241,3.851-9.721,4.686-14.147,2.836C255.86,174.863,256.139,174.3,256.508,174.459Z" transform="translate(-218.775 -156.603)" fill="#263238"/>
              </g>
              <g id="Group_2735" data-name="Group 2735" transform="translate(5.131 28.155)">
                <path id="Path_4379" data-name="Path 4379" d="M250.887,204.966a7.766,7.766,0,1,1,7.154-9.961h0a7.769,7.769,0,0,1-7.154,9.96Zm-.548-14.484a6.728,6.728,0,1,0,6.706,4.818A6.715,6.715,0,0,0,250.338,190.483Z" transform="translate(-223.059 -186.678)" fill="#dd6a57"/>
                <path id="Path_4380" data-name="Path 4380" d="M269.788,201.938c-2.969.112-5.778-2.827-6.4-6.83a9.266,9.266,0,0,1,.785-5.617,4.838,4.838,0,0,1,8.182-1.277,9.278,9.278,0,0,1,2.456,5.111c.659,4.23-1.366,8.072-4.513,8.563A4.45,4.45,0,0,1,269.788,201.938Zm-1.335-14.4a3.247,3.247,0,0,0-.392.037,4.143,4.143,0,0,0-2.969,2.394,8.253,8.253,0,0,0-.682,4.983c.573,3.664,3.132,6.323,5.724,5.915s4.219-3.713,3.649-7.377a8.243,8.243,0,0,0-2.169-4.54A4.274,4.274,0,0,0,268.454,187.533Z" transform="translate(-224.367 -186.49)" fill="#dd6a57"/>
                <path id="Path_4381" data-name="Path 4381" d="M258.9,196.2l-.782-.682c1.012-1.159,3.5-2.893,5.683-1.18l-.64.817C261.2,193.618,258.994,196.1,258.9,196.2Z" transform="translate(-224.038 -186.946)" fill="#dd6a57"/>
                <path id="Path_4382" data-name="Path 4382" d="M222.692,203.7l-.985-.329c.154-.46,1.563-4.508,3.8-5.237,2.087-.676,16.038-1.532,16.631-1.568l.062,1.036c-4,.242-14.759.992-16.37,1.519C224.351,199.6,223.064,202.587,222.692,203.7Z" transform="translate(-221.707 -187.135)" fill="#dd6a57"/>
              </g>
              <g id="Group_2736" data-name="Group 2736" transform="translate(3.95 35.898)">
                <path id="Path_4383" data-name="Path 4383" d="M231.917,201.2s-6.323-8.328-10.125-6.041,1.187,14.523,5.815,16.043a4.643,4.643,0,0,0,6.118-2.738Z" transform="translate(-220.446 -194.762)" fill="#fff" stroke="#263238" stroke-width="1"/>
                <path id="Path_4384" data-name="Path 4384" d="M223.5,198.9a.064.064,0,0,0-.02.124c3.25,1.17,5.05,4.07,6.349,7.1-1-1.147-2.318-1.744-3.859-.55-.081.064,0,.191.094.168a2.855,2.855,0,0,1,3.179.873,13.713,13.713,0,0,1,1.6,2.481c.161.28.672.107.549-.218-.008-.024-.019-.049-.029-.073C231.288,204.718,227.9,199.135,223.5,198.9Z" transform="translate(-220.637 -195.027)" fill="#263238"/>
              </g>
            </g>
            <g id="Group_2738" data-name="Group 2738" transform="translate(4.602 72.036)">
              <path id="Path_4385" data-name="Path 4385" d="M251.736,237.406l-6.253,15.341-18.946-19.375-5.394,6.193s18.508,30.757,18.628,29.37l6.326-13.158,9.072,9.183-.689-23.007Z" transform="translate(-221.142 -233.372)" fill="#fff" stroke="#263238" stroke-width="1"/>
              <path id="Path_4386" data-name="Path 4386" d="M255.523,254.089c-.242-3.795-.378-7.624-.795-11.4-.014-.134-.225-.195-.257-.037-.768,3.663.23,18.169.207,21.648l-.04-.04c-.378-.4-8.409-8.081-8.489-7.96-1.37,2.088-6.013,11.67-6.33,12.542-2.927-4.886-14.147-22.647-17.614-27.269a.132.132,0,0,0-.227.132c2.583,5.158,17.43,29.076,17.659,29.009a148.436,148.436,0,0,0,6.616-13.912c1.358,1.674,9.461,10.343,9.49,9.778A119.308,119.308,0,0,0,255.523,254.089Z" transform="translate(-221.194 -233.893)" fill="#263238"/>
            </g>
          </g>
          <g id="Group_2743" data-name="Group 2743" transform="translate(29.683 161.823)">
            <g id="Group_2742" data-name="Group 2742" transform="translate(13.729)">
              <g id="Group_2740" data-name="Group 2740">
                <path id="Path_4387" data-name="Path 4387" d="M289.353,403.7l-93.516,9.258-.3-72.5,93.516-9.258Z" transform="translate(-195.459 -329.421)" fill="#ffc727"/>
                <path id="Path_4388" data-name="Path 4388" d="M226.059,329.3l-30.605,3.03.081,8.012,32.753-3.242Z" transform="translate(-195.453 -329.299)" fill="#ffc727"/>
              </g>
              <g id="Group_2741" data-name="Group 2741" opacity="0.1">
                <path id="Path_4389" data-name="Path 4389" d="M289.353,403.7l-93.516,9.258-.3-72.5,93.516-9.258Z" transform="translate(-195.459 -329.421)"/>
                <path id="Path_4390" data-name="Path 4390" d="M226.059,329.3l-30.605,3.03.081,8.012,32.753-3.242Z" transform="translate(-195.453 -329.299)"/>
              </g>
            </g>
            <path id="Path_4391" data-name="Path 4391" d="M288.652,403.756l-90.192,8.929-12.9-72.7,96.136-8.073Z" transform="translate(-181.09 -329.466)" fill="#ebebeb"/>
            <path id="Path_4392" data-name="Path 4392" d="M288.432,403.858l-92.49,9.156-13.824-69.872,97.219-9.624Z" transform="translate(-180.87 -329.569)" fill="#fff"/>
            <path id="Path_4393" data-name="Path 4393" d="M288.177,404.011l-93.718,9.278-13.675-68.364,93.717-9.278Z" transform="translate(-180.785 -329.705)" fill="#ffc727"/>
          </g>
          <g id="Group_2747" data-name="Group 2747" transform="translate(0 79.695)">
            <path id="Path_4394" data-name="Path 4394" d="M206.4,249.935c-31.964,29-55.029,79-54.322,92.465.935,17.8,33.174,48.22,54.166,57.029,5.313,2.229,25.848-41.236,18.079-43.5-8.2-2.389-27.158-19.579-28.081-20.359-1.971-1.664,13.305-39.694,19.7-62.78C223.159,246.724,219.853,237.728,206.4,249.935Z" transform="translate(-149.263 -241.747)" fill="#f7a9a0"/>
            <g id="Group_2744" data-name="Group 2744" transform="translate(45.11 112.617)">
              <path id="Path_4395" data-name="Path 4395" d="M197.267,400.288c20.326,14.681,47.971,17.861,52.741,17.377,4.065-.4,6.157-.644,6.157-.644,7.306-.575,9.931-4.039,9.931-4.039s8.645,1.821,10.613-3.22c2.224-5.648-10.35-7.1-16.777-12.129-14.724-11.521-32.431-32.016-36.347-35.76Z" transform="translate(-197.267 -361.873)" fill="#fff" stroke="#263238" stroke-width="1"/>
              <path id="Path_4396" data-name="Path 4396" d="M238.642,398.761a120.129,120.129,0,0,0,13.463,9.356c5.294,2.952,10.884,4.906,16.525,7.036a.146.146,0,0,1-.082.28,63.733,63.733,0,0,1-30.207-16.3C238.151,398.944,238.421,398.6,238.642,398.761Z" transform="translate(-199.892 -364.231)" fill="#263238"/>
              <path id="Path_4397" data-name="Path 4397" d="M229.831,407.176c4.461,2.977,12.334,8.161,28.442,12.569.052.014.045.108-.015.1a57.173,57.173,0,0,1-28.712-12.211C229.283,407.425,229.534,406.978,229.831,407.176Z" transform="translate(-199.326 -364.77)" fill="#263238"/>
              <path id="Path_4398" data-name="Path 4398" d="M244.87,382.628c-1.323-2.26-.146-2.97,4.186-1.265,4.386,1.714,20.032,12.125,23.2,6.34,3.195-5.8-19.19-20.168-26.621-22.453-7.428-2.3-20.254-3.377-20.254-3.377C229.178,365.545,237.523,375.328,244.87,382.628Z" transform="translate(-199.067 -361.873)" fill="#fff" stroke="#263238" stroke-width="1"/>
            </g>
            <g id="Group_2746" data-name="Group 2746">
              <path id="Path_4399" data-name="Path 4399" d="M194.918,395.859l25.464-42.751s-23.831-16.71-23.945-18.384,16.748-47.731,21.843-70.4,2.569-33.484-19.74-8.21-50.927,67.792-49.409,86.014S194.918,395.859,194.918,395.859Z" transform="translate(-149.072 -241.555)" fill="#fff" stroke="#263238" stroke-width="1"/>
              <path id="Path_4400" data-name="Path 4400" d="M217.288,288.491c-.926,1.624-1.914,3.21-2.755,4.88q-.409.814-.818,1.631c.209-.654.422-1.307.631-1.962,1.308-4.108,2.573-8.237,3.675-12.406.027-.1-.133-.17-.175-.068-2.945,7.074-5.374,14.37-7.788,21.639q-3.648,10.982-6.894,22.094c-1.215,4.134-2.471,8.285-3.423,12.49-.022.094.109.12.142.035,1.4-3.6,2.593-7.3,3.81-10.963s2.445-7.328,3.638-11q2.851-8.785,5.652-17.584a19.7,19.7,0,0,0,2.043-3.526c.864-1.7,1.563-3.475,2.332-5.22A.041.041,0,0,0,217.288,288.491Z" transform="translate(-152.315 -244.049)" fill="#263238"/>
              <g id="Group_2745" data-name="Group 2745" transform="translate(32.306 133.721)">
                <path id="Path_4401" data-name="Path 4401" d="M193.214,394.835a2.34,2.34,0,1,0,2.95-1.5A2.34,2.34,0,0,0,193.214,394.835Z" transform="translate(-184.196 -384.983)" fill="#263238"/>
                <path id="Path_4402" data-name="Path 4402" d="M183.7,386.036a2.34,2.34,0,1,0,2.95-1.5A2.339,2.339,0,0,0,183.7,386.036Z" transform="translate(-183.588 -384.42)" fill="#263238"/>
              </g>
              <path id="Path_4403" data-name="Path 4403" d="M166.608,377.137c2.953,2.516,5.721,5.206,8.466,7.917,1.362,1.367,2.722,2.734,4.058,4.126s2.658,2.8,3.979,4.218a81.929,81.929,0,0,1-8.7-7.68A106.82,106.82,0,0,1,166.608,377.137Z" transform="translate(-150.195 -250.233)" fill="#263238"/>
            </g>
          </g>
        </g>
      </g>
      <g id="Group_2781" data-name="Group 2781" transform="translate(177.005)">
        <g id="Group_2780" data-name="Group 2780">
          <g id="Group_2750" data-name="Group 2750" transform="translate(164.261)">
            <path id="Path_4404" data-name="Path 4404" d="M514.948,169.805c2-6.435,10.764-20.609,24.907-16.332,20.183,6.1,19.41,46.039,28.479,59.364,16.434,24.147,14.943,46.368-.6,48.471-17.421,2.357-32.276-17.5-27.9-57.017,2.733-24.708-3.209-36.338-8.214-36.067s-8.289,6.255-8.289,6.255Z" transform="translate(-513.758 -150.66)" fill="#263238"/>
            <path id="Path_4405" data-name="Path 4405" d="M515.933,167.265a40.011,40.011,0,0,1,4.947-8.323,23.674,23.674,0,0,1,7.4-6.434,16.147,16.147,0,0,1,9.771-1.855,20.889,20.889,0,0,1,9.307,3.554,23.479,23.479,0,0,1,6.594,7.426,43.207,43.207,0,0,1,3.8,9.035,86.773,86.773,0,0,1,3,19.112A127.949,127.949,0,0,0,556.4,171.1a46.031,46.031,0,0,0-3.925-8.58,22.1,22.1,0,0,0-6.166-6.828,19.449,19.449,0,0,0-8.489-3.336,15.076,15.076,0,0,0-8.9,1.414,24.16,24.16,0,0,0-7.366,5.746,39.1,39.1,0,0,0-3.009,3.711Q517.176,165.193,515.933,167.265Z" transform="translate(-513.821 -150.522)" fill="#263238"/>
            <path id="Path_4406" data-name="Path 4406" d="M542.448,193.239c-.159,3.947-.756,7.859-1.2,11.772-.5,3.907-.989,7.811-1.361,11.716-.351,3.907-.625,7.816-.6,11.717a59.363,59.363,0,0,0,1.023,11.578,30.434,30.434,0,0,0,4.042,10.675,33.111,33.111,0,0,0,7.914,8.282,24.654,24.654,0,0,0,10.516,4.5,22.336,22.336,0,0,0,5.8.237,20.027,20.027,0,0,0,2.888-.47,10.361,10.361,0,0,0,2.763-.981,14.545,14.545,0,0,1-5.591,1.928,22.97,22.97,0,0,1-5.983.168,24.493,24.493,0,0,1-5.858-1.411,26.528,26.528,0,0,1-5.351-2.811,31.221,31.221,0,0,1-4.651-3.854l-1.046-1.089-1-1.132a22.616,22.616,0,0,1-1.849-2.431,31.7,31.7,0,0,1-4.382-11.26c-1.5-7.927-1.041-15.97-.051-23.8.5-3.926,1.176-7.819,1.891-11.7C541.113,201,541.881,197.141,542.448,193.239Z" transform="translate(-515.205 -153.256)" fill="#263238"/>
            <path id="Path_4407" data-name="Path 4407" d="M513.678,170.663c-.052-1.85,1.281-4.232,2.479-4.563s10.076,3.484,10.838,5.761-3.186,4.288-3.186,4.288Z" transform="translate(-513.676 -151.518)" fill="#ffc727"/>
          </g>
          <g id="Group_2757" data-name="Group 2757" transform="translate(0 72.482)">
            <path id="Path_4408" data-name="Path 4408" d="M511.374,257.275c-5.273,11.476-44.513,65.422-63.994,66.894-20.386,1.542-69.288-31.775-73.975-34.548-12.851-7.606,22.981-42.686,29.179-36.455,10.357,10.411,35.108,30.034,41.161,28.708,12.721-2.787,39.224-25.045,58.023-36.627C513.11,238.258,517.209,244.579,511.374,257.275Z" transform="translate(-340.26 -228.883)" fill="#fff" stroke="#263238" stroke-width="1"/>
            <g id="Group_2754" data-name="Group 2754">
              <g id="Group_2752" data-name="Group 2752">
                <path id="Path_4409" data-name="Path 4409" d="M392.67,302.352c-20.479-13.336-38.312-23.245-45-32.8-3.544-5.06-11.716-20.069-8.908-22.609,2.564-2.319,5.815,1.243,5.815,1.243s-3.546-6.745.055-9.927,8.776,3.112,8.776,3.112-3.137-7.192.683-10.11,7.962,4.283,7.962,4.283-3.174-6.442.984-7.522c5-1.3,7.962,18.471,14.361,16.061.64-.241,38.169,18.124,39.334,21.493Z" transform="translate(-338.182 -227.961)" fill="#fff" stroke="#263238" stroke-width="1"/>
                <g id="Group_2751" data-name="Group 2751" transform="translate(6.414 7.297)">
                  <path id="Path_4410" data-name="Path 4410" d="M363.946,236.038c3.339,9.212,6.393,12.665,14.013,18.579.149.116.01.363-.156.256-7.989-5.112-12.444-8.891-14.31-18.7C363.4,235.7,363.787,235.6,363.946,236.038Z" transform="translate(-346.215 -235.757)" fill="#263238"/>
                  <path id="Path_4411" data-name="Path 4411" d="M354.714,242.227c4.3,9.265,7.582,13.04,15.107,19.822.107.1-.044.286-.16.2-7.938-6.035-12.3-9.907-15.381-19.73C354.14,242.074,354.517,241.8,354.714,242.227Z" transform="translate(-345.625 -236.158)" fill="#263238"/>
                  <path id="Path_4412" data-name="Path 4412" d="M345.385,249.884c4.814,8.67,8.231,12.963,16.382,18.609a.183.183,0,0,1-.19.312c-8.87-4.949-13.175-10.275-16.44-18.746C344.914,249.48,345.083,249.339,345.385,249.884Z" transform="translate(-345.035 -236.639)" fill="#263238"/>
                </g>
              </g>
              <g id="Group_2753" data-name="Group 2753" transform="translate(37.143 5.006)">
                <path id="Path_4413" data-name="Path 4413" d="M411.557,262.213s-5.06-11.186-8.367-15.611-21.7-16.374-24.505-12.549c-3.624,4.94,5.635,13.93,10.744,17.741,0,0-8.393,11.419-3.145,19.309S411.557,262.213,411.557,262.213Z" transform="translate(-377.865 -233.31)" fill="#fff" stroke="#263238" stroke-width="1"/>
              </g>
            </g>
            <g id="Group_2756" data-name="Group 2756" transform="translate(50.052 12.618)">
              <path id="Path_4415" data-name="Path 4415" d="M512.184,260.478c-6.109,12.178-41.731,64.126-60.973,64.952s-59.553-15.6-59.553-15.6l29.866-45.478s20.672,14.918,23.916,15.037,46.659-28.563,56.8-34.865S522.118,240.672,512.184,260.478Z" transform="translate(-391.657 -241.442)" fill="#fff" stroke="#263238" stroke-width="1"/>
              <g id="Group_2755" data-name="Group 2755" transform="translate(15.304 23.786)">
                <path id="Path_4416" data-name="Path 4416" d="M420.78,314.307a16.453,16.453,0,0,1,.106-4.154,16.27,16.27,0,0,1,1.032-4.024,16.275,16.275,0,0,1-.106,4.153A16.494,16.494,0,0,1,420.78,314.307Z" transform="translate(-408.82 -269.368)" fill="#fff"/>
                <path id="Path_4417" data-name="Path 4417" d="M484.295,304.577a16.49,16.49,0,0,1,.107-4.153,16.222,16.222,0,0,1,1.032-4.025,16.274,16.274,0,0,1-.106,4.153A16.454,16.454,0,0,1,484.295,304.577Z" transform="translate(-412.885 -268.745)" fill="#fff"/>
                <path id="Path_4418" data-name="Path 4418" d="M487.262,268.084a16.453,16.453,0,0,1-4.154-.106,16.268,16.268,0,0,1-4.024-1.033,18.47,18.47,0,0,1,8.178,1.139Z" transform="translate(-412.557 -266.854)" fill="#fff"/>
                <path id="Path_4419" data-name="Path 4419" d="M436.074,284.853a18.436,18.436,0,0,1-8.178-1.139,18.465,18.465,0,0,1,8.178,1.139Z" transform="translate(-409.281 -267.928)" fill="#fff"/>
                <path id="Path_4420" data-name="Path 4420" d="M444.071,330.08a1.98,1.98,0,0,1-.178.215c-.075-.009-.159-.019-.243-.037C443.79,330.2,443.931,330.136,444.071,330.08Z" transform="translate(-410.289 -270.901)" fill="#fff"/>
                <path id="Path_4421" data-name="Path 4421" d="M408.008,297.083a16.449,16.449,0,0,1,3.012-2.862,16.234,16.234,0,0,1,3.575-2.115,16.263,16.263,0,0,1-3.012,2.862A16.484,16.484,0,0,1,408.008,297.083Z" transform="translate(-408.008 -268.471)" fill="#fff"/>
                <path id="Path_4422" data-name="Path 4422" d="M461.234,286.039a16.414,16.414,0,0,1,3.012-2.861,16.221,16.221,0,0,1,3.576-2.115,18.463,18.463,0,0,1-6.588,4.977Z" transform="translate(-411.415 -267.764)" fill="#fff"/>
                <path id="Path_4423" data-name="Path 4423" d="M443.57,301.617a18.479,18.479,0,0,1,4.978,6.588,16.236,16.236,0,0,1-2.862-3.012A16.41,16.41,0,0,1,443.57,301.617Z" transform="translate(-410.284 -269.079)" fill="#fff"/>
                <path id="Path_4424" data-name="Path 4424" d="M494.106,278.827a16.474,16.474,0,0,1,2.861,3.012,16.26,16.26,0,0,1,2.116,3.576,16.267,16.267,0,0,1-2.862-3.012A16.434,16.434,0,0,1,494.106,278.827Z" transform="translate(-413.519 -267.621)" fill="#fff"/>
              </g>
              <path id="Path_4425" data-name="Path 4425" d="M428.792,273.791c-3.762,6.8-7.384,13.668-11.443,20.3a219.325,219.325,0,0,1-12.8,19.193.13.13,0,0,1-.217-.138c3.6-6.786,7.7-13.333,11.7-19.89,4.029-6.608,8.325-13.044,12.342-19.658C428.523,273.344,428.94,273.526,428.792,273.791Z" transform="translate(-392.467 -243.492)" fill="#263238"/>
              <path id="Path_4426" data-name="Path 4426" d="M515.107,260.482c-6.112,12.178-41.736,64.126-60.98,64.948-4.671.2-10.586-.618-16.857-1.975,14.957-16,56.787-61.111,76.152-81.993C519.3,241.107,522.155,246.424,515.107,260.482Z" transform="translate(-394.577 -241.442)" fill="#a6a6a6" opacity="0.3"/>
            </g>
          </g>
          <g id="Group_2758" data-name="Group 2758" transform="translate(126.303 87.213)">
            <path id="Path_4427" data-name="Path 4427" d="M481.9,381.22H594.849S550.93,270.032,527.542,247.663c-6.359-6.082-22.061-5.632-29.758,4.626-6.309,8.408-23.818,41.883-24.618,53.922-.764,12.068,8.649,23.927,8.649,23.927Z" transform="translate(-473.122 -243.699)" fill="#fff" stroke="#263238" stroke-width="1"/>
          </g>
          <g id="Group_2771" data-name="Group 2771" transform="translate(133.844 17.951)">
            <g id="Group_2759" data-name="Group 2759" transform="translate(19.148 44.421)">
              <path id="Path_4428" data-name="Path 4428" d="M521.861,247.042c-.626,1.668-10.284,11.765-18.1,10.376-2.544-.457-.67-14.453-.67-14.453L503,241.9l-1.359-14.906,18.432-8.708,2.647-1.126s.1,4.1.18,9.212c0,.238.009.475.011.728.012.288.026.562.025.831.022.764.039,1.542.042,2.319,0,.592.011,1.166-.008,1.787,0,.623-.018,1.228-.021,1.852A96.378,96.378,0,0,1,521.861,247.042Z" transform="translate(-501.637 -217.16)" fill="#fff" stroke="#263238" stroke-width="1"/>
              <path id="Path_4429" data-name="Path 4429" d="M522.9,226.372A30.022,30.022,0,0,1,503,241.9l-1.359-14.906,18.432-8.708,2.647-1.126S522.819,221.262,522.9,226.372Z" transform="translate(-501.637 -217.16)" fill="#a6a6a6" opacity="0.3"/>
            </g>
            <g id="Group_2770" data-name="Group 2770">
              <path id="Path_4430" data-name="Path 4430" d="M481.371,202.11c-2.084,26.185,13.366,30.391,19.013,30.833,5.126.4,22.632,1.12,27.411-24.71s-6.738-35.077-18.414-36.618S483.454,175.923,481.371,202.11Z" transform="translate(-481.179 -169.809)" fill="#fff" stroke="#263238" stroke-width="1"/>
              <g id="Group_2766" data-name="Group 2766" transform="translate(2.128 23.895)">
                <path id="Path_4431" data-name="Path 4431" d="M486.024,198.07a17.1,17.1,0,0,0,1.779-.358,2.923,2.923,0,0,0,1.744-.71.934.934,0,0,0,.01-1.141,2.317,2.317,0,0,0-2.28-.563,3.409,3.409,0,0,0-2.148,1.183A1,1,0,0,0,486.024,198.07Z" transform="translate(-483.546 -195.23)" fill="#263238"/>
                <path id="Path_4432" data-name="Path 4432" d="M504.471,198.466a17.277,17.277,0,0,1-1.772-.391,2.936,2.936,0,0,1-1.731-.743.936.936,0,0,1,.012-1.141,2.32,2.32,0,0,1,2.289-.52,3.409,3.409,0,0,1,2.126,1.224A1,1,0,0,1,504.471,198.466Z" transform="translate(-484.561 -195.253)" fill="#263238"/>
                <g id="Group_2761" data-name="Group 2761" transform="translate(15.639 7.999)">
                  <g id="Group_2760" data-name="Group 2760">
                    <path id="Path_4433" data-name="Path 4433" d="M500.329,205.715c.016-.067.138.089.133.163-.116,1.785.052,3.85,1.651,4.5.049.021.041.11-.019.1C500.129,210.131,499.934,207.388,500.329,205.715Z" transform="translate(-500.161 -203.899)" fill="#263238"/>
                    <path id="Path_4434" data-name="Path 4434" d="M501.99,203.778c2.883-.124,2.918,5.65.248,5.764C499.61,209.655,499.574,203.881,501.99,203.778Z" transform="translate(-500.165 -203.776)" fill="#263238"/>
                  </g>
                  <path id="Path_4435" data-name="Path 4435" d="M503.3,204.082c.505.323,1,.9,1.612.953.7.066,1.232-.542,1.688-1.126.047-.061.1-.011.1.066.023,1.106-.395,2.244-1.58,2.416-1.081.157-1.865-.817-2.147-1.928C502.921,204.257,503.1,203.952,503.3,204.082Z" transform="translate(-500.34 -203.783)" fill="#263238"/>
                </g>
                <g id="Group_2763" data-name="Group 2763" transform="translate(0 7.537)">
                  <g id="Group_2762" data-name="Group 2762" transform="translate(1.994 0.034)">
                    <path id="Path_4436" data-name="Path 4436" d="M489.6,205.293c-.015-.067-.139.087-.136.16.081,1.788-.125,3.849-1.735,4.466-.05.019-.043.109.016.1C489.721,209.713,489.969,206.974,489.6,205.293Z" transform="translate(-485.718 -203.444)" fill="#263238"/>
                    <path id="Path_4437" data-name="Path 4437" d="M487.846,203.323c-2.88-.179-3.025,5.593-.358,5.759C490.114,209.244,490.259,203.472,487.846,203.323Z" transform="translate(-485.583 -203.319)" fill="#263238"/>
                  </g>
                  <path id="Path_4438" data-name="Path 4438" d="M486.5,203.67c-.463.295-.929.839-1.474.861-.633.026-1.084-.61-1.472-1.219-.04-.063-.087-.016-.091.06-.058,1.1.278,2.261,1.333,2.5.961.218,1.7-.711,1.985-1.8C486.831,203.865,486.683,203.551,486.5,203.67Z" transform="translate(-483.452 -203.283)" fill="#263238"/>
                </g>
                <path id="Path_4439" data-name="Path 4439" d="M500.242,220.834c-.406.441-.8,1.038-1.449,1.126a4.72,4.72,0,0,1-1.943-.35.062.062,0,0,0-.072.1,2.409,2.409,0,0,0,2.317.854,1.907,1.907,0,0,0,1.324-1.653C500.441,220.8,500.3,220.77,500.242,220.834Z" transform="translate(-484.304 -196.867)" fill="#263238"/>
                <g id="Group_2764" data-name="Group 2764" transform="translate(5.495 0.042)">
                  <path id="Path_4440" data-name="Path 4440" d="M492.324,212.694s-.384,2.669-.391,3.929c0,.118.3.175.732.2.021.007.032.015.05,0a5.991,5.991,0,0,0,5.83-2.205c.087-.123-.072-.254-.187-.176a9.019,9.019,0,0,1-5.478,1.537c-.087-.349.811-4.549.61-4.566a10.981,10.981,0,0,0-2.865.633c.638-5.583,2.167-11.019,2.72-16.589a.172.172,0,0,0-.329-.083c-2.006,5.584-2.881,11.993-3.689,17.743C489.219,213.837,491.818,212.905,492.324,212.694Z" transform="translate(-489.324 -195.275)" fill="#263238"/>
                </g>
                <g id="Group_2765" data-name="Group 2765" transform="translate(9.105 19.208)">
                  <path id="Path_4441" data-name="Path 4441" d="M493.18,217.876a7.333,7.333,0,0,0,2.906,2.31,3.3,3.3,0,0,0,2,.149c1.454-.363,1.506-1.692,1.254-2.833a7.894,7.894,0,0,0-.628-1.749A9.5,9.5,0,0,1,493.18,217.876Z" transform="translate(-493.18 -215.752)" fill="#263238"/>
                  <path id="Path_4442" data-name="Path 4442" d="M496.285,220.305a3.3,3.3,0,0,0,2,.149c1.454-.363,1.506-1.692,1.254-2.833C497.986,217.761,496.436,218.8,496.285,220.305Z" transform="translate(-493.379 -215.872)" fill="#eb9481"/>
                </g>
              </g>
              <g id="Group_2767" data-name="Group 2767" transform="translate(1.252)">
                <path id="Path_4443" data-name="Path 4443" d="M526.714,210.734a10.77,10.77,0,0,1-5.988-8.8,28.114,28.114,0,0,1-11.413-9.272c.174.539,1.42,4.434,2.118,6.4-16.565-3.173-21.638-15.884-21.638-15.884-5.4,5.342-6.49,8.769-7.275,10.478,0,0-.075-10.172,5.185-16.959,6.438-8.31,28.061-10.463,38.015.459C536.433,188.938,526.714,210.734,526.714,210.734Z" transform="translate(-482.517 -169.701)" fill="#263238"/>
                <path id="Path_4444" data-name="Path 4444" d="M499.3,197a30.558,30.558,0,0,0,8.49,3.162c.024.006.03-.031.008-.037a25.992,25.992,0,0,1-12.137-7.413,24.64,24.64,0,0,1-3.555-5.017,17.047,17.047,0,0,1-2.174-6.331.129.129,0,0,0-.256.021,19.946,19.946,0,0,0,1.286,6.54,18.231,18.231,0,0,0,3.658,5.505A20.941,20.941,0,0,0,499.3,197" transform="translate(-482.975 -170.44)" fill="#263238"/>
              </g>
              <g id="Group_2769" data-name="Group 2769" transform="translate(40.887 33.564)">
                <g id="Group_2768" data-name="Group 2768">
                  <path id="Path_4445" data-name="Path 4445" d="M526.269,212.1s5.674-8.24,9.41-6.222-.49,13.934-4.847,15.591a4.443,4.443,0,0,1-5.97-2.346Z" transform="translate(-524.862 -205.56)" fill="#fff" stroke="#263238" stroke-width="1"/>
                  <path id="Path_4446" data-name="Path 4446" d="M534.546,209.517c.07-.007.084.092.024.116-3.054,1.263-4.645,4.115-5.754,7.067.9-1.14,2.139-1.77,3.665-.7.08.056,0,.182-.082.164a2.732,2.732,0,0,0-3,.975,13.181,13.181,0,0,0-1.423,2.443c-.141.275-.637.131-.535-.184.007-.023.018-.048.025-.071C527.361,215.426,530.357,209.94,534.546,209.517Z" transform="translate(-525.026 -205.813)" fill="#263238"/>
                </g>
                <path id="Path_4447" data-name="Path 4447" d="M527.342,221.79a1.915,1.915,0,1,0,1.915-1.915A1.915,1.915,0,0,0,527.342,221.79Z" transform="translate(-525.021 -206.476)" fill="#fff"/>
              </g>
            </g>
          </g>
          <g id="Group_2777" data-name="Group 2777" transform="translate(5.111 100.573)">
            <g id="Group_2775" data-name="Group 2775" transform="translate(0 1.294)">
              <path id="Path_4448" data-name="Path 4448" d="M535.152,272.9c-.018,18.8-10.8,75.152-21.172,82.742-20.754,15.19-69.417,14.145-82.839,14.377-5.793.1-13.4-38.473-9.086-42.916s63.6-6.078,66.639-8.354c2.11-1.582,18.843-29.014,28.533-46.652C530.323,248.26,535.161,263.435,535.152,272.9Z" transform="translate(-348.581 -259.355)" fill="#fff" stroke="#263238" stroke-width="1"/>
              <g id="Group_2774" data-name="Group 2774" transform="translate(0 62.87)">
                <g id="Group_2772" data-name="Group 2772">
                  <path id="Path_4449" data-name="Path 4449" d="M427.444,329.351s-17.517-1.937-29.032-2.666c-6.425-.406-17.5-.121-22.356,1.739-7.263,2.783-35.865,19.059-32.068,26.078,3.437,6.355,12.175-.674,12.175-.674s-10.272,6.786-4.925,12.041c5.394,5.3,15.885-4.963,15.885-4.963s-11.4,6.447-5.163,11.512c5.418,4.4,18.783-6.11,18.783-6.11s-12.715,5.454-7.6,10.5c5.647,5.578,27.665-7.659,27.665-7.659,14.33,4.775,23.579,5.7,34.541,5.012C437.356,374.036,427.444,329.351,427.444,329.351Z" transform="translate(-343.643 -326.524)" fill="#fff" stroke="#263238" stroke-width="1"/>
                </g>
                <g id="Group_2773" data-name="Group 2773" transform="translate(10.368 14.292)">
                  <path id="Path_4450" data-name="Path 4450" d="M365.173,364.809c.858-.771,1.736-1.52,2.6-2.289a56.528,56.528,0,0,1,5.2-4.269c1.793-1.258,3.636-2.429,5.52-3.549,1.988-1.183,4.109-2.169,6.064-3.4a.129.129,0,1,1,.131.222,59.867,59.867,0,0,0-5.622,3.915c-1.811,1.317-3.606,2.659-5.4,4-1.754,1.313-3.582,2.5-5.371,3.757-.891.629-1.756,1.3-2.619,1.964a18.243,18.243,0,0,1-2.5,1.853c-.09.048-.168-.075-.115-.148A14.183,14.183,0,0,1,365.173,364.809Z" transform="translate(-355.253 -342.4)" fill="#263238"/>
                  <path id="Path_4451" data-name="Path 4451" d="M354.761,356.26c1.19-1.544,7.728-6.877,9.48-8.141a62.809,62.809,0,0,1,10.812-6.314.13.13,0,0,1,.13.221c-3.379,2.465-6.8,4.885-10.215,7.305-1.67,1.183-9.088,6.786-9.937,7.275C354.826,356.724,354.633,356.427,354.761,356.26Z" transform="translate(-354.72 -341.793)" fill="#263238"/>
                  <path id="Path_4452" data-name="Path 4452" d="M375.026,373.089a88.625,88.625,0,0,1,9.053-7.493,80.617,80.617,0,0,1,10.771-5.341c.138-.044.256.146.13.222-3.44,2.046-6.9,4.025-10.244,6.235-1.628,1.076-7.867,5.741-9.511,6.634C375.077,373.427,374.92,373.213,375.026,373.089Z" transform="translate(-356.017 -342.974)" fill="#263238"/>
                </g>
              </g>
            </g>
            <g id="Group_2776" data-name="Group 2776" transform="translate(78.86)">
              <path id="Path_4453" data-name="Path 4453" d="M444.691,372.768l-16.006-50.862s58.247-3.723,60.135-4.7,22.651-37.653,30.861-51.913,20.929-8.389,16.185,23.8c-4.773,32.381-10.01,57.541-17.265,65.025C509.8,363.194,477.6,372.55,444.691,372.768Z" transform="translate(-427.947 -257.972)" fill="#fff" stroke="#263238" stroke-width="1"/>
              <path id="Path_4454" data-name="Path 4454" d="M510,288.78c-1.9,2.844-3.652,5.777-5.409,8.708l-.147.245c.087-.222.176-.444.264-.666.571-1.455,1.075-2.944,1.694-4.379.037-.085-.089-.156-.127-.07-.631,1.413-1.334,2.788-1.934,4.217-.4.96-.771,1.936-1.111,2.921-1.3,2.171-2.606,4.344-3.885,6.529-1.725,2.946-3.437,5.9-5.173,8.84-.425.719-.842,1.442-1.275,2.157a2.842,2.842,0,0,1-1.511,1.4A12.081,12.081,0,0,1,489,319c-.853.089-1.7.193-2.553.3-3.877.471-7.726,1.11-11.6,1.616-.092.012-.093.154,0,.146,3.561-.266,7.128-.4,10.689-.691,1.752-.143,3.515-.265,5.259-.489a3.5,3.5,0,0,0,1.831-.656,5.271,5.271,0,0,0,1.17-1.542q5.29-9.157,10.575-18.317c1.991-3.462,4.014-6.909,5.849-10.459A.128.128,0,0,0,510,288.78Z" transform="translate(-430.897 -259.94)" fill="#263238"/>
              <path id="Path_4455" data-name="Path 4455" d="M539.388,302.926a19.763,19.763,0,0,1-.832,3.439c-.276,1-.548,2-.853,3-.347,1.126-.733,2.238-1.123,3.348q1.179-7.431,1.875-14.937c.013-.151-.247-.181-.267-.03-.936,6.987-2.226,13.951-3.69,20.845s-3.253,13.769-5.263,20.538c-.988,3.33-2.035,6.655-3.2,9.927a27.14,27.14,0,0,1-4.08,7.985,20.556,20.556,0,0,1-7.761,5.493,89.129,89.129,0,0,1-9.529,3.736c-7.37,2.412-14.991,3.945-22.52,5.76-.079.019-.059.155.023.142a169.716,169.716,0,0,0,20.532-4.155,85.139,85.139,0,0,0,10.068-3.364c3.005-1.255,6.1-2.616,8.529-4.845a21.4,21.4,0,0,0,5.016-7.745c1.264-3.063,2.256-6.247,3.238-9.41,2.147-6.907,3.95-13.875,5.416-20.957q.637-3.08,1.168-6.171a39.581,39.581,0,0,0,2.04-6.045c.285-1.075.559-2.156.769-3.248s.286-2.233.591-3.29C539.56,302.844,539.4,302.815,539.388,302.926Z" transform="translate(-431.365 -260.512)" fill="#263238"/>
              <path id="Path_4456" data-name="Path 4456" d="M455.673,373.2c-2.642-7.307-5.429-14.557-7.746-21.976a219.6,219.6,0,0,1-6.021-22.27.131.131,0,0,1,.247-.073c2.741,7.174,4.968,14.573,7.273,21.9,2.322,7.382,4.339,14.852,6.674,22.231C456.187,373.292,455.776,373.486,455.673,373.2Z" transform="translate(-428.793 -262.506)" fill="#263238"/>
              <path id="Path_4457" data-name="Path 4457" d="M444.958,325a41.6,41.6,0,0,0-4.184.013c-1.394.035-2.787.091-4.18.151-2.786.119-5.57.327-8.349.564a.354.354,0,0,0-.328.452,11.962,11.962,0,0,0,1.426,2.909c.04.052.14.039.135-.04a9.8,9.8,0,0,0-.728-2.652c2.659-.175,5.32-.338,7.978-.541,1.391-.107,2.785-.2,4.175-.305,1.355-.106,2.742-.149,4.085-.365C445.1,325.172,445.056,325.011,444.958,325Z" transform="translate(-427.896 -262.26)" fill="#263238"/>
            </g>
          </g>
          <g id="Group_2779" data-name="Group 2779" transform="translate(23.004 152.417)">
            <path id="Path_4458" data-name="Path 4458" d="M378.957,313.362c3.472,1.722,19.337,2.377,23.967,8.065,3.078,3.781,2.774,7.609,4.569,18.911,1.557,9.8-6.575,7.47-8.907,2.453-3.667-7.891-6.823-16.543-6.823-16.543a62.228,62.228,0,0,0-8.121.124Z" transform="translate(-363.796 -313.362)" fill="#fff" stroke="#263238" stroke-width="1"/>
            <g id="Group_2778" data-name="Group 2778" transform="translate(0 36.723)">
              <path id="Path_4459" data-name="Path 4459" d="M391.061,352.965c5.491-3.483,23.067,18.695,14.285,24.572S384.84,356.909,391.061,352.965Z" transform="translate(-364.459 -352.596)" fill="#fff" stroke="#263238" stroke-width="1"/>
              <path id="Path_4460" data-name="Path 4460" d="M381.547,358.012c5.491-3.482,23.067,18.695,14.285,24.572S375.327,361.957,381.547,358.012Z" transform="translate(-363.85 -352.919)" fill="#fff" stroke="#263238" stroke-width="1"/>
              <path id="Path_4461" data-name="Path 4461" d="M374.771,358.956c5.476-2.4,18.359,20.2,9.56,24.321S368.568,361.674,374.771,358.956Z" transform="translate(-363.376 -352.992)" fill="#fff" stroke="#263238" stroke-width="1"/>
              <path id="Path_4462" data-name="Path 4462" d="M367.7,358.3c5.76-.685,11.351,23.93,2.022,25.274S361.178,359.077,367.7,358.3Z" transform="translate(-362.759 -352.96)" fill="#fff" stroke="#263238" stroke-width="1"/>
            </g>
          </g>
        </g>
      </g>
    </g>
    <g id="Speech_Bubble" data-name="Speech Bubble" transform="translate(368.691 147.754)">
      <g id="Group_2783" data-name="Group 2783">
        <path id="Path_4463" data-name="Path 4463" d="M459.507,191.964a21.075,21.075,0,0,0,3.6-11.641c0-14.747-16.2-26.706-36.16-26.706s-36.145,11.958-36.145,26.706,16.18,26.7,36.145,26.7c9.681,0,18.457-2.8,24.94-7.389l12.456,3.166Z" transform="translate(-390.806 -153.617)" fill="#0082e5"/>
        <g id="Group_2782" data-name="Group 2782" transform="translate(15.645 22.955)">
          <path id="Path_4464" data-name="Path 4464" d="M415.019,181.891a3.749,3.749,0,1,1-3.749-3.749A3.749,3.749,0,0,1,415.019,181.891Z" transform="translate(-407.521 -178.142)" fill="#fff"/>
          <circle id="Ellipse_338" data-name="Ellipse 338" cx="3.749" cy="3.749" r="3.749" transform="translate(16.755)" fill="#fff"/>
          <path id="Path_4465" data-name="Path 4465" d="M450.82,181.891a3.749,3.749,0,1,1-3.749-3.749A3.749,3.749,0,0,1,450.82,181.891Z" transform="translate(-409.813 -178.142)" fill="#fff"/>
        </g>
      </g>
    </g>
    <g id="Light_Bulb" data-name="Light Bulb" transform="translate(239.714 62.013)">
      <g id="Group_2788" data-name="Group 2788" transform="translate(0)">
        <g id="Group_2786" data-name="Group 2786" transform="translate(13.845 14.327)">
          <path id="Path_4466" data-name="Path 4466" d="M321.121,106.978c-2.084,17.461-13.312,20.645-15.2,25.3a81.171,81.171,0,0,0-2.356,8.927l-18.248-.043A78.462,78.462,0,0,0,283,132.222c-1.857-4.663-13.08-7.9-15.07-25.37-1.316-11.479,7.354-29.578,26.665-29.532S322.479,95.5,321.121,106.978Z" transform="translate(-267.801 -77.32)" fill="#ffc727"/>
          <g id="Group_2784" data-name="Group 2784" transform="translate(16.348 34.101)">
            <rect id="Rectangle_480" data-name="Rectangle 480" width="0.936" height="29.528" transform="matrix(0.983, -0.181, 0.181, 0.983, 0, 1.985)" fill="#fff"/>
            <rect id="Rectangle_481" data-name="Rectangle 481" width="29.528" height="0.936" transform="translate(14.32 30.875) rotate(-79.307)" fill="#fff"/>
            <path id="Path_4467" data-name="Path 4467" d="M295.659,125.33h-.007c-1.43,0-2.872-1.143-4.058-3.21-.054-.094-.108-.189-.159-.285a2.2,2.2,0,0,1-1.565.855h0c-2.737-.007-3.818-5.644-3.863-5.884l.461-.086c.01.054,1.052,5.5,3.4,5.5h0a1.907,1.907,0,0,0,1.335-.837c-1.156-2.374-1.794-5.482-.975-6.894a1.4,1.4,0,0,1,1.263-.739h0a1.653,1.653,0,0,1,1.5.86c.82,1.428.212,4.385-.87,6.251a6.6,6.6,0,0,1-.374.577c.079.152.16.3.244.447.637,1.109,1.958,2.971,3.653,2.975h.006c1.13,0,2.268-.889,3.206-2.5.078-.133.153-.27.225-.408a5.324,5.324,0,0,1-.642-.9c-1.127-1.963-1.353-4.873-.494-6.354a1.671,1.671,0,0,1,1.476-.926h0a1.293,1.293,0,0,1,1.151.712c.806,1.4.354,4.746-.926,7.377a2.639,2.639,0,0,0,1.828.764h0c1.669,0,3.152-3.983,3.583-5.519l.45.126c-.066.24-1.669,5.859-4.033,5.86h0a3.057,3.057,0,0,1-2.049-.8c-.054.1-.11.2-.168.3C298.544,123.842,297.33,125.33,295.659,125.33Zm3.77-11.091a1.212,1.212,0,0,0-1.071.693c-.773,1.331-.541,4.081.5,5.886a4.963,4.963,0,0,0,.462.675c1.144-2.453,1.573-5.537.862-6.777a.829.829,0,0,0-.746-.476Zm-7.936-.019a.928.928,0,0,0-.857.505c-.65,1.119-.229,3.855.884,6.235.07-.1.139-.216.207-.332,1-1.717,1.6-4.513.869-5.783a1.178,1.178,0,0,0-1.1-.625Z" transform="translate(-285.314 -113.753)" fill="#fff"/>
          </g>
          <g id="Group_2785" data-name="Group 2785" transform="translate(15.353 63.053)">
            <rect id="Rectangle_482" data-name="Rectangle 482" width="22.515" height="4.4" transform="translate(0.034 0) rotate(0.135)" fill="#455a64"/>
            <rect id="Rectangle_483" data-name="Rectangle 483" width="22.515" height="4.4" transform="translate(0.022 5.112) rotate(0.135)" fill="#455a64"/>
            <rect id="Rectangle_484" data-name="Rectangle 484" width="22.515" height="4.4" transform="translate(0.01 10.224) rotate(0.135)" fill="#455a64"/>
          </g>
        </g>
        <g id="Group_2787" data-name="Group 2787">
          <path id="Path_4468" data-name="Path 4468" d="M297.28,62.013a12.84,12.84,0,0,1,.412,3.644,12.709,12.709,0,0,1-.524,3.631,12.713,12.713,0,0,1-.411-3.645A12.87,12.87,0,0,1,297.28,62.013Z" transform="translate(-255.809 -62.013)" fill="#263238"/>
          <path id="Path_4469" data-name="Path 4469" d="M275.513,67.342a14.369,14.369,0,0,1,3.54,6.355,12.7,12.7,0,0,1-2.178-2.95A12.862,12.862,0,0,1,275.513,67.342Z" transform="translate(-254.449 -62.354)" fill="#263238"/>
          <path id="Path_4470" data-name="Path 4470" d="M259.3,82.858a12.812,12.812,0,0,1,3.362,1.466,12.682,12.682,0,0,1,2.882,2.269,12.737,12.737,0,0,1-3.362-1.466A12.9,12.9,0,0,1,259.3,82.858Z" transform="translate(-253.411 -63.347)" fill="#263238"/>
          <path id="Path_4471" data-name="Path 4471" d="M253.009,104.376a12.87,12.87,0,0,1,3.644-.411,12.7,12.7,0,0,1,3.63.523,12.7,12.7,0,0,1-3.644.412A12.838,12.838,0,0,1,253.009,104.376Z" transform="translate(-253.009 -64.698)" fill="#263238"/>
          <path id="Path_4472" data-name="Path 4472" d="M258.337,125.966a12.867,12.867,0,0,1,2.95-2.179,12.67,12.67,0,0,1,3.406-1.361,14.39,14.39,0,0,1-6.356,3.54Z" transform="translate(-253.35 -65.88)" fill="#263238"/>
          <path id="Path_4473" data-name="Path 4473" d="M332.994,127.612a14.368,14.368,0,0,1-6.243-3.735,12.731,12.731,0,0,1,3.361,1.466A12.883,12.883,0,0,1,332.994,127.612Z" transform="translate(-257.729 -65.973)" fill="#263238"/>
          <path id="Path_4474" data-name="Path 4474" d="M339.211,106.285a12.873,12.873,0,0,1-3.645.411,12.7,12.7,0,0,1-3.63-.523,12.707,12.707,0,0,1,3.645-.412A12.838,12.838,0,0,1,339.211,106.285Z" transform="translate(-258.061 -64.813)" fill="#263238"/>
          <path id="Path_4475" data-name="Path 4475" d="M333.944,84.517a14.369,14.369,0,0,1-6.355,3.54,12.723,12.723,0,0,1,2.95-2.178A12.86,12.86,0,0,1,333.944,84.517Z" transform="translate(-257.783 -63.453)" fill="#263238"/>
          <path id="Path_4476" data-name="Path 4476" d="M318.608,68.3a12.881,12.881,0,0,1-1.466,3.361,12.713,12.713,0,0,1-2.269,2.882,14.367,14.367,0,0,1,3.735-6.243Z" transform="translate(-256.969 -62.415)" fill="#263238"/>
        </g>
      </g>
    </g>
  </g>
</svg>
