<svg xmlns="http://www.w3.org/2000/svg" width="460.933" height="405.195" viewBox="0 0 460.933 405.195">
  <g id="Group_4525" data-name="Group 4525" transform="translate(8135 12481.505)">
    <path id="Path_5962" data-name="Path 5962" d="M38.9,276.08s3.781,77.513,69.246,127.265S263.2,454.078,335.752,456.788,463.3,416.674,470.658,354.244s-48.322-79-79.541-148.863-28.931-93.209-93.229-134.807S134.577,58.728,83.666,134.887,38.9,276.08,38.9,276.08Z" transform="translate(-8173.665 -12533.219)" fill="rgba(230,129,66,0.2)" opacity="0.7"/>
    <g id="Plants" transform="translate(-7799.05 -12267.334)">
      <g id="Group_4505" data-name="Group 4505" transform="translate(0 0)">
        <path id="Path_5890" data-name="Path 5890" d="M420.8,377.246s-3.536-15.026-.884-28.284,8.839-4.419,15.91-13.258,3.536-25.633,11.49-32.7,19.445-6.187,22.1-19.445,4.419-23.865,9.722-22.1-4.419,17.678-4.419,27.4,5.3,15.909,1.768,25.633-18.561,6.187-18.561,17.677,6.187,22.98.883,30.936-19.445,9.722-21.213,14.141-6.188,12.375-10.607,12.375S420.8,377.246,420.8,377.246Z" transform="translate(-355.824 -261.265)" fill="#bfbfbf"/>
        <path id="Path_5891" data-name="Path 5891" d="M420.309,375.1c.884-2.652-.883-25.633-8.839-30.053s-16.794-2.651-21.213-10.606-4.419-11.49-8.839-12.375-25.632-4.419-22.98,0S377,319.416,377,328.254s-1.768,22.981,3.536,26.517,19.445,2.651,18.561,10.606-3.536,10.607.883,13.258,16.794,14.142,18.561,5.3Z" transform="translate(-358.209 -258.963)" fill="#bfbfbf"/>
        <path id="Path_5892" data-name="Path 5892" d="M427.455,395.073s-4.118-12.867,7.205-36.543,19.558-41.691,24.706-50.955" transform="translate(-355.518 -259.446)" fill="none" stroke="#263238" stroke-miterlimit="10" stroke-width="1.257"/>
        <path id="Path_5893" data-name="Path 5893" d="M419.932,396.314s-1.543-6.176-6.691-23.161-11.323-21.617-20.073-27.279-9.265-14.926-10.81-17.5" transform="translate(-357.261 -258.629)" fill="none" stroke="#263238" stroke-miterlimit="10" stroke-width="1.257"/>
        <path id="Path_5894" data-name="Path 5894" d="M439.312,386.237s1.03-9.265,9.265-11.838,15.955-1.544,17.5-7.206,1.544-11.323,5.148-14.411,8.234-4.633,8.75-3.089-5.148,2.574-5.148,7.721,7.721,18.014-3.6,23.161-20.588.514-24.706,4.118-6.691,6.176-6.691,6.176Z" transform="translate(-355.024 -257.816)" fill="#bfbfbf"/>
        <path id="Path_5895" data-name="Path 5895" d="M438.322,395.089s3.6-13.382,12.353-16.47,18.529,3.6,22.646-2.573,1.03-12.353.515-16.47" transform="translate(-355.063 -257.404)" fill="none" stroke="#263238" stroke-miterlimit="10" stroke-width="1.257"/>
        <path id="Path_5896" data-name="Path 5896" d="M445.2,391.766H413.285a2.573,2.573,0,0,0-2.573,2.573h0a2.573,2.573,0,0,0,2.573,2.573h.258l2.485,6.517a2.669,2.669,0,0,0,2.494,1.718H439.96a2.669,2.669,0,0,0,2.494-1.718l2.485-6.517h.257a2.573,2.573,0,0,0,2.574-2.573h0A2.573,2.573,0,0,0,445.2,391.766Z" transform="translate(-356.147 -256.14)" fill="#263238"/>
      </g>
    </g>
    <g id="Server" transform="translate(-8106.582 -12335.663)">
      <g id="Group_4512" data-name="Group 4512" transform="translate(0 0)">
        <g id="Group_4507" data-name="Group 4507" transform="translate(0 117.491)">
          <path id="Path_5897" data-name="Path 5897" d="M153.006,338.553a24.747,24.747,0,0,1,18.377,4.571c8.488,6.529,14.948,23.127,18.282,46.359s5.223,33.3,24.813,36.565,66.6,1.959,94.677,1.305,26.771-26.771,3.264-29.382-39.77,3.661-64.285-1.761,21.845-12.6,57.1-7.38,50.93,6.529,69.865,4.57" transform="translate(-36.61 -303.793)" fill="none" stroke="#263238" stroke-linecap="round" stroke-linejoin="round" stroke-width="2.513"/>
          <path id="Path_5898" data-name="Path 5898" d="M153.006,305.1s19.03.154,24.254,19.742,7.182,47.013,7.835,68.56,1.306,39.829,26.118,45.054,92.065,3.264,110.348-.654,38.524-21.547,23.506-25.464-35.912,0-28.077,5.223,28.73,3.917,53.541.653" transform="translate(-36.61 -305.096)" fill="none" stroke="#263238" stroke-linecap="round" stroke-linejoin="round" stroke-width="2.513"/>
          <g id="Group_4506" data-name="Group 4506" transform="translate(0 68.148)">
            <path id="Path_5899" data-name="Path 5899" d="M161.307,370.687s11.625-1.011,16.175,12.13-1.011,16.175,1.516,22.746,18.473.437,18.4,5.879c-.067,4.968-6.367,6.367-42.662,4.23-47.455-2.793-78.851,4.55-76.324,9.1s40.437,1.01,31.338,8.087-31.338-1.01-48.524-1.516-20.218,3.539-20.218,3.539" transform="translate(-41.009 -370.669)" fill="none" stroke="#263238" stroke-linecap="round" stroke-linejoin="round" stroke-width="2.513"/>
          </g>
        </g>
        <g id="Group_4511" data-name="Group 4511" transform="translate(3.744)">
          <rect id="Rectangle_565" data-name="Rectangle 565" width="121.663" height="223.859" rx="3.56" fill="#263238" stroke="#263238" stroke-linecap="round" stroke-linejoin="round" stroke-width="1.257"/>
          <rect id="Rectangle_566" data-name="Rectangle 566" width="115.789" height="85.753" transform="translate(2.907 33.537)" fill="#616161"/>
          <rect id="Rectangle_567" data-name="Rectangle 567" width="115.789" height="85.754" transform="translate(2.907 133.22)" fill="#616161"/>
          <path id="Path_5958" data-name="Path 5958" d="M0,0H65.73V67.036H0Z" transform="translate(38.602 143.667)" fill="#e68142" stroke="#263238" stroke-linecap="round" stroke-width="1.257"/>
          <path id="Path_5956" data-name="Path 5956" d="M0,0H65.73V16.541H0Z" transform="translate(38.602 43.113)" fill="#e68142" stroke="#263238" stroke-linecap="round" stroke-width="1.257"/>
          <path id="Path_5957" data-name="Path 5957" d="M0,0H65.73V16.541H0Z" transform="translate(38.602 74.89)" fill="#e68142" stroke="#263238" stroke-linecap="round" stroke-width="1.257"/>
          <path id="Path_5900" data-name="Path 5900" d="M145.647,226.161l-1.27,3.476H86.145l-1.27-3.476H72.539v15.295H84.875l1.27-3.476h58.232l1.27,3.476h13.968V226.161Z" transform="translate(-43.514 -190.705)" fill="#263238" stroke="#263238" stroke-linecap="round" stroke-linejoin="round" stroke-width="1.257"/>
          <path id="Path_5901" data-name="Path 5901" d="M145.647,242.216l-1.27,3.476H86.145l-1.27-3.476H72.539V257.51H84.875l1.27-3.476h58.232l1.27,3.476h13.968V242.216Z" transform="translate(-43.514 -190.075)" fill="#263238" stroke="#263238" stroke-linecap="round" stroke-linejoin="round" stroke-width="1.257"/>
          <path id="Path_5902" data-name="Path 5902" d="M145.647,258.27l-1.27,3.476H86.145l-1.27-3.476H72.539v15.295H84.875l1.27-3.476h58.232l1.27,3.476h13.968V258.27Z" transform="translate(-43.514 -189.444)" fill="#263238" stroke="#263238" stroke-linecap="round" stroke-linejoin="round" stroke-width="1.257"/>
          <path id="Path_5903" data-name="Path 5903" d="M145.647,274.325l-1.27,3.476H86.145l-1.27-3.476H72.539V289.62H84.875l1.27-3.476h58.232l1.27,3.476h13.968V274.325Z" transform="translate(-43.514 -188.813)" fill="#263238" stroke="#263238" stroke-linecap="round" stroke-linejoin="round" stroke-width="1.257"/>
          <path id="Path_5904" data-name="Path 5904" d="M145.647,290.379l-1.27,3.476H86.145l-1.27-3.476H72.539v15.295H84.875l1.27-3.476h58.232l1.27,3.476h13.968V290.379Z" transform="translate(-43.514 -188.183)" fill="#263238" stroke="#263238" stroke-linecap="round" stroke-linejoin="round" stroke-width="1.257"/>
          <path id="Path_5905" data-name="Path 5905" d="M145.647,322.489l-1.27,3.476H86.145l-1.27-3.476H72.539v15.295H84.875l1.27-3.476h58.232l1.27,3.476h13.968V322.489Z" transform="translate(-43.514 -186.922)" fill="#263238" stroke="#263238" stroke-linecap="round" stroke-linejoin="round" stroke-width="1.257"/>
          <path id="Path_5906" data-name="Path 5906" d="M145.647,338.543l-1.27,3.476H86.145l-1.27-3.476H72.539v15.295H84.875l1.27-3.476h58.232l1.27,3.476h13.968V338.543Z" transform="translate(-43.514 -186.291)" fill="#263238" stroke="#263238" stroke-linecap="round" stroke-linejoin="round" stroke-width="1.257"/>
          <path id="Path_5907" data-name="Path 5907" d="M145.647,354.6l-1.27,3.476H86.145l-1.27-3.476H72.539v15.295H84.875l1.27-3.476h58.232l1.27,3.476h13.968V354.6Z" transform="translate(-43.514 -185.661)" fill="#263238" stroke="#263238" stroke-linecap="round" stroke-linejoin="round" stroke-width="1.257"/>
          <path id="Path_5908" data-name="Path 5908" d="M145.647,370.653l-1.27,3.476H86.145l-1.27-3.476H72.539v15.295H84.875l1.27-3.476h58.232l1.27,3.476h13.968V370.653Z" transform="translate(-43.514 -185.03)" fill="#263238" stroke="#263238" stroke-linecap="round" stroke-linejoin="round" stroke-width="1.257"/>
          <path id="Path_5909" data-name="Path 5909" d="M145.647,386.707l-1.27,3.476H86.145l-1.27-3.476H72.539V402H84.875l1.27-3.476h58.232l1.27,3.476h13.968V386.707Z" transform="translate(-43.514 -184.4)" fill="#263238" stroke="#263238" stroke-linecap="round" stroke-linejoin="round" stroke-width="1.257"/>
          <rect id="Rectangle_571" data-name="Rectangle 571" width="110.834" height="10.448" transform="translate(5.239 121.954)" fill="#fff"/>
          <g id="Group_4508" data-name="Group 4508" transform="translate(8.746 124.144)">
            <path id="Path_5910" data-name="Path 5910" d="M58.869,314.419a2.921,2.921,0,1,0-2.921,2.921A2.921,2.921,0,0,0,58.869,314.419Z" transform="translate(-53.027 -311.498)" fill="#263238" stroke="#263238" stroke-linecap="round" stroke-linejoin="round" stroke-width="1.257"/>
            <circle id="Ellipse_581" data-name="Ellipse 581" cx="2.921" cy="2.921" r="2.921" transform="translate(9.731 0.001)" fill="#e68142" stroke="#263238" stroke-linecap="round" stroke-linejoin="round" stroke-width="1.257"/>
            <path id="Path_5911" data-name="Path 5911" d="M77.595,314.419a2.921,2.921,0,1,0-2.92,2.921A2.921,2.921,0,0,0,77.595,314.419Z" transform="translate(-52.292 -311.498)" fill="#263238" stroke="#263238" stroke-linecap="round" stroke-linejoin="round" stroke-width="1.257"/>
          </g>
          <rect id="Rectangle_572" data-name="Rectangle 572" width="110.834" height="10.448" transform="translate(5.239 21.836)" fill="#fff"/>
          <g id="Group_4509" data-name="Group 4509" transform="translate(8.746 24.027)">
            <path id="Path_5912" data-name="Path 5912" d="M58.869,218.084a2.921,2.921,0,1,0-2.921,2.921A2.92,2.92,0,0,0,58.869,218.084Z" transform="translate(-53.027 -215.164)" fill="#fff" stroke="#263238" stroke-linecap="round" stroke-linejoin="round" stroke-width="1.257"/>
            <path id="Path_5913" data-name="Path 5913" d="M68.232,218.084a2.921,2.921,0,1,0-2.92,2.921A2.92,2.92,0,0,0,68.232,218.084Z" transform="translate(-52.659 -215.164)" fill="#e68142" stroke="#263238" stroke-linecap="round" stroke-linejoin="round" stroke-width="1.257"/>
            <path id="Path_5914" data-name="Path 5914" d="M77.595,218.084a2.921,2.921,0,1,0-2.92,2.921A2.92,2.92,0,0,0,77.595,218.084Z" transform="translate(-52.292 -215.164)" fill="#fff" stroke="#263238" stroke-linecap="round" stroke-linejoin="round" stroke-width="1.257"/>
          </g>
          <rect id="Rectangle_573" data-name="Rectangle 573" width="110.834" height="10.448" transform="translate(5.239 8.401)" fill="#fff"/>
          <g id="Group_4510" data-name="Group 4510" transform="translate(8.746 10.592)">
            <path id="Path_5915" data-name="Path 5915" d="M58.869,205.157a2.921,2.921,0,1,0-2.921,2.921A2.92,2.92,0,0,0,58.869,205.157Z" transform="translate(-53.027 -202.237)" fill="#e68142" stroke="#263238" stroke-linecap="round" stroke-linejoin="round" stroke-width="1.257"/>
            <path id="Path_5916" data-name="Path 5916" d="M68.232,205.157a2.921,2.921,0,1,0-2.92,2.921A2.92,2.92,0,0,0,68.232,205.157Z" transform="translate(-52.659 -202.237)" fill="#263238" stroke="#263238" stroke-linecap="round" stroke-linejoin="round" stroke-width="1.257"/>
            <path id="Path_5917" data-name="Path 5917" d="M77.595,205.157a2.921,2.921,0,1,0-2.92,2.921A2.92,2.92,0,0,0,77.595,205.157Z" transform="translate(-52.292 -202.237)" fill="#263238" stroke="#263238" stroke-linecap="round" stroke-linejoin="round" stroke-width="1.257"/>
          </g>
          <rect id="Rectangle_574" data-name="Rectangle 574" width="18.283" height="7.835" transform="translate(5.519 35.713)" fill="#263238" stroke="#263238" stroke-linecap="round" stroke-linejoin="round" stroke-width="1.257"/>
          <rect id="Rectangle_575" data-name="Rectangle 575" width="18.283" height="7.835" transform="translate(5.519 52.69)" fill="#263238" stroke="#263238" stroke-linecap="round" stroke-linejoin="round" stroke-width="1.257"/>
          <path id="Path_5959" data-name="Path 5959" d="M0,0H18.283V7.835H0Z" transform="translate(5.519 69.666)" fill="#e68142" stroke="#263238" stroke-linecap="round" stroke-width="1.257"/>
          <path id="Path_5960" data-name="Path 5960" d="M0,0H18.283V7.835H0Z" transform="translate(5.519 86.643)" fill="#e68142" stroke="#263238" stroke-linecap="round" stroke-width="1.257"/>
          <rect id="Rectangle_578" data-name="Rectangle 578" width="18.283" height="7.835" transform="translate(5.519 103.62)" fill="#e68142" stroke="#263238" stroke-linecap="round" stroke-linejoin="round" stroke-width="1.257"/>
          <path id="Path_5961" data-name="Path 5961" d="M0,0H18.283V7.835H0Z" transform="translate(5.519 135.396)" fill="#e68142" stroke="#263238" stroke-linecap="round" stroke-width="1.257"/>
          <rect id="Rectangle_580" data-name="Rectangle 580" width="18.283" height="7.835" transform="translate(5.519 152.373)" fill="#263238" stroke="#263238" stroke-linecap="round" stroke-linejoin="round" stroke-width="1.257"/>
          <rect id="Rectangle_581" data-name="Rectangle 581" width="18.283" height="7.835" transform="translate(5.519 169.35)" fill="#e68142" stroke="#263238" stroke-linecap="round" stroke-linejoin="round" stroke-width="1.257"/>
          <rect id="Rectangle_582" data-name="Rectangle 582" width="18.283" height="7.835" transform="translate(5.519 186.326)" fill="#263238" stroke="#263238" stroke-linecap="round" stroke-linejoin="round" stroke-width="1.257"/>
          <rect id="Rectangle_583" data-name="Rectangle 583" width="18.283" height="7.835" transform="translate(5.519 203.303)" fill="#e68142" stroke="#263238" stroke-linecap="round" stroke-linejoin="round" stroke-width="1.257"/>
        </g>
      </g>
    </g>
    <g id="Character" transform="translate(-7979.213 -12457.738)">
      <g id="Group_4524" data-name="Group 4524" transform="translate(0 0)">
        <path id="Path_5918" data-name="Path 5918" d="M216.712,146.358s-17.517,4.464-22.381,11.119-24.576,51.966-24.576,51.966-6.4,7.168.512,14.08S191,233,196.123,226.851s12.544-35.071,13.568-38.4,8.7-31.487,9.472-33.023S220.662,147.27,216.712,146.358Z" transform="translate(-163.428 -71.763)" fill="#bdbdbd" stroke="#263238" stroke-linecap="round" stroke-linejoin="round" stroke-width="1.257"/>
        <path id="Path_5919" data-name="Path 5919" d="M216.342,146.358s-17.517,4.464-22.381,11.119c-2.943,4.027-11.323,22.209-17.482,35.94,2.99-.606,15.461-2.453,30.062,4.906,1.411-4.91,2.442-8.778,2.779-9.872,1.024-3.328,8.7-31.487,9.472-33.023S220.292,147.27,216.342,146.358Z" transform="translate(-163.058 -71.763)" fill="#263238" stroke="#263238" stroke-linecap="round" stroke-linejoin="round" stroke-width="1.257"/>
        <path id="Path_5920" data-name="Path 5920" d="M264.545,89.577A16.794,16.794,0,0,1,271.456,97c2.048,4.864,2.048,12.287,2.048,12.287s32.766-1.024,45.31-1.279,20.991,2.815,21.247,8.96-2.56,18.175-9.471,22.783-28.416-2.815-39.423-5.887-14.848-2.048-22.784-3.072-10.239-4.1-11.519-8.96,1.28-14.08,1.28-21.5S257.12,88.041,264.545,89.577Z" transform="translate(-159.915 -74.004)" fill="#bdbdbd" stroke="#263238" stroke-linecap="round" stroke-linejoin="round" stroke-width="1.257"/>
        <path id="Path_5921" data-name="Path 5921" d="M314.683,119.912s-4.608,11.775-13.055,18.175c-6.063,4.594-14.236,7.208-18.366,8.319-14.762-4.134-35.613-6.11-47.8-3.4,0,0-17.028,4.073-19.99,4.443s-9.995,24.062-11.476,40.351,3.332,56.638,3.332,59.6,1.851,52.2,4.812,65.893,6.294,32.207,6.664,34.8,2.962,21.841,2.962,28.134S218.8,397.7,218.8,397.7s-13.327,8.885-18.51,14.068,3.813,10.635,10.366,11.846c11.167,2.064,24.432-8.885,24.432-8.885l14.806-5.922c3.943-1.578,5.106-5.811,5.2-9.6q.348-13.7.693-27.409,3.492,14.567,5.728,29.4c.611,4.05,1.226,8.3,3.675,11.587a15.636,15.636,0,0,0,5.138,4.562c1.474.688,3.041.543,4.522,1.4,2.733,1.577,3.861,4.992,6.514,6.7,5.214,3.354,12.748,5.086,18.875,4.841,0,0,14.808.74,15.548-7.4S296.54,401.4,296.54,401.4s-2.962-54.047-5.183-71.817-8.144-46.644-8.144-59.23,5.923-71.816,5.923-71.816.6-1.562,1.53-4.1c.324-.171.65-.348.978-.537,8.448-4.864,32-23.808,39.679-35.839,7.352-11.518,10.011-33.127,10.225-39.44" transform="translate(-162.183 -72.852)" fill="#bdbdbd" stroke="#263238" stroke-linecap="round" stroke-linejoin="round" stroke-width="1.257"/>
        <g id="Group_4513" data-name="Group 4513" transform="translate(36.564 317.038)">
          <path id="Path_5922" data-name="Path 5922" d="M313.455,412.581c.741-8.145-19.249-21.471-19.249-21.471s-.229-4.162-.6-10.546A149.54,149.54,0,0,1,258.18,384.7c.349,2.065.691,4.131,1,6.2.611,4.05,1.226,8.3,3.675,11.587A15.636,15.636,0,0,0,268,407.049c1.474.688,3.041.543,4.522,1.4,2.733,1.577,3.861,4.992,6.514,6.7,5.214,3.354,12.748,5.086,18.875,4.841C297.907,419.985,312.715,420.725,313.455,412.581Z" transform="translate(-196.413 -379.603)" fill="#263238" stroke="#263238" stroke-linecap="round" stroke-linejoin="round" stroke-width="1.257"/>
          <path id="Path_5923" data-name="Path 5923" d="M249.894,398.551c3.943-1.578,5.106-5.811,5.2-9.6q.053-2.148.108-4.3a163.28,163.28,0,0,1-35.017-5.01c-.708,4.32-1.387,7.8-1.387,7.8s-13.327,8.885-18.51,14.068,3.813,10.635,10.366,11.846c11.167,2.064,24.432-8.885,24.432-8.885Z" transform="translate(-198.747 -379.639)" fill="#263238" stroke="#263238" stroke-linecap="round" stroke-linejoin="round" stroke-width="1.257"/>
        </g>
        <path id="Path_5924" data-name="Path 5924" d="M313.4,412.12c.011-.119,0-.243.005-.364a25.423,25.423,0,0,1-11.032,4.467c-11.7,2.081-22.36-3.9-25.22-6.5s-4.68-4.68-9.1-7.54-8.432-9.891-8.432-9.891l-.163.255c.551,3.381,1.319,6.76,3.344,9.478a15.636,15.636,0,0,0,5.138,4.562c1.474.688,3.041.543,4.522,1.4,2.733,1.577,3.861,4.992,6.514,6.7,5.214,3.354,12.748,5.086,18.875,4.841C297.857,419.524,312.664,420.264,313.4,412.12Z" transform="translate(-159.799 -62.104)" fill="#fff" stroke="#263238" stroke-linecap="round" stroke-linejoin="round" stroke-width="1.257"/>
        <path id="Path_5925" data-name="Path 5925" d="M249.893,398.143c3.437-1.375,4.76-4.767,5.107-8.128-3.4,2.029-11.287,6.622-16.278,8.619-6.5,2.6-10.92,10.4-23.66,10.4-9.084,0-14.054-3.562-16.168-5.61-1.127,4.393,6.186,8.5,11.761,9.526,11.167,2.064,24.432-8.885,24.432-8.885Z" transform="translate(-162.182 -62.193)" fill="#fff" stroke="#263238" stroke-linecap="round" stroke-linejoin="round" stroke-width="1.257"/>
        <path id="Path_5926" data-name="Path 5926" d="M297.8,139.667a63.419,63.419,0,0,1-14.723,5.912c-14.762-4.134-35.613-6.11-47.8-3.4,0,0-17.028,4.073-19.99,4.443s-9.995,24.062-11.476,40.351c-.914,10.053.57,29.265,1.838,43.2,30.849,11.307,63.751,7.43,79.841,4.348,1.628-18.45,3.464-36.815,3.464-36.815s.6-1.561,1.53-4.1c.324-.171.65-.348.978-.537,5.74-3.3,18.447-13.107,28.416-22.827C299.865,164.435,297.439,148.659,297.8,139.667Z" transform="translate(-161.996 -72.025)" fill="#263238" stroke="#263238" stroke-linecap="round" stroke-linejoin="round" stroke-width="1.257"/>
        <path id="Path_5927" data-name="Path 5927" d="M268.467,157.282c0-6.314-3.271-11.96-8.418-15.794-9.454-.914-18.738-.843-25.419.641,0,0-4.706,1.126-9.6,2.247a19.044,19.044,0,0,0-5.213,12.906c0,11.546,10.891,20.907,24.325,20.907S268.467,168.829,268.467,157.282Z" transform="translate(-161.356 -71.977)" fill="#616161" stroke="#263238" stroke-linecap="round" stroke-linejoin="round" stroke-width="1.257"/>
        <g id="Group_4514" data-name="Group 4514" transform="translate(41.526 112.725)">
          <path id="Path_5928" data-name="Path 5928" d="M261.823,400.511a44.19,44.19,0,0,0,17.315,2.428c12.772-.555,17.214-4.072,17.214-4.072s-2.962-54.047-5.183-71.817-8.144-46.644-8.144-59.23c0-7.418,2.057-31.037,3.747-49.185-.264.033-.529.064-.794.1a14.919,14.919,0,0,1-16.63-15.258l.351-11.82a154.068,154.068,0,0,1-28.875-.832c-17.214-1.943-34.983-7.774-34.983-7.774l-1.87.575c-.061.556-.117,1.106-.166,1.646-1.481,16.288,3.332,56.638,3.332,59.6s1.851,52.2,4.812,65.894,6.294,32.206,6.664,34.8,2.962,21.841,2.962,28.135c0,6.18-2.854,20.914-2.957,21.445,2.222.69,6.88,2.1,15.265,4.468,12.772,3.609,21.009-.741,21.009-.741,0-4.442.74-29.615.74-29.615S260.306,390.552,261.823,400.511Z" transform="translate(-203.522 -183.047)" fill="#fff" stroke="#263238" stroke-linecap="round" stroke-linejoin="round" stroke-width="1.257"/>
          <path id="Path_5929" data-name="Path 5929" d="M218.945,198.052l33.253,5.466v20.5l-18.676,18.676-15.032-18.221Z" transform="translate(-202.934 -182.458)" fill="none" stroke="#263238" stroke-linecap="round" stroke-linejoin="round" stroke-width="1.257"/>
          <path id="Path_5930" data-name="Path 5930" d="M242.682,310.658c-2.4-13.536-4.189-26.865-4.189-36.444l-13.327-8.885" transform="translate(-202.672 -179.815)" fill="none" stroke="#263238" stroke-linecap="round" stroke-linejoin="round" stroke-width="1.257"/>
          <path id="Path_5931" data-name="Path 5931" d="M254.049,363.932s-5.613-21.687-10.249-45.44" transform="translate(-201.94 -177.727)" fill="none" stroke="#263238" stroke-linecap="round" stroke-linejoin="round" stroke-width="1.257"/>
          <path id="Path_5932" data-name="Path 5932" d="M263.186,252.018a14.039,14.039,0,0,0,1.378,3.428c4.1,7.288,10.021,8.2,10.021,8.2l.911-19.133" transform="translate(-201.178 -180.633)" fill="none" stroke="#263238" stroke-linecap="round" stroke-linejoin="round" stroke-width="1.257"/>
          <path id="Path_5933" data-name="Path 5933" d="M264.569,241.006a16.165,16.165,0,0,0-1.5,4.381" transform="translate(-201.183 -180.771)" fill="none" stroke="#263238" stroke-linecap="round" stroke-linejoin="round" stroke-width="1.257"/>
          <path id="Path_5934" data-name="Path 5934" d="M280.222,297.023c.481,2.522.963,5,1.438,7.379" transform="translate(-200.509 -178.571)" fill="none" stroke="#263238" stroke-linecap="round" stroke-linejoin="round" stroke-width="1.257"/>
          <path id="Path_5935" data-name="Path 5935" d="M274.154,262.922s2.339,14.035,5.055,28.757" transform="translate(-200.748 -179.91)" fill="none" stroke="#263238" stroke-linecap="round" stroke-linejoin="round" stroke-width="1.257"/>
        </g>
        <path id="Path_5936" data-name="Path 5936" d="M232.164,134.653l-.188,10.912s-3.763,3.011-4.516,10.912,6.773,15.24,15.24,15.24,15.8-6.585,17.121-12.605-.377-14.676-.377-14.676l-.564-13.17s-8.278,5.268-16.179,3.762-10.16-4.326-10.16-4.326Z" transform="translate(-161.058 -72.377)" fill="#bdbdbd" stroke="#263238" stroke-linecap="round" stroke-linejoin="round" stroke-width="1.257"/>
        <g id="Group_4516" data-name="Group 4516" transform="translate(65.118 15.034)">
          <path id="Path_5937" data-name="Path 5937" d="M226.316,107.2s-.507,6.247.844,7.766,3.208,2.7,3.546,1.351.506-8.442.844-9.961S226.484,102.975,226.316,107.2Z" transform="translate(-226.222 -88.437)" fill="#bdbdbd" stroke="#263238" stroke-linecap="round" stroke-linejoin="round" stroke-width="1.257"/>
          <path id="Path_5938" data-name="Path 5938" d="M229.559,107.715S228,120.219,228,126.21s-2.345,8.335,5.209,12.243,14.067,4.427,19.276,2.6,8.075-6.251,8.335-9.9.261-9.377.261-9.377,7.294-6.512,5.731-11.461-4.949,1.3-4.949,1.3a40.122,40.122,0,0,0,2.084-13.285c-.261-6.772-5.471-7.553-7.555-7.553s-14.847-3.908-20.839,0S229.559,107.715,229.559,107.715Z" transform="translate(-226.166 -89.048)" fill="#bdbdbd" stroke="#263238" stroke-linecap="round" stroke-linejoin="round" stroke-width="1.257"/>
          <path id="Path_5939" data-name="Path 5939" d="M260.872,111.558a40.122,40.122,0,0,0,2.084-13.285c-.261-6.772-5.471-7.553-7.555-7.553-.035,0-.1-.01-.141-.012-1.1,1.854-2.463,4.7-2.463,4.7l1.041.521s-1.041,5.731,1.042,6.512,1.041,2.605,1.041,5.731,1.824,5.471,2.866,5.471c.819,0,2.119-2.091,2.638-2.985C261.084,111.166,260.872,111.558,260.872,111.558Z" transform="translate(-225.179 -88.983)" fill="#263238" stroke="#263238" stroke-linecap="round" stroke-linejoin="round" stroke-width="1.257"/>
          <path id="Path_5940" data-name="Path 5940" d="M240.826,111.485s-2.195,2.027-1.182,3.546,4.727,2.363,5.74.506a3.145,3.145,0,0,0-.676-3.883" transform="translate(-225.706 -88.167)" fill="none" stroke="#263238" stroke-linecap="round" stroke-linejoin="round" stroke-width="1.257"/>
          <path id="Path_5941" data-name="Path 5941" d="M238.566,109.606c0,1.026-.416,1.857-.928,1.857s-.929-.831-.929-1.857.416-1.857.929-1.857S238.566,108.58,238.566,109.606Z" transform="translate(-225.81 -88.313)" fill="#263238"/>
          <path id="Path_5942" data-name="Path 5942" d="M249.37,110.093c0,1.026-.416,1.857-.929,1.857s-.928-.831-.928-1.857.416-1.857.928-1.857S249.37,109.067,249.37,110.093Z" transform="translate(-225.386 -88.294)" fill="#263238"/>
          <path id="Path_5943" data-name="Path 5943" d="M246.619,105.177s3.546-2.363,6.923,1.351" transform="translate(-225.421 -88.444)" fill="none" stroke="#263238" stroke-linecap="round" stroke-linejoin="round" stroke-width="1.257"/>
          <g id="Group_4515" data-name="Group 4515" transform="translate(10.317 32.96)">
            <path id="Path_5944" data-name="Path 5944" d="M241.65,121.157a3.507,3.507,0,0,0-2.891-.127,2.991,2.991,0,0,0-1.681,1.806s-2.164,1.742.115,2.5,7.246.7,8.525.645a1.938,1.938,0,0,0,1.664-2.151,1.135,1.135,0,0,0-.527-1.012A4.146,4.146,0,0,0,241.65,121.157Z" transform="translate(-236.15 -120.762)" fill="#666" stroke="#263238" stroke-linecap="round" stroke-linejoin="round" stroke-width="0.923"/>
            <path id="Path_5945" data-name="Path 5945" d="M236.569,123.4a24.485,24.485,0,0,1,10.489.627" transform="translate(-236.133 -120.67)" fill="none" stroke="#263238" stroke-linecap="round" stroke-linejoin="round" stroke-width="1.073"/>
          </g>
        </g>
        <g id="Group_4517" data-name="Group 4517" transform="translate(47.931)">
          <path id="Path_5946" data-name="Path 5946" d="M225.355,93.957l27.871,3.908s11.722-3.126,12.763-5.471-2.865-14.066-4.949-16.931-22.141,2.084-28.393,3.125-10.939,2.605-10.68,5.731S225.355,93.957,225.355,93.957Z" transform="translate(-209.203 -74.582)" fill="#e68142" stroke="#263238" stroke-linecap="round" stroke-linejoin="round" stroke-width="1.257"/>
          <path id="Path_5947" data-name="Path 5947" d="M225.837,93.225s-15.889,13.024-16.15,14.326,23.183,1.824,30.477.261,13.545-10.68,13.545-10.68Z" transform="translate(-209.685 -73.849)" fill="#fff" stroke="#263238" stroke-linecap="round" stroke-linejoin="round" stroke-width="1.257"/>
        </g>
        <path id="Path_5948" data-name="Path 5948" d="M209.169,260.913l43.7-25.6a8.6,8.6,0,0,0,13.417-9.307l-9.115,5.339-2.106-3.593,9.115-5.34a8.6,8.6,0,0,0-14.679,7.15l-43.7,25.6a8.6,8.6,0,0,0-13.417,9.307l8.876-5.2,2.1,3.594-8.875,5.2a8.6,8.6,0,0,0,14.679-7.149Z" transform="translate(-162.447 -68.877)" fill="#e68142" stroke="#263238" stroke-linecap="round" stroke-linejoin="round" stroke-width="1.257"/>
        <g id="Group_4519" data-name="Group 4519" transform="translate(0 134.353)">
          <path id="Path_5949" data-name="Path 5949" d="M244.667,241.051s5.375,3.84,5.375,7.424-6.4,7.425-10.751,7.68-5.119-4.608-4.351-7.168S244.667,241.051,244.667,241.051Z" transform="translate(-160.772 -202.396)" fill="#bdbdbd" stroke="#263238" stroke-linecap="round" stroke-linejoin="round" stroke-width="1.257"/>
          <g id="Group_4518" data-name="Group 4518">
            <path id="Path_5950" data-name="Path 5950" d="M191.141,210.513s29.7,16.64,33.791,16.127,9.728-4.1,12.8-3.071,11.519,14.079,12.287,16.383-6.144,10.5-7.679,11.775-6.4,6.4-7.425,6.912-7.679,6.4-11.007,6.4-8.961-2.56-9.472-3.84.768-3.071.768-3.071l-15.616-7.168s-29.7-16.127-34.815-24.32,7.68-22.783,7.68-22.783" transform="translate(-163.565 -203.857)" fill="#bdbdbd" stroke="#263238" stroke-linecap="round" stroke-linejoin="round" stroke-width="1.257"/>
            <path id="Path_5951" data-name="Path 5951" d="M223.106,248.933a4.109,4.109,0,0,1,3.583,3.584c.512,3.328-.768,9.215-.768,9.215" transform="translate(-161.227 -202.087)" fill="none" stroke="#263238" stroke-linecap="round" stroke-linejoin="round" stroke-width="1.257"/>
            <path id="Path_5952" data-name="Path 5952" d="M228.771,244.253s3.583.257,3.583,3.584v9.215" transform="translate(-161.004 -202.27)" fill="none" stroke="#263238" stroke-linecap="round" stroke-linejoin="round" stroke-width="1.257"/>
            <path id="Path_5953" data-name="Path 5953" d="M232.466,235.386s6.656,4.864,7.168,7.679a33.131,33.131,0,0,1,0,7.424" transform="translate(-160.859 -202.619)" fill="none" stroke="#263238" stroke-linecap="round" stroke-linejoin="round" stroke-width="1.257"/>
          </g>
        </g>
        <g id="Group_4521" data-name="Group 4521" transform="translate(95.758 70.939)">
          <path id="Path_5954" data-name="Path 5954" d="M261.2,221.473c1.487,0,5.453-9.916,5.453-13.634s1.736-30.987,5.7-43.63c2.847-9.072,5.3-16.081,6.466-19.327-3.026-.775-6.253-1.463-9.586-2.041-1.982,6.015-8.043,24.793-10.514,36.738-2.974,14.378-2.231,31.483-1.983,32.97S259.715,221.473,261.2,221.473Z" transform="translate(-255.674 -142.84)" fill="#fff" stroke="#263238" stroke-linecap="round" stroke-linejoin="round" stroke-width="1.257"/>
          <g id="Group_4520" data-name="Group 4520" transform="translate(0 47.945)">
            <rect id="Rectangle_584" data-name="Rectangle 584" width="11.155" height="9.42" rx="1.228" transform="translate(1.239 0) rotate(7.559)" fill="#fff" stroke="#263238" stroke-linecap="round" stroke-linejoin="round" stroke-width="1.257"/>
            <rect id="Rectangle_585" data-name="Rectangle 585" width="6.999" height="5.91" rx="1.228" transform="translate(3.069 2.013) rotate(7.56)" fill="#fff" stroke="#263238" stroke-linecap="round" stroke-linejoin="round" stroke-width="1.257"/>
          </g>
        </g>
        <g id="Group_4523" data-name="Group 4523" transform="translate(40.58 72.765)">
          <path id="Path_5955" data-name="Path 5955" d="M207.755,217.685c1.487,0,5.453-9.916,5.453-13.634s1.736-30.987,5.7-43.629c2.519-8.03,4.235-13.15,5.155-15.825-3.87.878-7.549,1.675-8.784,1.83-.909.113-2.2,2.432-3.6,6.054-1.643,5.087-3.654,11.714-5.234,18.163a132.543,132.543,0,0,0-2.641,16.134,134.555,134.555,0,0,0-.078,16.339c.024.188.045.339.061.438C204.036,205.042,206.267,217.685,207.755,217.685Z" transform="translate(-202.576 -144.597)" fill="#fff" stroke="#263238" stroke-linecap="round" stroke-linejoin="round" stroke-width="1.257"/>
          <g id="Group_4522" data-name="Group 4522" transform="translate(0 38.561)">
            <rect id="Rectangle_586" data-name="Rectangle 586" width="11.155" height="9.42" rx="1.228" transform="matrix(0.994, 0.106, -0.106, 0.994, 1, 0)" fill="#fff" stroke="#263238" stroke-linecap="round" stroke-linejoin="round" stroke-width="1.257"/>
            <rect id="Rectangle_587" data-name="Rectangle 587" width="6.998" height="5.91" rx="1.228" transform="translate(2.88 1.966) rotate(6.091)" fill="#fff" stroke="#263238" stroke-linecap="round" stroke-linejoin="round" stroke-width="1.257"/>
          </g>
        </g>
      </g>
    </g>
  </g>
</svg>
