<svg xmlns="http://www.w3.org/2000/svg" width="147.707" height="40.427" viewBox="0 0 147.707 40.427">
  <g id="Group_44" data-name="Group 44" transform="translate(-138 -32.605)">
    <path id="logo-lendo-gold" d="M163.141,122.844h2.321v11.387h6.8v2.045h-9.12Zm19.235,0h9.673v2.045H184.7v3.538h6.743v1.935H184.7v3.925H192.1v2.045h-9.728Zm20.174,0h2.487l6.08,9.9h.056v-9.9h2.211v13.433H210.9l-6.08-9.84h-.056v9.84H202.55V122.844Zm22.054,0h5.527a5.544,5.544,0,0,1,2.653.553,4.325,4.325,0,0,1,1.824,1.437,5.618,5.618,0,0,1,1.05,2.156,9.846,9.846,0,0,1,.331,2.6,9.555,9.555,0,0,1-.331,2.6,6.524,6.524,0,0,1-1.05,2.156,5.143,5.143,0,0,1-1.824,1.437,6.686,6.686,0,0,1-2.653.553H224.6ZM226.98,134.4H229.3a5.383,5.383,0,0,0,2.266-.387,3.307,3.307,0,0,0,1.382-.995,3.565,3.565,0,0,0,.663-1.548,10.342,10.342,0,0,0,.166-1.88,9.927,9.927,0,0,0-.166-1.88,3.563,3.563,0,0,0-.663-1.548,2.9,2.9,0,0,0-1.382-.995,6.432,6.432,0,0,0-2.266-.387H226.98ZM252.3,122.513a6.249,6.249,0,0,1,2.708.553,5.53,5.53,0,0,1,1.99,1.548,6.786,6.786,0,0,1,1.271,2.211,8.525,8.525,0,0,1,0,5.418,6.271,6.271,0,0,1-1.271,2.211,5.252,5.252,0,0,1-1.99,1.492,6.086,6.086,0,0,1-2.708.553,6.249,6.249,0,0,1-2.708-.553,6.078,6.078,0,0,1-1.99-1.492,6.787,6.787,0,0,1-1.271-2.211,8.525,8.525,0,0,1,0-5.418,6.259,6.259,0,0,1,1.271-2.211,6.052,6.052,0,0,1,1.99-1.548A7.162,7.162,0,0,1,252.3,122.513Zm0,1.934a3.715,3.715,0,0,0-1.824.442,3.649,3.649,0,0,0-1.271,1.161,5.582,5.582,0,0,0-.718,1.658,8.11,8.11,0,0,0,0,3.76,5.6,5.6,0,0,0,.718,1.658,3.643,3.643,0,0,0,1.271,1.161,3.867,3.867,0,0,0,1.824.442,3.715,3.715,0,0,0,1.824-.442,3.65,3.65,0,0,0,1.271-1.161,5.582,5.582,0,0,0,.718-1.658,8.11,8.11,0,0,0,0-3.76,5.6,5.6,0,0,0-.718-1.658,3.643,3.643,0,0,0-1.271-1.161A3.563,3.563,0,0,0,252.3,124.447Z" transform="translate(27 -76.687)" fill="#D66B29"/>
    <path id="logo-lendo-gold-2" data-name="logo-lendo-gold" d="M5.956,5.854A20.216,20.216,0,0,0,5.4,33.942L.74,33.922a.646.646,0,0,0-.655.655.745.745,0,0,0,.184.471.6.6,0,0,0,.45.184l7.221.021.021-7.222a.655.655,0,1,0-1.309,0l-.021,5.36a18.892,18.892,0,1,1,26.838.245,18.725,18.725,0,0,1-13.378,5.483.646.646,0,0,0-.655.655.659.659,0,0,0,.655.655,20.026,20.026,0,0,0,14.3-5.871A20.2,20.2,0,0,0,5.956,5.854Zm36.37.7a1.8,1.8,0,0,1-.123.675,1.512,1.512,0,0,1-.348.511,1.679,1.679,0,0,1-.511.327,1.5,1.5,0,0,1-.614.123,1.7,1.7,0,0,1-.655-.123,1.512,1.512,0,0,1-.511-.348,1.679,1.679,0,0,1-.327-.511,1.7,1.7,0,0,1-.123-.655,1.8,1.8,0,0,1,.123-.675,1.512,1.512,0,0,1,.348-.511,1.679,1.679,0,0,1,.511-.327,1.6,1.6,0,0,1,1.227,0,1.679,1.679,0,0,1,.511.327,1.508,1.508,0,0,1,.348.511A1.482,1.482,0,0,1,42.326,6.549Zm-.348,0a1.559,1.559,0,0,0-.1-.552,1.173,1.173,0,0,0-.266-.43,1.722,1.722,0,0,0-.389-.286,1.228,1.228,0,0,0-.982,0,1.348,1.348,0,0,0-.409.286,1.167,1.167,0,0,0-.266.43,1.566,1.566,0,0,0-.1.552,1.529,1.529,0,0,0,.082.532,1.477,1.477,0,0,0,.246.43,1.068,1.068,0,0,0,.389.286,1.446,1.446,0,0,0,.532.1,1.234,1.234,0,0,0,.491-.1,1.068,1.068,0,0,0,.389-.286,1.165,1.165,0,0,0,.266-.43A.932.932,0,0,0,41.978,6.549Zm-.43.307a.687.687,0,0,1-.1.286.562.562,0,0,1-.164.2.844.844,0,0,1-.225.143,1.189,1.189,0,0,1-.266.041A.833.833,0,0,1,40.4,7.45a.732.732,0,0,1-.286-.2.77.77,0,0,1-.184-.307,1.192,1.192,0,0,1-.061-.389,1.159,1.159,0,0,1,.061-.368.943.943,0,0,1,.184-.307,1.456,1.456,0,0,1,.286-.2,1.2,1.2,0,0,1,.389-.082.85.85,0,0,1,.511.164.773.773,0,0,1,.266.491h-.307a.455.455,0,0,0-.164-.266.522.522,0,0,0-.327-.1.437.437,0,0,0-.246.061,1.117,1.117,0,0,0-.184.143.642.642,0,0,0-.1.2,1.029,1.029,0,0,0-.041.266,1.042,1.042,0,0,0,.041.266.491.491,0,0,0,.123.225.482.482,0,0,0,.184.164.437.437,0,0,0,.246.061.565.565,0,0,0,.327-.1.391.391,0,0,0,.143-.286l.286-.02Zm-24.1,7.058H19.17v8.367h5.012v1.493h-6.73Z" transform="translate(138 32.605)" fill="#D66B29"/>
  </g>
</svg>
