<svg xmlns="http://www.w3.org/2000/svg" width="326.57" height="69.442" viewBox="0 0 326.57 69.442">
  <g id="Group_689" data-name="Group 689" transform="translate(-48.66 -271)">
    <g id="Group_687" data-name="Group 687" transform="translate(-209 200.556)">
      <path id="Path_330" data-name="Path 330" d="M356.84,110.11h-4.99a.058.058,0,0,1-.06-.06V87.79a4.278,4.278,0,0,0-4.28-4.28,13.441,13.441,0,0,1-2.36-.13.056.056,0,0,0-.07.06v32.61c0,.04.03.07.06.06.8-.09,2.37-.14,4.7-.14h2.32q5.64,0,8.03.17v-.24q0-.225.17-5.86a.068.068,0,0,0-.07-.07A31.962,31.962,0,0,1,356.84,110.11Z" fill="#e46400"/>
      <path id="Path_331" data-name="Path 331" d="M377.25,89.97a13.326,13.326,0,0,0-9.96,3.88,12.975,12.975,0,0,0-2.76,4.27,14.155,14.155,0,0,0-.98,5.3,11.887,11.887,0,0,0,4.08,9.3,14.82,14.82,0,0,0,10.25,3.61,19.1,19.1,0,0,0,2.34-.15,13.9,13.9,0,0,0,6.01-1.76l.27-3.81q.075-1.08.12-2.1a5.189,5.189,0,0,1-1.1.68,14.758,14.758,0,0,1-6.67,1.39,11.218,11.218,0,0,1-6.03-1.45,6.393,6.393,0,0,1-2.95-4.07h8.59q7.5,0,9.94-.68a7.8,7.8,0,0,0,.29-2.64,11.743,11.743,0,0,0-3.1-8.35,10.818,10.818,0,0,0-8.34-3.42Zm3.51,10.45-2,.07c-.8.02-1.61.02-2.44.02h-1.39c-.55,0-1.13-.01-1.73-.02h-1.81c-.57-.02-1.05-.03-1.44-.05a8.413,8.413,0,0,1,.9-2.15,6.213,6.213,0,0,1,5.64-3.2c3.14,0,5.05,1.75,5.71,5.25C381.78,100.38,381.3,100.41,380.76,100.42Z" fill="#e46400"/>
      <path id="Path_332" data-name="Path 332" d="M413.94,114.53c-.08-.55-.12-2.21-.12-4.96V99.85a10.507,10.507,0,0,0-2.39-7.17,8.118,8.118,0,0,0-6.4-2.72,10.672,10.672,0,0,0-6.89,2.66V90.45h-5.93v25.51h6.13a17.55,17.55,0,0,1-.2-3.12V98.91q2.175-3.315,5.4-3.32,4.35,0,4.35,7.15v13.31c.88-.05,1.58-.07,2.1-.07h1.71c.6,0,1.56.06,2.88.17l.05-.1c-.1-.13-.21-.28-.35-.44A2.2,2.2,0,0,1,413.94,114.53Z" fill="#e46400"/>
      <path id="Path_333" data-name="Path 333" d="M442.15,111.41a4.428,4.428,0,0,1-.68-1.46,18.542,18.542,0,0,1-.3-4.25V79.6a5.983,5.983,0,0,0-5.98,5.98v4.88a13.9,13.9,0,0,0-3.69-.49,13.641,13.641,0,0,0-10.06,3.91,13.039,13.039,0,0,0-3.91,9.67,12.631,12.631,0,0,0,3.37,9.13,11.629,11.629,0,0,0,3.96,2.69,13.909,13.909,0,0,0,5.42.98,12.66,12.66,0,0,0,6.2-1.73,6.012,6.012,0,0,0,2.05,1.73l4.59-4.05a4.979,4.979,0,0,1-.97-.89Zm-6.97-1.47a8.942,8.942,0,0,1-3.76.78,7.9,7.9,0,0,1-6.03-2.22,7.8,7.8,0,0,1-1.95-5.57,6.788,6.788,0,0,1,2.15-5.2,7.453,7.453,0,0,1,2.45-1.49,10.552,10.552,0,0,1,7.14.17Z" fill="#e46400"/>
      <path id="Path_334" data-name="Path 334" d="M519.33,114.53c-.08-.55-.12-2.21-.12-4.96V99.85a10.314,10.314,0,0,0-2.44-7.18,8.515,8.515,0,0,0-6.59-2.71,10.641,10.641,0,0,0-6.49,2.39V87.03a5.983,5.983,0,0,0-5.98-5.98v34.91h6.08a21.814,21.814,0,0,1-.1-2.73V99.01q2.145-3.3,5-3.3a3.947,3.947,0,0,1,3.05,1.22,7.144,7.144,0,0,1,1.49,4.98v14.14c.88-.05,1.59-.07,2.12-.07h1.73c.6,0,1.56.06,2.88.17l.05-.1c-.1-.13-.22-.28-.35-.44a2.333,2.333,0,0,1-.33-1.08Z" fill="#e46400"/>
      <path id="Path_335" data-name="Path 335" d="M544.58,108.67V99.83a11.427,11.427,0,0,0-.71-4.13q-2.22-5.73-10.18-5.74a20.044,20.044,0,0,0-9.45,2.27l.73,5.4.07.05a8.817,8.817,0,0,1,3.39-1.73,17.84,17.84,0,0,1,2.21-.55,12.753,12.753,0,0,1,2.32-.21,10.607,10.607,0,0,1,2.23.22q3.18.66,3.37,4.57a6.2,6.2,0,0,0-.66-.06c-.24-.01-.46-.02-.66-.04l-.98-.02q-6.45,0-10.21,2.54a6.912,6.912,0,0,0-3.47,5.86,7,7,0,0,0,2.83,6.01,10,10,0,0,0,3.39,1.55,19.18,19.18,0,0,0,4.81.52,13.433,13.433,0,0,0,6.27-1.88,5.653,5.653,0,0,0,2.25,2.12l4.42-4.05a3.964,3.964,0,0,1-1.97-3.86Zm-10.63,2.57a7.666,7.666,0,0,1-3.77-.73,2.287,2.287,0,0,1-.94-.99,3.18,3.18,0,0,1-.28-1.38,2.807,2.807,0,0,1,.44-1.49c.98-1.59,3.26-2.39,6.86-2.39h.98a7.672,7.672,0,0,1,1.37.12v5.1c0,.2.01.38.02.56A9.59,9.59,0,0,1,533.95,111.24Z" fill="#e46400"/>
      <path id="Path_336" data-name="Path 336" d="M556.7,90.46h-6.1v25.51h6.2a21.861,21.861,0,0,1-.1-2.73V90.46Z" fill="#e46400"/>
      <path id="Path_337" data-name="Path 337" d="M583.86,115.61a2.326,2.326,0,0,1-.33-1.07c-.08-.55-.12-2.21-.12-4.96V99.86a10.507,10.507,0,0,0-2.39-7.17,8.118,8.118,0,0,0-6.4-2.72,10.627,10.627,0,0,0-6.88,2.66V90.46h-5.93v25.51h6.13a17.553,17.553,0,0,1-.2-3.12V98.91q2.175-3.315,5.4-3.32,4.35,0,4.35,7.15v13.31c.88-.05,1.58-.07,2.1-.07h1.71c.6,0,1.56.06,2.88.17l.05-.1C584.12,115.92,584,115.77,583.86,115.61Z" fill="#e46400"/>
      <path id="Path_338" data-name="Path 338" d="M474.03,96.8q.2.48.39.93h.08a.883.883,0,0,0,.1-.08,8.3,8.3,0,0,1,8.72-2.35,7.932,7.932,0,0,1,3.76,2.57,9.983,9.983,0,0,0-.8,3.17l7.11-2.52a.411.411,0,0,0,.11-.01,3.076,3.076,0,0,0-.1-.43,13.579,13.579,0,0,0-4.43-5.78,12.516,12.516,0,0,0-4.39-2.2,15.47,15.47,0,0,0-2.7-.5,13.279,13.279,0,0,0-5.23.59,14.172,14.172,0,0,0-4.66,2.57.255.255,0,0,0-.06.41,15.818,15.818,0,0,1,2.1,3.63Z" fill="#e46400"/>
      <path id="Path_339" data-name="Path 339" d="M550,82.13V86.4l3.7,2.13,3.69-2.13V82.13L553.7,80Z" fill="#e46400"/>
      <path id="Path_340" data-name="Path 340" d="M487.69,107.82l.02.01a.513.513,0,0,0-.31.21,8.444,8.444,0,0,1-1.82,1.81,8.01,8.01,0,0,1-3.89,1.51,6.351,6.351,0,0,1-2.53-.12,10.612,10.612,0,0,1-2.16-.75,8.133,8.133,0,0,1-4.5-7.51,13.926,13.926,0,0,0-.71-4.21,13.258,13.258,0,0,0-2.8-4.76,13.589,13.589,0,0,0-14.55-3.73,13.21,13.21,0,0,0-4.29,2.46,13.392,13.392,0,0,0-4.61,7.93,14.2,14.2,0,0,0-.22,2.6,14.836,14.836,0,0,0,.27,2.57,12.433,12.433,0,0,0,1.29,3.62,13.607,13.607,0,0,0,15.29,6.89,12.986,12.986,0,0,0,4.21-1.84c.53-.35,1.02-.75,1.55-1.15a17.412,17.412,0,0,1-2.69-4.86c-.35.33-.63.61-.94.88a8.088,8.088,0,0,1-4.45,1.97,7.521,7.521,0,0,1-2.5-.1,8.184,8.184,0,0,1-2.23-.77,8.286,8.286,0,0,1-3.92-4.4,8.1,8.1,0,0,1-.47-4.04,7.8,7.8,0,0,1,1.21-3.31,8.252,8.252,0,0,1,14.49,1.01,9.41,9.41,0,0,1,.74,3.59,20.2,20.2,0,0,0,.34,2.8,11.7,11.7,0,0,0,1.18,3.26,13.622,13.622,0,0,0,15.24,6.99,13.253,13.253,0,0,0,3.51-1.39,13.558,13.558,0,0,0,5.41-5.62h.01c.04-.08.07-.16.11-.24.07-.14.15-.28.22-.42.13-.28.22-.57.34-.89h-.01a7.815,7.815,0,0,0,.49-2.25Z" fill="#e46400"/>
      <path id="Path_341" data-name="Path 341" d="M464.45,114.77a13.289,13.289,0,0,0,5.38.49s-4.51-4.4-4.54-6.58C465.11,107.53,464.45,114.77,464.45,114.77Z" fill="#e46400"/>
    </g>
    <g id="Group_688" data-name="Group 688" transform="translate(-209 -184.434)">
      <path id="Path_326" data-name="Path 326" d="M325.43,470.29a7.4,7.4,0,0,0-3.85-6.74c-4.03-2.41-8.13-4.71-12.21-7.05a7.1,7.1,0,0,0-7.53.03c-3.31,1.9-6.64,3.8-9.94,5.7q-8.205,4.74-16.4,9.48c-2.11,1.22-3.57,2.99-3.62,5.43-.01.56-.03,1.13-.03,1.69h-.01v.48q-.12,6.54,0,13.08v1.72a5.521,5.521,0,0,0,1.62,3.9,5.4,5.4,0,0,0,1.24.92l.1.05a5.408,5.408,0,0,0,2.57.64h.01a5.562,5.562,0,0,0,4.2-1.94,5.381,5.381,0,0,0,1.32-3.47.34.34,0,0,0,.01-.1v-8.7a9.764,9.764,0,0,1,5.22-8.22q6.285-3.645,12.62-7.23c7.09-4.02,13.73,1.19,13.6,7.89-.1,4.71-.04,9.42-.02,14.13a10.309,10.309,0,0,1-5.47,9.62c-3.19,1.83-6.36,3.66-9.55,5.49-2.38,1.37-4.74,2.73-7.13,4.11l-5.83,3.33a5.42,5.42,0,0,0-.47.3,5.509,5.509,0,0,0-2.11,3.04,5.694,5.694,0,0,0-.18,1.54v.11a2.46,2.46,0,0,0,.02.27,5.494,5.494,0,0,0,.7,2.28l.01.01a5.588,5.588,0,0,0,3.77,2.69,5.356,5.356,0,0,0,3.67-.57c.04-.01.05-.03.09-.05l2.96-1.69a5.68,5.68,0,0,0,.69-.36q4.635-2.655,9.28-5.33l.35-.2c5.52-3.17,11.01-6.34,16.52-9.53a7.256,7.256,0,0,0,3.79-6.74Q325.38,485.3,325.43,470.29Z" fill="#e46400"/>
      <path id="Path_327" data-name="Path 327" d="M307.47,498.96c2.09-1.21,3.67-2.94,3.73-5.37.01-.38.02-.77.03-1.16V477.15a5.554,5.554,0,0,0-1.61-3.9,5.4,5.4,0,0,0-1.24-.92l-.1-.05a5.368,5.368,0,0,0-2.56-.64h-.01a5.512,5.512,0,0,0-5.5,5.51v1.91c0,1.76,0,3.52-.01,5.29a9.921,9.921,0,0,1-5.25,9.06c-4.19,2.44-8.42,4.81-12.62,7.24-6.54,3.8-13.17-.55-13.55-6.96V463.15l-.07-.23a6.972,6.972,0,0,0-.71-2.25l-.23-.72-.15.09a5.344,5.344,0,0,0-4.4-2.45h0c-3.07,0-5.56,2.82-5.56,6.3v36.35h.02a7.93,7.93,0,0,0,4.42,7.29c3.79,2.11,7.51,4.32,11.28,6.47a7.372,7.372,0,0,0,8.12-.05c1.37-.86,2.8-1.6,4.21-2.4Q296.6,505.235,307.47,498.96Z" fill="#e46400"/>
    </g>
  </g>
</svg>
