<svg id="tabler-parachute" xmlns="http://www.w3.org/2000/svg" width="86.242" height="86.242" viewBox="0 0 86.242 86.242">
  <path id="Path_1520" data-name="Path 1520" d="M0,0H86.242V86.242H0Z" fill="rgba(0,0,0,0)"/>
  <path id="Path_1521" data-name="Path 1521" d="M73.868,37.934A35.934,35.934,0,1,0,2,37.934" transform="translate(5.187 5.187)" fill="rgba(0,0,0,0)" stroke="#d66b29" stroke-linecap="round" stroke-linejoin="round" stroke-width="3"/>
  <path id="Path_1522" data-name="Path 1522" d="M73.868,19.78C73.868,13.815,68.622,9,62.19,9c-6.468,0-11.679,4.815-11.679,10.78C50.511,13.815,44.87,9,37.934,9S25.357,13.815,25.357,19.78C25.357,13.815,20.111,9,13.679,9,7.21,9,2,13.815,2,19.78" transform="translate(5.187 23.341)" fill="rgba(0,0,0,0)" stroke="#000" stroke-linecap="round" stroke-linejoin="round" stroke-width="3"/>
  <path id="Path_1523" data-name="Path 1523" d="M2,12,37.934,47.934,25.357,12" transform="translate(5.187 31.121)" fill="rgba(0,0,0,0)" stroke="#000" stroke-linecap="round" stroke-linejoin="round" stroke-width="3"/>
  <path id="Path_1524" data-name="Path 1524" d="M24.577,12,12,47.934,47.934,12" transform="translate(31.121 31.121)" fill="rgba(0,0,0,0)" stroke="#000" stroke-linecap="round" stroke-linejoin="round" stroke-width="3"/>
</svg>
