<svg xmlns="http://www.w3.org/2000/svg" width="13" height="16" viewBox="0 0 13 16" fill="none">
  <path d="M7.74216 12.8241V14.5063L6.29522 15.3682L4.88942 14.5063V12.8241L6.29522 13.6861L7.74216 12.8241ZM0 7.00625L1.40579 7.86816V10.7528L3.8265 12.2194V13.9015L0 11.6147V7.00625ZM12.5904 7.00625V11.6216L8.72278 13.9085V12.2264L11.1435 10.7597V7.87511L12.5904 7.00625ZM8.71593 4.71942L10.1629 5.58132V7.26344L7.74216 8.73007V11.6564L6.33636 12.5183L4.93742 11.6564V8.72312L2.42757 7.25649V5.57437L3.87451 4.71246L6.29522 6.1791L8.71593 4.71942ZM2.42757 8.46594L3.83336 9.32785V11.01L2.42757 10.1481V8.46594ZM10.1629 8.46594V10.1481L8.75707 11.01V9.32785L10.1629 8.46594ZM1.40579 3.25278L2.85273 4.11469L1.40579 4.9766V6.65871L0 5.7968V4.11469L1.40579 3.25278ZM11.1846 3.25278L12.6316 4.11469V5.7968L11.1846 6.65871V4.9766L9.77884 4.11469L11.1846 3.25278ZM6.29522 3.25278L7.74216 4.11469L6.29522 4.9766L4.88942 4.11469L6.29522 3.25278ZM6.29522 0.368164L10.1629 2.655L8.75707 3.51691L6.33636 2.05028L3.86765 3.51691L2.46186 2.655L6.29522 0.368164Z" fill="#E46400"/>
</svg>