<svg width="49" height="49" viewBox="0 0 49 49" fill="none" xmlns="http://www.w3.org/2000/svg">
<path d="M43.8902 24.2902H43.2301C40.4901 24.2902 37.7602 24.2902 35.0202 24.2902C33.2443 24.2832 31.5336 24.9584 30.241 26.1761C28.9484 27.3939 28.1727 29.0615 28.0739 30.8346C27.9751 32.6077 28.5608 34.3511 29.71 35.705C30.8593 37.0588 32.4845 37.9198 34.2501 38.1102C37.2501 38.3102 40.1802 38.2001 43.1502 38.2201H43.8701C43.8701 38.4501 43.8701 38.6302 43.8701 38.8002C43.8701 40.4502 43.8701 42.0901 43.8701 43.7401C43.9067 44.3507 43.8132 44.9621 43.5958 45.5338C43.3785 46.1055 43.0422 46.6245 42.6092 47.0565C42.1762 47.4885 41.6565 47.8236 41.0843 48.0397C40.5121 48.2558 39.9006 48.3481 39.2901 48.3102H4.79012C4.17958 48.3468 3.56825 48.2531 2.99654 48.0358C2.42484 47.8184 1.90579 47.4822 1.47378 47.0492C1.04176 46.6162 0.706617 46.0965 0.490499 45.5243C0.274381 44.9521 0.182208 44.3406 0.220113 43.7301V19.1002C0.179953 18.4858 0.271938 17.8697 0.489828 17.2938C0.707717 16.7179 1.04648 16.1953 1.4833 15.7614C1.92011 15.3274 2.44486 14.9921 3.02218 14.778C3.59949 14.5638 4.216 14.476 4.83016 14.5201H39.2702C39.8849 14.4788 40.5014 14.5695 41.0782 14.786C41.655 15.0026 42.1789 15.3401 42.6146 15.7758C43.0503 16.2114 43.3877 16.7353 43.6043 17.3121C43.8208 17.889 43.9115 18.5055 43.8701 19.1202C43.9001 20.8302 43.8902 22.5202 43.8902 24.2902Z" fill="white"/>
<path d="M40.3804 26.0002H45.8504C46.1827 25.9761 46.5163 26.024 46.8283 26.1409C47.1403 26.2577 47.4232 26.4407 47.6579 26.6772C47.8925 26.9138 48.0732 27.1983 48.1876 27.5112C48.3019 27.8241 48.3472 28.1581 48.3204 28.4902C48.3204 30.3302 48.3204 32.1702 48.3204 34.0202C48.3457 34.3515 48.2993 34.6844 48.1842 34.9961C48.0692 35.3078 47.8883 35.591 47.6538 35.8264C47.4194 36.0618 47.1369 36.2438 46.8256 36.3601C46.5144 36.4764 46.1817 36.5242 45.8504 36.5002C42.2704 36.5002 38.6904 36.5002 35.1204 36.5002C33.8665 36.5352 32.6417 36.1192 31.6685 35.3279C30.6953 34.5365 30.0382 33.4221 29.8167 32.1875C29.5952 30.9528 29.824 29.6799 30.4614 28.5996C31.0988 27.5193 32.1026 26.7034 33.2904 26.3003C33.8865 26.1165 34.5066 26.0221 35.1304 26.0202C36.8804 26.0002 38.6304 26.0002 40.3804 26.0002Z" fill="white"/>
<path d="M38.35 12.7903H18L19.06 12.1301L29.36 5.77023C30.1846 5.24187 31.1775 5.04215 32.1422 5.21066C33.107 5.37917 33.9733 5.90354 34.57 6.68014C35.89 8.61014 37.05 10.6903 38.35 12.7903Z" fill="white"/>
<path d="M10.0801 12.8103L10.5101 12.3604L21.0101 2.23022C21.3854 1.8046 21.8471 1.46372 22.3643 1.23022C22.8816 0.996733 23.4426 0.875977 24.0101 0.875977C24.5776 0.875977 25.1386 0.996733 25.6558 1.23022C26.1731 1.46372 26.6347 1.8046 27.0101 2.23022C27.6101 2.82022 28.2001 3.4303 28.8201 4.0603L27.98 4.58032C23.7134 7.24699 19.4434 9.88691 15.17 12.5002C14.8648 12.6743 14.5213 12.7705 14.17 12.7803C12.81 12.8303 11.5001 12.8103 10.0801 12.8103Z" fill="white"/>
</svg>
