<svg xmlns="http://www.w3.org/2000/svg" width="46" height="46" viewBox="0 0 46 46" fill="none">
  <path d="M36.9397 6.85182C37.047 6.68007 37.1114 6.48685 37.2401 6.35803C39.064 4.53316 40.8665 2.70829 42.7119 0.883422C43.656 -0.0397482 45.1366 0.346695 45.437 1.5919C45.5872 2.2145 45.4156 2.72976 44.9864 3.15914C44.2139 3.93203 43.4414 4.70492 42.6689 5.4778C29.6655 18.4881 16.6405 31.5198 3.63705 44.53C3.5083 44.6588 3.40101 44.7662 3.27226 44.8735C2.58561 45.5176 1.59855 45.5176 0.976268 44.8735C0.353989 44.2295 0.353989 43.2848 0.997726 42.6193C1.53417 42.0611 2.07062 41.5029 2.62853 40.9876C2.90748 40.73 2.99331 40.4509 2.99331 40.0645C2.97185 28.7503 2.95039 17.4361 2.92894 6.12187C2.92894 3.56705 4.3237 1.48456 6.61969 0.711669C7.22051 0.496978 7.88571 0.389633 8.52944 0.389633C15.3531 0.368164 22.1767 0.368164 28.9788 0.368164C29.5582 0.368164 30.0517 0.539917 30.4809 0.947829C32.455 2.7727 34.4291 4.55463 36.4032 6.35803C36.532 6.48685 36.6822 6.61566 36.9397 6.85182ZM6.14762 37.3594C14.0656 29.4373 21.9192 21.5796 29.8371 13.6575C29.8157 13.6575 29.7513 13.636 29.6869 13.5931C28.2492 12.4123 27.5626 10.888 27.6055 9.0202C27.627 7.38855 27.6055 5.77837 27.6055 4.14672C27.6055 3.97497 27.6055 3.80321 27.6055 3.58852C27.348 3.58852 27.1549 3.58852 26.9832 3.58852C20.9321 3.58852 14.881 3.58852 8.8084 3.58852C7.02739 3.58852 6.12616 4.49022 6.12616 6.27216C6.12616 16.4485 6.12616 26.6248 6.12616 36.8012C6.14762 36.9729 6.14762 37.1661 6.14762 37.3594ZM34.5793 9.04167C33.3348 7.90381 32.1331 6.80888 30.8671 5.67102C30.8671 7.08798 30.8242 8.41906 30.8886 9.75015C30.9315 10.3942 31.3606 10.8665 31.9185 11.2315C32.1331 11.3818 32.2833 11.3603 32.4764 11.1671C33.1416 10.4586 33.8283 9.77162 34.5793 9.04167Z" fill="#ACACAC"/>
  <path d="M43.0974 26.6896C43.0974 31.0478 43.0974 35.3846 43.0974 39.7428C43.0974 42.4264 41.3808 44.6163 38.8058 45.2174C38.3552 45.3247 37.8831 45.3677 37.4111 45.3677C28.7421 45.3677 20.0731 45.3677 11.4256 45.3677C10.3741 45.3677 9.66602 44.7236 9.64456 43.8004C9.62311 42.9202 10.2668 42.2117 11.1466 42.1688C11.3397 42.1473 11.5114 42.1688 11.7045 42.1688C20.2018 42.1688 28.6992 42.1688 37.1965 42.1688C39.0204 42.1688 39.9002 41.2886 39.9002 39.4637C39.9002 30.8331 39.9002 22.1811 39.9002 13.5505C39.9002 13.2714 39.9216 12.9709 39.986 12.7132C40.2006 11.9618 40.8873 11.5539 41.7027 11.6183C42.4108 11.6827 43.033 12.3053 43.0974 13.0353C43.1189 13.207 43.0974 13.4002 43.0974 13.5935C43.0974 17.9517 43.0974 22.3099 43.0974 26.6896Z" fill="#ACACAC"/>
  <path d="M27.5636 29.6955C28.8081 29.6955 30.0741 29.6955 31.3187 29.6955C32.3058 29.6955 33.0139 30.361 33.0353 31.2627C33.0568 32.1859 32.3272 32.8944 31.3187 32.8944C28.8081 32.8944 26.2976 32.8944 23.8084 32.8944C22.7999 32.8944 22.0918 32.2073 22.1133 31.2627C22.1347 30.3395 22.8214 29.6955 23.8299 29.6955C25.053 29.6955 26.2976 29.6955 27.5636 29.6955Z" fill="#ACACAC"/>
  <path d="M18.7873 16.0398C17.4354 16.0398 16.0836 16.0398 14.7317 16.0398C13.7017 16.0398 12.9936 15.3742 12.9722 14.451C12.9722 13.5279 13.7017 12.8409 14.7103 12.8409C17.4354 12.8409 20.1606 12.8409 22.8857 12.8409C23.8942 12.8409 24.6238 13.5279 24.6023 14.4725C24.6023 15.3742 23.8728 16.0612 22.8857 16.0612C21.5339 16.0398 20.1606 16.0398 18.7873 16.0398Z" fill="#ACACAC"/>
  <path d="M16.3198 24.4781C15.7619 24.4781 15.1826 24.4781 14.6247 24.4781C13.702 24.4567 12.9724 23.7482 12.9939 22.8679C12.9939 21.9877 13.702 21.3007 14.6032 21.2792C15.7619 21.2578 16.9207 21.2578 18.0579 21.2792C18.9806 21.3007 19.7102 22.0092 19.6887 22.8894C19.6887 23.7697 18.9806 24.4567 18.0794 24.4781C17.5 24.4781 16.9207 24.4781 16.3198 24.4781Z" fill="#ACACAC"/>
</svg>