<svg xmlns="http://www.w3.org/2000/svg" width="16" height="5" viewBox="0 0 16 5" fill="none">
<path d="M6.68394 3.17829C6.59277 3.94841 6.12023 4.35861 5.35088 4.3591C5.0475 4.3596 4.7431 4.34135 4.44175 4.36305C3.76559 4.41136 3.11375 4.04504 3.02005 3.17829C2.95421 3.17829 2.88583 3.17829 2.81796 3.17829C2.10433 3.17829 1.3907 3.17927 0.677064 3.17779C0.276943 3.1773 0.00141649 2.93275 0.00293594 2.58418C0.00496187 2.23511 0.278462 1.99796 0.683141 1.99747C1.44742 1.99599 2.2117 1.99599 2.97599 1.995C2.98814 1.995 2.99979 1.98909 3.01904 1.98465C3.04233 1.8752 3.05702 1.76081 3.09096 1.65136C3.24037 1.1672 3.69823 0.827499 4.22041 0.818131C4.59268 0.811229 4.96545 0.816159 5.33822 0.816159C6.12529 0.816159 6.58822 1.21601 6.68495 1.99698C6.75586 1.99698 6.82981 1.99698 6.90375 1.99698C9.63876 1.99698 12.3733 1.99648 15.1083 1.99747C15.5869 1.99747 15.8928 2.3914 15.7338 2.79717C15.6421 3.03136 15.4218 3.17582 15.1412 3.1773C14.6357 3.17976 14.1307 3.17829 13.6253 3.17829C11.3897 3.17829 9.15355 3.17829 6.91794 3.17829C6.84196 3.17829 6.76751 3.17829 6.68394 3.17829Z" fill="white"/>
</svg>