<svg width="48" height="49" viewBox="0 0 48 49" fill="none" xmlns="http://www.w3.org/2000/svg">
<path d="M10.6799 21.4604H5.78987C5.07991 21.4811 4.37317 21.3566 3.71296 21.0947C3.05276 20.8328 2.45297 20.439 1.95027 19.9372C1.44757 19.4354 1.05253 18.8364 0.78938 18.1767C0.526231 17.517 0.400523 16.8105 0.419873 16.1005C0.419873 12.8305 0.419873 9.55047 0.419873 6.28047C0.3962 5.57019 0.518627 4.86262 0.779614 4.20161C1.0406 3.5406 1.43456 2.94021 1.93708 2.43769C2.43961 1.93517 3.03999 1.54121 3.701 1.28022C4.36201 1.01923 5.06958 0.896686 5.77986 0.920359C9.04986 0.920359 12.3298 0.920359 15.5998 0.920359C16.3062 0.896896 17.0098 1.01839 17.6676 1.27705C18.3253 1.53571 18.9231 1.92617 19.4243 2.42451C19.9254 2.92285 20.3194 3.5185 20.5817 4.17475C20.8441 4.83101 20.9693 5.53395 20.9498 6.24043C20.9498 9.53376 20.9498 12.8272 20.9498 16.1206C20.9677 16.8262 20.8418 17.5281 20.5797 18.1835C20.3175 18.839 19.9246 19.4341 19.425 19.9328C18.9254 20.4315 18.3294 20.8233 17.6735 21.0842C17.0176 21.3451 16.3155 21.4696 15.6098 21.4504L10.6799 21.4604Z" fill="white"/>
<path d="M37.5398 21.4605H32.6997C31.9822 21.4884 31.2666 21.3682 30.5977 21.107C29.9288 20.8457 29.321 20.4492 28.8123 19.9424C28.3036 19.4356 27.905 18.8291 27.6413 18.1612C27.3776 17.4932 27.2545 16.7782 27.2798 16.0606C27.2798 12.8139 27.2798 9.57059 27.2798 6.33059C27.2502 5.61222 27.3697 4.8954 27.6311 4.22561C27.8925 3.55582 28.29 2.94763 28.7984 2.43923C29.3068 1.93083 29.9151 1.53338 30.5849 1.272C31.2547 1.01061 31.9714 0.890786 32.6897 0.920434C35.9297 0.920434 39.1698 0.920434 42.4098 0.920434C43.1287 0.89221 43.8456 1.01313 44.5154 1.27566C45.1852 1.53818 45.7934 1.93665 46.3017 2.44582C46.8099 2.955 47.2071 3.56386 47.4684 4.23415C47.7297 4.90445 47.8493 5.62179 47.8197 6.3406V16.0606C47.8448 16.7756 47.7226 17.488 47.4607 18.1538C47.1989 18.8197 46.803 19.4248 46.2975 19.9312C45.7921 20.4376 45.1878 20.8346 44.5225 21.0977C43.8571 21.3608 43.1449 21.4842 42.4298 21.4605H37.5398Z" fill="white"/>
<path d="M20.9994 38.0505C20.9994 39.6805 20.9994 41.3104 20.9994 42.9404C21.0231 43.6541 20.8999 44.3653 20.6373 45.0295C20.3747 45.6936 19.9784 46.2964 19.4729 46.801C18.9674 47.3055 18.3636 47.7007 17.699 47.9621C17.0343 48.2235 16.3231 48.3456 15.6094 48.3205H5.82934C5.11983 48.3412 4.41358 48.2168 3.7539 47.9548C3.09422 47.6927 2.49507 47.2985 1.99316 46.7966C1.49124 46.2946 1.0971 45.6955 0.835076 45.0358C0.573052 44.3761 0.448615 43.6699 0.469354 42.9604C0.469354 39.6804 0.469354 36.4103 0.469354 33.1303C0.447079 32.4208 0.570534 31.7144 0.832147 31.0546C1.09376 30.3948 1.48798 29.7956 1.99035 29.2941C2.49272 28.7927 3.09261 28.3997 3.75292 28.1393C4.41324 27.879 5.11993 27.7568 5.82934 27.7804C9.08934 27.7804 12.3494 27.7804 15.6094 27.7804C16.3235 27.7539 17.0354 27.8748 17.7007 28.1357C18.366 28.3965 18.9704 28.7917 19.4762 29.2966C19.982 29.8014 20.3782 30.4049 20.6403 31.0698C20.9023 31.7346 21.0246 32.4462 20.9994 33.1603C20.9994 34.7903 20.9994 36.4205 20.9994 38.0505Z" fill="white"/>
<path d="M47.8193 38.0606C47.8173 40.0922 47.2128 42.0776 46.0822 43.7656C44.9517 45.4537 43.3459 46.7683 41.468 47.5435C39.59 48.3187 37.5244 48.5194 35.5323 48.1204C33.5402 47.7214 31.7113 46.7405 30.2768 45.3018C28.8423 43.8631 27.8667 42.0313 27.4735 40.0381C27.0803 38.0449 27.2871 35.9799 28.0678 34.1043C28.8485 32.2286 30.1679 30.6266 31.8592 29.501C33.5505 28.3754 35.5377 27.7766 37.5693 27.7805C40.2905 27.7885 42.8977 28.875 44.819 30.802C46.7404 32.729 47.8193 35.3393 47.8193 38.0606Z" fill="white"/>
</svg>
