<svg id="tabler-users" xmlns="http://www.w3.org/2000/svg" width="58.213" height="58.213" viewBox="0 0 58.213 58.213">
  <path id="Path_2092" data-name="Path 2092" d="M0,0H58.213V58.213H0Z" fill="rgba(0,0,0,0)"/>
  <ellipse id="Ellipse_321" data-name="Ellipse 321" cx="10" cy="10.5" rx="10" ry="10.5" transform="translate(13.066 8)" fill="#d66b29"/>
  <path id="Path_2093" data-name="Path 2093" d="M3,29.553V24.7A9.7,9.7,0,0,1,12.7,15h9.7a9.7,9.7,0,0,1,9.7,9.7v4.851" transform="translate(5.343 21.383)" fill="rgba(0,0,0,0)" stroke="#888" stroke-linecap="round" stroke-linejoin="round" stroke-width="3"/>
  <path id="Path_2094" data-name="Path 2094" d="M16,3.13c3.614,1.059,6.141,4.786,6.141,9.055s-2.528,8-6.141,9.055" transform="translate(20.452 5.966)" fill="rgba(0,0,0,0)" stroke="#888" stroke-linecap="round" stroke-linejoin="round" stroke-width="3"/>
  <path id="Path_2095" data-name="Path 2095" d="M25.277,29.339V24.488A9.7,9.7,0,0,0,18,15.15" transform="translate(24.593 21.597)" fill="rgba(0,0,0,0)" stroke="#888" stroke-linecap="round" stroke-linejoin="round" stroke-width="3"/>
</svg>
