<svg width="41" height="49" viewBox="0 0 41 49" fill="none" xmlns="http://www.w3.org/2000/svg">
<path d="M2.53009 0.910156H26.7C27.1535 1.12559 27.5799 1.39419 27.97 1.71021C31.8834 5.59021 35.7834 9.48013 39.6701 13.3801C39.932 13.6319 40.1391 13.9352 40.2785 14.2708C40.4179 14.6063 40.4865 14.967 40.48 15.3303V45.8403C40.5025 46.1735 40.4531 46.5076 40.3351 46.8201C40.2172 47.1325 40.0333 47.4159 39.7962 47.6511C39.5591 47.8863 39.2744 48.0676 38.961 48.1831C38.6476 48.2986 38.313 48.3454 37.98 48.3203H3.20001C3.00386 48.3405 2.80619 48.3405 2.61004 48.3203C2.02607 48.2083 1.50559 47.8807 1.15179 47.4028C0.797986 46.9249 0.636671 46.3315 0.700008 45.7402V3.89014C0.700008 3.67014 0.700008 3.46023 0.700008 3.24023C0.709016 2.75755 0.866572 2.28946 1.15106 1.89941C1.43554 1.50937 1.83324 1.21635 2.2901 1.0603L2.53009 0.910156ZM22.9001 34.4902C23.1601 34.4902 23.38 34.4902 23.59 34.4902C24.81 34.4902 26.03 34.4902 27.24 34.4902C27.8057 34.4298 28.3271 34.1564 28.6985 33.7256C29.07 33.2947 29.2636 32.7385 29.24 32.1702C29.2325 31.5836 28.9981 31.0228 28.5861 30.6052C28.1741 30.1876 27.6165 29.9456 27.0301 29.9302C25.9101 29.9302 24.7801 29.9302 23.6601 29.9302H22.8801V29.3801C22.8801 28.2101 22.8801 27.0404 22.8801 25.8604C22.8773 25.2809 22.6568 24.7234 22.2624 24.2988C21.868 23.8743 21.3284 23.6137 20.7507 23.5684C20.1729 23.523 19.5993 23.6963 19.1435 24.0542C18.6877 24.4121 18.3831 24.9283 18.2901 25.5002C18.2699 25.7298 18.2699 25.9606 18.2901 26.1902C18.2901 27.4202 18.2901 28.6502 18.2901 29.9302H14.47C14.1911 29.9215 13.9122 29.9485 13.6401 30.0103C13.0951 30.157 12.6227 30.4982 12.3121 30.9695C12.0015 31.4407 11.874 32.0094 11.954 32.5681C12.034 33.1268 12.3159 33.637 12.7463 34.0022C13.1766 34.3674 13.7258 34.5623 14.2901 34.5503C15.4501 34.5503 16.6101 34.5503 17.7701 34.5503H18.2901V38.4602C18.2693 38.777 18.3137 39.0948 18.4206 39.3938C18.5275 39.6927 18.6945 39.9665 18.9116 40.1982C19.1286 40.43 19.3909 40.6147 19.6822 40.741C19.9735 40.8673 20.2875 40.9324 20.605 40.9324C20.9225 40.9324 21.2366 40.8673 21.5279 40.741C21.8192 40.6147 22.0815 40.43 22.2985 40.1982C22.5155 39.9665 22.6827 39.6927 22.7896 39.3938C22.8965 39.0948 22.9409 38.777 22.9201 38.4602C22.9201 37.6102 22.9201 36.7602 22.9201 35.9102L22.9001 34.4902ZM35.22 15.7002L26.22 6.7002V15.7002H35.22Z" fill="white"/>
</svg>
