<svg width="49" height="49" viewBox="0 0 49 49" fill="none" xmlns="http://www.w3.org/2000/svg">
<path d="M0.790182 19.3302V9.00013C0.765514 7.92751 0.958772 6.86113 1.35824 5.86536C1.7577 4.8696 2.3551 3.9651 3.11422 3.20692C3.87334 2.44873 4.77843 1.85247 5.77468 1.45423C6.77093 1.05599 7.83759 0.864032 8.91018 0.890022H29.5802C30.6409 0.868574 31.6951 1.06019 32.6804 1.4535C33.6657 1.84681 34.5621 2.43385 35.3164 3.17982C36.0708 3.92578 36.6678 4.81567 37.0721 5.79652C37.4764 6.77736 37.6798 7.82916 37.6702 8.89002C37.6702 15.8167 37.6702 22.7501 37.6702 29.6901C37.6879 30.7538 37.4911 31.8103 37.0915 32.7963C36.692 33.7822 36.0978 34.6775 35.3446 35.4288C34.5914 36.1802 33.6946 36.772 32.7077 37.1691C31.7207 37.5662 30.6638 37.7604 29.6002 37.7401C22.6935 37.7401 15.7835 37.7401 8.8702 37.7401C7.80266 37.7605 6.74199 37.5651 5.75179 37.1657C4.76159 36.7662 3.86228 36.1709 3.10775 35.4154C2.35321 34.6599 1.75897 33.7599 1.36074 32.7692C0.962504 31.7785 0.768444 30.7175 0.790182 29.65V19.3302ZM21.8702 21.9901C22.7602 21.9901 23.5502 21.9901 24.3502 21.9901C24.7099 22.0123 25.0703 21.9607 25.4093 21.8383C25.7482 21.7159 26.0585 21.5253 26.3211 21.2785C26.5836 21.0316 26.7928 20.7335 26.9358 20.4027C27.0788 20.0719 27.1526 19.7155 27.1526 19.3551C27.1526 18.9947 27.0788 18.6383 26.9358 18.3075C26.7928 17.9767 26.5836 17.6786 26.3211 17.4318C26.0585 17.1849 25.7482 16.9944 25.4093 16.872C25.0703 16.7496 24.7099 16.6979 24.3502 16.7201H21.8902C21.8902 15.8201 21.8902 14.98 21.8902 14.14C21.8942 13.7946 21.83 13.4521 21.7015 13.1315C21.573 12.8109 21.3826 12.5186 21.1411 12.2716C20.8997 12.0246 20.612 11.8276 20.2944 11.6918C19.9768 11.556 19.6356 11.484 19.2902 11.4801C18.9448 11.4762 18.602 11.5403 18.2815 11.6688C17.9609 11.7974 17.6687 11.9877 17.4217 12.2291C17.1747 12.4706 16.9777 12.7585 16.8419 13.0761C16.7061 13.3936 16.6341 13.7348 16.6302 14.0802C16.6302 14.9502 16.6302 15.8201 16.6302 16.7201H14.1302C13.4327 16.7015 12.7564 16.961 12.25 17.441C11.7437 17.9211 11.4488 18.5826 11.4302 19.2802C11.4116 19.9777 11.6709 20.6539 12.151 21.1603C12.6311 21.6666 13.2927 21.9615 13.9902 21.9801C14.8502 21.9801 15.7102 21.9801 16.6302 21.9801V24.3702C16.5983 24.7363 16.6429 25.1047 16.7611 25.4525C16.8793 25.8004 17.0685 26.1199 17.3167 26.3908C17.565 26.6616 17.8669 26.8778 18.2031 27.0258C18.5394 27.1737 18.9028 27.2501 19.2702 27.2501C19.6376 27.2501 20.0009 27.1737 20.3372 27.0258C20.6735 26.8778 20.9754 26.6616 21.2237 26.3908C21.4719 26.1199 21.6611 25.8004 21.7793 25.4525C21.8975 25.1047 21.9421 24.7363 21.9102 24.3702C21.8802 23.6402 21.8702 22.8701 21.8702 22.0001V21.9901Z" fill="white"/>
<path d="M48.2005 23.6602V34.9002C48.2645 38.0607 47.188 41.1386 45.1679 43.5701C43.1478 46.0016 40.3192 47.624 37.2005 48.1402C36.51 48.2568 35.8108 48.3138 35.1105 48.3103H11.4805C11.1269 48.3409 10.7708 48.2997 10.4335 48.1895C10.0962 48.0793 9.78453 47.9024 9.51718 47.669C9.24983 47.4356 9.03229 47.1507 8.87754 46.8313C8.72279 46.512 8.63398 46.1646 8.61649 45.8101C8.599 45.4556 8.65317 45.1014 8.77573 44.7683C8.89829 44.4353 9.08673 44.1304 9.32981 43.8719C9.57289 43.6133 9.86561 43.4063 10.1905 43.2635C10.5153 43.1206 10.8656 43.0447 11.2205 43.0403C11.4905 43.0403 11.7606 43.0403 12.0306 43.0403C19.6372 43.0403 27.2472 43.0403 34.8605 43.0403C36.7788 43.0987 38.6521 42.4522 40.1261 41.2232C41.6002 39.9942 42.5729 38.2679 42.8605 36.3704C42.9358 35.8205 42.9659 35.2651 42.9505 34.7102V11.7102C42.9002 11.1209 43.0428 10.5312 43.3566 10.0298C43.6704 9.52846 44.1384 9.14256 44.6905 8.93021C45.0933 8.78334 45.526 8.73736 45.9507 8.79593C46.3755 8.85451 46.7794 9.01596 47.1275 9.26639C47.4755 9.51682 47.757 9.84858 47.9475 10.2327C48.138 10.6168 48.2318 11.0416 48.2205 11.4703C48.2105 15.5603 48.2005 19.6102 48.2005 23.6602Z" fill="white"/>
</svg>
