<svg id="tabler-wallet" xmlns="http://www.w3.org/2000/svg" width="52.759" height="52.759" viewBox="0 0 52.759 52.759">
  <path id="Path_7" data-name="Path 7" d="M0,0H52.759V52.759H0Z" fill="rgba(0,0,0,0)"/>
  <path id="Path_8" data-name="Path 8" d="M32.578,12.793V6.2a2.2,2.2,0,0,0-2.2-2.2H8.4a4.4,4.4,0,0,0,0,8.793H34.776a2.2,2.2,0,0,1,2.2,2.2v6.595m0,8.793v6.595a2.2,2.2,0,0,1-2.2,2.2H8.4a4.4,4.4,0,0,1-4.4-4.4V8.4" transform="translate(4.793 4.793)" fill="rgba(0,0,0,0)" stroke="#cfb04d" stroke-linecap="round" stroke-linejoin="round" stroke-width="2.5"/>
  <path id="Path_9" data-name="Path 9" d="M27.19,12v8.793H18.4A4.4,4.4,0,0,1,18.4,12H27.19" transform="translate(16.776 14.379)" fill="rgba(0,0,0,0)" stroke="#cfb04d" stroke-linecap="round" stroke-linejoin="round" stroke-width="2.5"/>
</svg>
