<svg width="206" height="56" viewBox="0 0 206 56" fill="none" xmlns="http://www.w3.org/2000/svg">
<path d="M57.4101 6.68994H66.8801C68.8101 6.55206 70.716 7.18497 72.1801 8.44995C72.6866 8.88298 73.0922 9.42151 73.3686 10.0278C73.645 10.6342 73.7854 11.2936 73.7801 11.96C73.8042 12.501 73.7538 13.0426 73.6301 13.5698C73.2988 14.4075 72.8061 15.172 72.1801 15.8198C71.8875 16.091 71.5489 16.3079 71.1801 16.46C72.2803 16.7914 73.2782 17.397 74.0801 18.22C74.7725 19.1409 75.1098 20.2805 75.0301 21.4299C75.0479 22.2565 74.8805 23.0764 74.5401 23.8298C74.1561 24.5367 73.6073 25.1404 72.9401 25.5898C72.1737 26.0353 71.3668 26.4071 70.5301 26.7C69.4852 26.964 68.4063 27.0683 67.3301 27.0098H57.5301V6.63989H57.3701L57.4101 6.68994ZM66.0701 15.0098C66.8985 15.0123 67.7186 14.8456 68.4801 14.5198C68.7846 14.3795 69.0414 14.1534 69.2191 13.8691C69.3967 13.5849 69.4875 13.255 69.4801 12.9199C69.4873 12.6072 69.4171 12.2974 69.2758 12.0183C69.1345 11.7392 68.9264 11.4992 68.6701 11.3198C68.3525 11.081 67.987 10.9137 67.5987 10.8291C67.2103 10.7445 66.8083 10.7447 66.4201 10.8298H61.9201V15.1299H66.0901V15L66.0701 15.0098ZM67.1901 23.21C68.0151 23.2117 68.8318 23.045 69.5901 22.72C69.9096 22.568 70.1651 22.3079 70.3115 21.9858C70.4579 21.6638 70.4857 21.3006 70.3901 20.96C70.3958 20.6485 70.326 20.3401 70.1867 20.0615C70.0474 19.7829 69.8427 19.5422 69.5901 19.3599C68.8085 18.9226 67.9257 18.6985 67.0301 18.71H61.7301V23.21H67.1901Z" fill="white"/>
<path d="M80.6602 6.68994H85.1602V27.22H80.6602V6.68994Z" fill="white"/>
<path d="M92.0596 6.68994H96.2296L105.85 19.3599V6.68994H110.32V27.22H106.49L96.3796 14.22V27.22H92.0596V6.68994Z" fill="white"/>
<path d="M124 6.52979H128.16L136.98 27.22H132.3L130.39 22.5698H121.73L119.81 27.22H115.16L124 6.52979ZM128.81 18.71L126.09 11.99L123.38 18.71H128.81Z" fill="white"/>
<path d="M141.771 6.68994H145.93L155.55 19.3599V6.68994H160.05V27.22H156.201L146.201 14.22V27.22H141.73L141.771 6.68994Z" fill="white"/>
<path d="M176.4 27.5299C174.973 27.5184 173.56 27.2475 172.23 26.73C169.706 25.655 167.695 23.6444 166.62 21.1199C166.106 19.7892 165.835 18.3768 165.82 16.95C165.843 14.156 166.913 11.4722 168.82 9.43C169.773 8.45637 170.917 7.69032 172.18 7.18C173.546 6.60484 175.019 6.33188 176.5 6.37995C177.356 6.35513 178.213 6.40522 179.06 6.52985C179.788 6.64191 180.496 6.86109 181.16 7.18C181.765 7.4745 182.35 7.80856 182.91 8.18C183.491 8.55142 184.031 8.98391 184.52 9.47004L181.8 12.8299C181.044 12.1854 180.242 11.5972 179.4 11.0699C178.565 10.6242 177.627 10.4038 176.68 10.43C175.855 10.4283 175.039 10.595 174.28 10.92C173.514 11.2025 172.846 11.703 172.36 12.3599C171.855 13.0105 171.422 13.7148 171.07 14.46C170.76 15.2227 170.593 16.0365 170.58 16.8599C170.577 17.7369 170.743 18.6062 171.07 19.42C171.35 20.2017 171.79 20.9166 172.36 21.5198C172.9 22.1311 173.565 22.6184 174.311 22.9481C175.057 23.2778 175.865 23.4422 176.68 23.43C177.716 23.4476 178.742 23.2286 179.68 22.7899C180.545 22.292 181.353 21.7018 182.09 21.0299L184.96 23.9L183.36 25.5001C182.757 25.9303 182.114 26.3018 181.44 26.6099C180.726 26.9709 179.971 27.2429 179.19 27.42C178.264 27.5185 177.332 27.5551 176.4 27.5299Z" fill="white"/>
<path d="M190.21 6.68994H205.59V10.6899H194.52V14.8499H204.3V18.8499H194.52V23.1899H205.75V27.1899H190.21V6.68994Z" fill="white"/>
<path d="M63.1803 47.4199C62.0743 47.456 60.9751 47.2333 59.9703 46.7698C58.9064 46.3609 57.9242 45.7648 57.0703 45.0098L58.6803 43.25C59.3105 43.8227 60.0132 44.3102 60.7703 44.7C61.5364 45.0108 62.3536 45.1769 63.1803 45.1899C63.8482 45.1911 64.5055 45.0225 65.0903 44.7C65.3027 44.5612 65.4746 44.3689 65.5887 44.1423C65.7029 43.9158 65.7552 43.6631 65.7403 43.4099C65.7632 43.1813 65.7067 42.9516 65.5803 42.7598C65.4303 42.6098 65.2703 42.2699 65.0903 42.1199C64.9103 41.9699 64.4403 41.8099 64.0903 41.6199C63.6003 41.4699 62.9803 41.3099 62.4903 41.1299C61.7705 41.001 61.0688 40.7862 60.4003 40.49C59.8709 40.3171 59.3789 40.0456 58.9503 39.6899C58.5778 39.3535 58.2425 38.9779 57.9503 38.5698C57.7114 38.0153 57.6053 37.4126 57.6403 36.8098C57.6706 36.2159 57.7747 35.628 57.9503 35.0598C58.1948 34.5648 58.5346 34.123 58.9503 33.7598C59.4348 33.4049 59.9757 33.1346 60.5503 32.96C61.1767 32.7854 61.8208 32.6814 62.4703 32.6499C63.4539 32.6542 64.4302 32.8197 65.3603 33.1399C66.2016 33.4988 67.0083 33.934 67.7703 34.4399L66.4703 36.3499C65.8718 35.9178 65.232 35.5461 64.5603 35.24C63.9564 34.9894 63.3024 34.8832 62.6503 34.9299C62.027 34.9063 61.4118 35.0776 60.8903 35.4199C60.5205 35.7539 60.2887 36.214 60.2403 36.71C60.2154 36.9865 60.271 37.2641 60.4003 37.5098C60.5503 37.6698 60.7103 37.9999 60.8903 38.1599C61.0703 38.3199 61.5303 38.4699 62.0003 38.6499C62.5779 38.8444 63.1654 39.0079 63.7603 39.1399C64.4743 39.2965 65.1735 39.5139 65.8503 39.7898C66.3656 39.9939 66.8528 40.2628 67.3003 40.5898C67.6719 40.9353 67.9638 41.3576 68.1555 41.8274C68.3472 42.2972 68.4341 42.803 68.4103 43.3098C68.401 43.9059 68.2963 44.4967 68.1003 45.0598C67.7844 45.5822 67.4121 46.0684 66.9903 46.5098C66.5082 46.8684 65.9665 47.1393 65.3903 47.3098C64.6303 47.2598 63.8203 47.4199 63.1803 47.4199Z" fill="white"/>
<path d="M71.1904 32.8298H73.9404L78.2504 39.5598L82.7504 32.8298H85.4704V47.2598H82.9104V36.8398L78.4104 43.5598H78.2504L73.7804 36.8398V47.2598H71.1904V32.8298Z" fill="white"/>
<path d="M94.1304 32.6799H96.5404L102.8 47.1299H100.08L98.6304 43.6099H91.9104L90.4604 47.1299H87.9004L94.1304 32.6799ZM97.8304 41.5L95.2704 35.73L92.8704 41.5H97.8304Z" fill="white"/>
<path d="M105.36 32.8298H111.77C112.578 32.8592 113.381 32.963 114.17 33.1399C114.842 33.3536 115.448 33.7359 115.93 34.25C116.337 34.6782 116.675 35.1674 116.93 35.7C117.124 36.2672 117.228 36.8608 117.24 37.46C117.215 38.0055 117.11 38.5442 116.93 39.0598C116.78 39.5598 116.44 39.8699 116.28 40.3599C115.945 40.7153 115.573 41.0337 115.17 41.3098C114.721 41.5962 114.233 41.8153 113.72 41.96L117.58 47.4199H114.52L111.01 42.4199H107.8V47.4199H105.2L105.36 32.8298ZM111.61 39.8899C112.366 39.9495 113.116 39.721 113.71 39.25C114.197 38.7904 114.484 38.1587 114.51 37.49C114.502 37.1579 114.427 36.8307 114.29 36.5283C114.152 36.2259 113.955 35.9545 113.71 35.73C113.052 35.2727 112.261 35.0442 111.46 35.0798H107.76V39.8899H111.61Z" fill="white"/>
<path d="M123.79 35.1299H119.14V32.8799H130.86V35.1299H126.2V47.3098H123.64L123.79 35.1299Z" fill="white"/>
<path d="M146.42 47.42C145.419 47.4368 144.428 47.2138 143.53 46.7698C142.662 46.4189 141.873 45.8974 141.21 45.2361C140.547 44.5748 140.023 43.7873 139.67 42.92C139.284 42.0044 139.116 41.0114 139.18 40.0198C139.185 39.0362 139.35 38.06 139.67 37.1299C140.381 35.3409 141.768 33.9038 143.53 33.1299C144.504 32.7469 145.535 32.5274 146.58 32.48C147.172 32.4451 147.765 32.499 148.34 32.6399C148.83 32.7899 149.29 32.9499 149.79 33.1299C150.29 33.3099 150.59 33.6198 151.08 33.7698C151.39 34.0798 151.88 34.4198 152.19 34.7698L150.59 36.68C150.069 36.1677 149.476 35.7332 148.83 35.3899C148.125 35.0649 147.357 34.8977 146.58 34.8999C145.93 34.9233 145.285 35.0275 144.66 35.21C144.071 35.4918 143.531 35.8664 143.06 36.3199C142.575 36.746 142.227 37.3064 142.06 37.93C141.886 38.553 141.782 39.1936 141.75 39.8399C141.778 40.4866 141.882 41.1279 142.06 41.75C142.249 42.3639 142.594 42.9183 143.06 43.3599C143.523 43.8228 144.065 44.1989 144.66 44.47C145.24 44.8064 145.924 44.9167 146.58 44.7798C147.358 44.7919 148.128 44.6243 148.83 44.2898C149.548 43.9233 150.194 43.4324 150.74 42.8399L152.34 44.44L151.23 45.5498C150.836 45.8727 150.402 46.1449 149.94 46.3599C149.438 46.612 148.897 46.7776 148.34 46.8499C148.079 47.0759 147.773 47.2436 147.442 47.3418C147.111 47.4401 146.762 47.4668 146.42 47.42Z" fill="white"/>
<path d="M154.91 32.8298H157.31V38.75H164.22V32.8298H166.78V47.2598H164.22V41.1299H157.31V47.23H154.91V32.8298Z" fill="white"/>
<path d="M175.59 32.6799H178L184.26 47.1099H181.54L180.09 43.5898H173.37L171.92 47.1099H169.36L175.59 32.6799ZM179.14 41.5L176.73 35.73L174.33 41.5H179.14Z" fill="white"/>
<path d="M186.82 32.8298H189.4V47.2598H186.82V32.8298Z" fill="white"/>
<path d="M193.23 32.8298H195.48L203.19 42.7598V32.8298H205.75V47.2598H203.651L195.82 37V47.2598H193.23V32.8298Z" fill="white"/>
<path d="M29.2 46.3098V52.5598L23.74 55.7698L18.44 52.5598V46.3098L23.74 49.5098L29.2 46.3098ZM0 24.6599L5.29999 27.8699V38.5999L14.43 44.0598V50.3098L0 41.8098V24.6599ZM47.48 24.6599V41.8298L32.89 50.3398V44.1299L42.02 38.6799V27.9399L47.48 24.6599ZM32.87 16.1299L38.33 19.3398V25.5999L29.2 31.0498V41.9399L23.9 45.1499L18.62 41.9399V31.0298L9.14999 25.5698V19.3098L14.61 16.1099L23.74 21.5598L32.87 16.1299ZM9.14999 30.1299L14.46 33.3398V39.5999L9.14999 36.3899V30.1299ZM38.33 30.1299V36.3899L33.02 39.5999V33.3398L38.33 30.1299ZM5.32999 10.74L10.79 13.9399L5.29999 17.1299V23.3899L0 20.1299V13.8699L5.32999 10.74ZM42.21 10.74L47.67 13.9399V20.1299L42.21 23.3398V17.1299L36.91 13.9199L42.21 10.74ZM23.77 10.74L29.23 13.9399L23.77 17.1499L18.47 13.9399L23.77 10.74ZM23.77 0L38.36 8.50977L33.05 11.72L23.93 6.25977L14.62 11.72L9.31 8.50977L23.77 0Z" fill="white"/>
</svg>
