<svg width="263" height="50" viewBox="0 0 263 50" fill="none" xmlns="http://www.w3.org/2000/svg">
<path d="M232.45 24.8603C231.1 23.9403 229.62 23.3202 228.15 22.5202C227.189 22.0665 226.281 21.51 225.44 20.8603C225.132 20.5779 224.893 20.2284 224.741 19.839C224.589 19.4496 224.529 19.0306 224.565 18.6142C224.6 18.1978 224.731 17.795 224.947 17.4372C225.163 17.0793 225.458 16.776 225.81 16.5502C227.81 15.2002 231.22 15.9401 231.59 18.7101C231.593 18.7428 231.607 18.7733 231.632 18.7956C231.656 18.8178 231.687 18.8303 231.72 18.8302H234.79C234.822 18.8283 234.853 18.8152 234.876 18.7934C234.9 18.7715 234.916 18.742 234.92 18.7101C234.876 17.8338 234.65 16.9762 234.258 16.1913C233.865 15.4065 233.315 14.7114 232.64 14.1501C231.388 13.1869 229.85 12.6695 228.27 12.6801C220.15 12.6801 219.41 21.2902 223.78 24.0002C224.27 24.3102 228.58 26.4601 230.12 27.4401C230.8 27.8215 231.315 28.4417 231.564 29.1806C231.814 29.9195 231.78 30.7245 231.47 31.4401C231.114 32.0939 230.575 32.6306 229.921 32.9855C229.266 33.3404 228.523 33.4982 227.78 33.4401C227.014 33.435 226.268 33.1969 225.641 32.7575C225.014 32.318 224.536 31.6981 224.27 30.9801C224.199 30.6512 224.159 30.3165 224.15 29.9801C224.146 29.9471 224.131 29.9165 224.107 29.893C224.084 29.8694 224.053 29.8544 224.02 29.8503H220.7C220.668 29.8548 220.639 29.87 220.617 29.8937C220.595 29.9174 220.582 29.948 220.58 29.9801C220.58 32.3801 221.19 33.7301 222.79 34.9801C224.222 36.0821 225.984 36.6671 227.79 36.6401C232.34 36.6401 234.68 34.0601 235.17 31.4101C235.425 30.1714 235.302 28.8849 234.817 27.717C234.332 26.549 233.508 25.5538 232.45 24.8603Z" fill="white"/>
<path d="M87.4097 13.1702H84.3296C84.2841 13.1765 84.242 13.1976 84.2096 13.2302L81.4396 22.2803C81.4318 22.3074 81.4155 22.3314 81.3929 22.3484C81.3704 22.3654 81.3428 22.3745 81.3146 22.3745C81.2863 22.3745 81.2589 22.3654 81.2363 22.3484C81.2138 22.3314 81.1973 22.3074 81.1896 22.2803L78.4197 13.2302C78.4197 13.1702 78.3597 13.1702 78.2997 13.1702H73.2997C73.2686 13.1725 73.2394 13.186 73.2174 13.208C73.1954 13.23 73.182 13.2592 73.1797 13.2903V36.3704C73.182 36.4014 73.1954 36.4306 73.2174 36.4526C73.2394 36.4747 73.2686 36.4879 73.2997 36.4902H76.6296C76.6607 36.4879 76.6899 36.4747 76.7119 36.4526C76.7339 36.4306 76.7473 36.4014 76.7496 36.3704V18.8303C76.7515 18.8029 76.762 18.7767 76.7797 18.7556C76.7973 18.7345 76.8211 18.7196 76.8478 18.7129C76.8744 18.7062 76.9026 18.7082 76.9281 18.7185C76.9536 18.7288 76.9751 18.7469 76.9896 18.7703L79.7596 27.8801L79.9496 28.4902C79.9496 28.5502 80.0096 28.5503 80.0696 28.5503H82.6597C82.7052 28.544 82.7473 28.5228 82.7797 28.4902L82.9596 27.8801L85.7296 18.7703C85.7896 18.6403 85.9796 18.6403 85.9796 18.8303V36.3704C85.9819 36.4014 85.9953 36.4306 86.0173 36.4526C86.0394 36.4747 86.0685 36.4879 86.0996 36.4902H89.4297C89.4607 36.4879 89.4899 36.4747 89.512 36.4526C89.534 36.4306 89.5474 36.4014 89.5497 36.3704V13.2903C89.5474 13.2592 89.534 13.23 89.512 13.208C89.4899 13.186 89.4607 13.1725 89.4297 13.1702H87.4097Z" fill="white"/>
<path d="M181.31 13.1702C181.264 13.1765 181.222 13.1976 181.19 13.2302L178.42 22.2803C178.41 22.304 178.393 22.3241 178.372 22.3384C178.35 22.3526 178.325 22.3604 178.3 22.3604C178.274 22.3604 178.249 22.3526 178.228 22.3384C178.206 22.3241 178.19 22.304 178.18 22.2803L175.41 13.2302C175.41 13.1702 175.35 13.1702 175.28 13.1702H170.18C170.147 13.1701 170.115 13.1826 170.091 13.2048C170.067 13.2271 170.052 13.2576 170.05 13.2903V36.3704C170.052 36.4031 170.067 36.4336 170.091 36.4558C170.115 36.4781 170.147 36.4903 170.18 36.4902H173.5C173.531 36.4879 173.56 36.4747 173.582 36.4526C173.604 36.4306 173.617 36.4014 173.62 36.3704V18.8303C173.62 18.7103 173.81 18.6403 173.87 18.7703L176.64 27.8801L176.82 28.4902C176.82 28.5502 176.88 28.5503 176.95 28.5503H179.53C179.575 28.544 179.617 28.5228 179.65 28.4902L179.84 27.8801L182.61 18.7703C182.67 18.6403 182.85 18.6403 182.85 18.8303V36.3704C182.852 36.4031 182.867 36.4336 182.891 36.4558C182.915 36.4781 182.947 36.4903 182.98 36.4902H186.3C186.331 36.4879 186.36 36.4747 186.382 36.4526C186.404 36.4306 186.417 36.4014 186.42 36.3704V13.2903C186.417 13.2592 186.404 13.23 186.382 13.208C186.36 13.186 186.331 13.1725 186.3 13.1702H181.31Z" fill="white"/>
<path d="M138.24 13.1702H122.42C122.389 13.1725 122.36 13.186 122.338 13.208C122.316 13.23 122.302 13.2592 122.3 13.2903V16.1802C122.302 16.2123 122.315 16.2429 122.337 16.2666C122.359 16.2903 122.388 16.3058 122.42 16.3103H128.51V36.3704C128.514 36.4023 128.53 36.4315 128.553 36.4534C128.577 36.4752 128.608 36.4883 128.64 36.4902H132C132.031 36.4879 132.06 36.4747 132.082 36.4526C132.104 36.4306 132.117 36.4014 132.12 36.3704V16.3103H138.22C138.252 16.3058 138.281 16.2903 138.303 16.2666C138.325 16.2429 138.338 16.2123 138.34 16.1802V13.2903C138.36 13.2303 138.3 13.1702 138.24 13.1702Z" fill="white"/>
<path d="M157.93 36.4902H160.93C160.99 36.4902 161.05 36.4303 161.05 36.3103L154.77 13.1702C154.77 13.1102 154.71 13.1104 154.65 13.1104H150.28C150.234 13.1167 150.192 13.1376 150.16 13.1702L143.88 36.3103C143.88 36.3703 143.94 36.4902 144 36.4902H147C147.045 36.4839 147.088 36.4628 147.12 36.4302L148.97 29.6602C148.97 29.6002 149.03 29.6003 149.09 29.6003H155.8C155.845 29.6067 155.888 29.6276 155.92 29.6602L157.77 36.4302C157.791 36.4508 157.816 36.467 157.844 36.4773C157.871 36.4876 157.901 36.492 157.93 36.4902ZM149.93 26.2803L152.39 17.2302C152.398 17.2031 152.414 17.1791 152.437 17.1621C152.459 17.1451 152.487 17.136 152.515 17.136C152.543 17.136 152.571 17.1451 152.593 17.1621C152.616 17.1791 152.632 17.2031 152.64 17.2302L155.1 26.2803C155.1 26.3403 155.04 26.4602 154.98 26.4602H150.11C150.063 26.4578 150.018 26.438 149.985 26.4048C149.952 26.3715 149.932 26.3272 149.93 26.2803Z" fill="white"/>
<path d="M209.75 36.4902H212.75C212.81 36.4902 212.87 36.4303 212.87 36.3103L206.6 13.1702C206.6 13.1102 206.54 13.1104 206.47 13.1104H202.1C202.054 13.1167 202.012 13.1376 201.98 13.1702L195.71 36.3103C195.71 36.3703 195.77 36.4902 195.83 36.4902H198.83C198.878 36.4828 198.923 36.4619 198.96 36.4302L200.8 29.6602C200.8 29.6002 200.86 29.6003 200.93 29.6003H207.63C207.679 29.6045 207.725 29.6255 207.76 29.6602L209.6 36.4302C209.62 36.4496 209.643 36.465 209.669 36.4753C209.695 36.4856 209.722 36.4906 209.75 36.4902ZM201.75 26.2803L204.21 17.2302C204.22 17.2065 204.237 17.1864 204.258 17.1721C204.279 17.1579 204.304 17.1501 204.33 17.1501C204.356 17.1501 204.381 17.1579 204.402 17.1721C204.423 17.1864 204.44 17.2065 204.45 17.2302L206.91 26.2803C206.91 26.3403 206.85 26.4602 206.79 26.4602H201.93C201.883 26.4578 201.839 26.438 201.805 26.4048C201.772 26.3715 201.752 26.3272 201.75 26.2803Z" fill="white"/>
<path d="M103 33.0002V25.8704C103 25.8375 103.012 25.8059 103.034 25.7817C103.056 25.7576 103.087 25.7428 103.12 25.7402H112.04C112.072 25.7403 112.104 25.7281 112.128 25.7058C112.152 25.6836 112.167 25.6531 112.17 25.6204V22.7302C112.167 22.6965 112.153 22.6648 112.129 22.6409C112.105 22.617 112.073 22.6027 112.04 22.6003H103.12C103.089 22.598 103.059 22.5845 103.037 22.5625C103.015 22.5405 103.002 22.5113 103 22.4802V16.3901C103.002 16.3591 103.015 16.3299 103.037 16.3079C103.059 16.2858 103.089 16.2726 103.12 16.2703H113.21C113.243 16.2661 113.273 16.2511 113.297 16.2275C113.32 16.204 113.335 16.1732 113.34 16.1401V13.2502C113.335 13.2183 113.32 13.1889 113.296 13.167C113.272 13.1451 113.242 13.1321 113.21 13.1301H99.5497C99.5186 13.1324 99.4894 13.1459 99.4674 13.168C99.4454 13.19 99.432 13.2192 99.4297 13.2502V36.3303C99.432 36.3614 99.4454 36.3906 99.4674 36.4126C99.4894 36.4346 99.5186 36.4479 99.5497 36.4502H113.64C113.672 36.4503 113.704 36.438 113.728 36.4158C113.752 36.3935 113.767 36.363 113.77 36.3303V33.3303C113.767 33.2976 113.752 33.2669 113.728 33.2446C113.704 33.2224 113.672 33.2101 113.64 33.2102H103.1C103.1 33.1702 103 33.1102 103 33.0002Z" fill="white"/>
<path d="M263 36.2402L251.43 24.3103C251.416 24.2991 251.404 24.2845 251.396 24.2681C251.388 24.2516 251.384 24.2337 251.384 24.2153C251.384 24.197 251.388 24.1788 251.396 24.1624C251.404 24.1459 251.416 24.1316 251.43 24.1204L261.83 13.2903C261.843 13.2758 261.851 13.2583 261.855 13.2395C261.859 13.2207 261.858 13.2013 261.852 13.1831C261.846 13.1649 261.835 13.1485 261.821 13.1357C261.806 13.123 261.789 13.1143 261.77 13.1104H257.52C257.46 13.1104 257.46 13.1102 257.46 13.1702L248.6 22.4001C248.54 22.4601 248.41 22.4003 248.41 22.3403V13.3403C248.408 13.3093 248.395 13.2801 248.373 13.2581C248.351 13.236 248.321 13.2225 248.29 13.2202H244.9C244.869 13.2225 244.84 13.236 244.818 13.2581C244.796 13.2801 244.783 13.3093 244.78 13.3403V36.4202C244.783 36.4512 244.796 36.4804 244.818 36.5024C244.84 36.5245 244.869 36.538 244.9 36.5403H248.23C248.261 36.538 248.29 36.5245 248.312 36.5024C248.335 36.4804 248.348 36.4512 248.35 36.4202V26.2703C248.35 26.1403 248.47 26.0802 248.54 26.2002L258.54 36.5403L258.61 36.6003H262.85C263 36.4903 263 36.3102 263 36.2402Z" fill="white"/>
<path d="M50.2994 0.740234L30.1094 15.7402L33.8694 6.88013L50.2994 0.740234Z" fill="#E17726" stroke="#E17726" stroke-linecap="round" stroke-linejoin="round"/>
<path d="M3.65039 0.740234L23.7103 15.8801L20.1404 6.88013L3.65039 0.740234Z" fill="#E27625" stroke="#E27625" stroke-linecap="round" stroke-linejoin="round"/>
<path d="M43.0001 35.5103L37.5801 43.7502L49.1501 46.9502L52.4102 35.6902L43.0001 35.5103Z" fill="#E27625" stroke="#E27625" stroke-linecap="round" stroke-linejoin="round"/>
<path d="M1.55957 35.6902L4.81946 46.9502L16.3295 43.7502L10.9695 35.5103L1.55957 35.6902Z" fill="#E27625" stroke="#E27625" stroke-linecap="round" stroke-linejoin="round"/>
<path d="M15.7097 21.6003L12.5098 26.4602L23.8998 26.9502L23.5298 14.6401L15.7097 21.6003Z" fill="#E27625" stroke="#E27625" stroke-linecap="round" stroke-linejoin="round"/>
<path d="M38.2994 21.6003L30.3594 14.5203L30.1094 26.9502L41.4994 26.4602L38.2994 21.6003Z" fill="#E27625" stroke="#E27625" stroke-linecap="round" stroke-linejoin="round"/>
<path d="M16.3301 43.7502L23.2201 40.4302L17.2201 35.7502L16.3301 43.7502Z" fill="#E27625" stroke="#E27625" stroke-linecap="round" stroke-linejoin="round"/>
<path d="M30.79 40.4302L37.62 43.7502L36.7 35.7502L30.79 40.4302Z" fill="#E27625" stroke="#E27625" stroke-linecap="round" stroke-linejoin="round"/>
<path d="M37.62 43.7502L30.79 40.4302L31.34 44.8604L31.28 46.7703L37.62 43.7502Z" fill="#D5BFB2" stroke="#D5BFB2" stroke-linecap="round" stroke-linejoin="round"/>
<path d="M16.3301 43.7502L22.7301 46.7502L22.6702 44.8403L23.2201 40.4102L16.3301 43.7502Z" fill="#D5BFB2" stroke="#D5BFB2" stroke-linecap="round" stroke-linejoin="round"/>
<path d="M22.8499 32.8003L17.1299 31.1401L21.1299 29.2903L22.8499 32.8003Z" fill="#233447" stroke="#233447" stroke-linecap="round" stroke-linejoin="round"/>
<path d="M31.1602 32.8003L32.8201 29.2903L36.8801 31.1401L31.1602 32.8003Z" fill="#233447" stroke="#233447" stroke-linecap="round" stroke-linejoin="round"/>
<path d="M16.33 43.7502L17.33 35.5103L11 35.6902L16.33 43.7502Z" fill="#CC6228" stroke="#CC6228" stroke-linecap="round" stroke-linejoin="round"/>
<path d="M36.7002 35.5103L37.6202 43.7502L43.0403 35.6902L36.7002 35.5103Z" fill="#CC6228" stroke="#CC6228" stroke-linecap="round" stroke-linejoin="round"/>
<path d="M41.4994 26.4602L30.1094 26.9502L31.1594 32.8003L32.8193 29.2903L36.8794 31.1401L41.4994 26.4602Z" fill="#CC6228" stroke="#CC6228" stroke-linecap="round" stroke-linejoin="round"/>
<path d="M17.1298 31.1401L21.1298 29.2903L22.8497 32.8003L23.8998 26.9502L12.5098 26.4602L17.1298 31.1401Z" fill="#CC6228" stroke="#CC6228" stroke-linecap="round" stroke-linejoin="round"/>
<path d="M12.5098 26.4602L17.2498 35.7502L17.1298 31.1401L12.5098 26.4602Z" fill="#E27525" stroke="#E27525" stroke-linecap="round" stroke-linejoin="round"/>
<path d="M36.8802 31.1401L36.7002 35.7502L41.5002 26.4602L36.8802 31.1401Z" fill="#E27525" stroke="#E27525" stroke-linecap="round" stroke-linejoin="round"/>
<path d="M23.8997 27.0002L22.8496 32.8503L24.1396 39.8003L24.4496 30.6301L23.8997 27.0002Z" fill="#E27525" stroke="#E27525" stroke-linecap="round" stroke-linejoin="round"/>
<path d="M30.1095 27.0002L29.5596 30.6301L29.8096 39.8003L31.1595 32.8503L30.1095 27.0002Z" fill="#E27525" stroke="#E27525" stroke-linecap="round" stroke-linejoin="round"/>
<path d="M31.1595 32.8003L29.8096 39.7502L30.8096 40.4302L36.7195 35.7502L36.8995 31.1401L31.1595 32.8003Z" fill="#F5841F" stroke="#F5841F" stroke-linecap="round" stroke-linejoin="round"/>
<path d="M17.1299 31.1401L17.2499 35.7502L23.2499 40.4302L24.1699 39.7502L22.8799 32.8003L17.1299 31.1401Z" fill="#F5841F" stroke="#F5841F" stroke-linecap="round" stroke-linejoin="round"/>
<path d="M31.2802 46.7703L31.3401 44.8604L30.7902 44.4302H23.1602L22.6702 44.8604L22.7301 46.7703L16.3301 43.7703L18.5402 45.6204L23.1001 48.7603H30.8501L35.4102 45.6204L37.6201 43.7703L31.2802 46.7703Z" fill="#C0AC9D" stroke="#C0AC9D" stroke-linecap="round" stroke-linejoin="round"/>
<path d="M30.7904 40.4302L29.7904 39.7502H24.1204L23.2003 40.4302L22.6504 44.8604L23.1404 44.4302H30.7704L31.3203 44.8604L30.7904 40.4302Z" fill="#161616" stroke="#161616" stroke-linecap="round" stroke-linejoin="round"/>
<path d="M51.16 16.7402L52.88 8.43018L50.3 0.740234L30.79 15.2603L38.3 21.6003L48.88 24.6802L51.22 21.9702L50.22 21.2302L51.8199 19.7502L50.59 18.7502L52.1899 17.5203L51.16 16.7402Z" fill="#763E1A" stroke="#763E1A" stroke-linecap="round" stroke-linejoin="round"/>
<path d="M1.12988 8.43018L2.84985 16.7402L1.73987 17.5403L3.33984 18.7703L2.10986 19.7703L3.7699 21.2502L2.7699 21.9902L5.10986 24.7002L15.7499 21.6204L23.2599 15.2803L3.68982 0.760254L1.12988 8.43018Z" fill="#763E1A" stroke="#763E1A" stroke-linecap="round" stroke-linejoin="round"/>
<path d="M48.8802 24.6802L38.3003 21.6003L41.5002 26.4602L36.7002 35.7502L43.0403 35.6902H52.4502L48.8802 24.6802Z" fill="#F5841F" stroke="#F5841F" stroke-linecap="round" stroke-linejoin="round"/>
<path d="M15.7095 21.6003L5.06946 24.6802L1.55957 35.6802H10.9995L17.2795 35.7402L12.5396 26.4502L15.7095 21.6003Z" fill="#F5841F" stroke="#F5841F" stroke-linecap="round" stroke-linejoin="round"/>
<path d="M30.1096 27.0002L30.7897 15.3103L33.8696 6.94019H20.1396L23.2196 15.3103L23.8997 27.0002L24.1396 30.7002V39.8003H29.8097V30.7002L30.1096 27.0002Z" fill="#F5841F" stroke="#F5841F" stroke-linecap="round" stroke-linejoin="round"/>
</svg>
