<svg width="206" height="43" viewBox="0 0 206 43" fill="none" xmlns="http://www.w3.org/2000/svg">
<mask id="mask0_1_3648" style="mask-type:luminance" maskUnits="userSpaceOnUse" x="0" y="0" width="206" height="43">
<path d="M205.88 0H0.129883V42.01H205.88V0Z" fill="white"/>
</mask>
<g mask="url(#mask0_1_3648)">
<path d="M37.3695 17.8499H24.2295V41.8499H37.3695V17.8499Z" fill="white"/>
<path d="M54.2394 0H30.1094V12H54.2294L54.2394 0Z" fill="white"/>
<path d="M24.2299 5.84985H0.129883V17.8499H24.2299V5.84985Z" fill="white"/>
<path d="M181.26 13.6499H176.13V41.99H181V23.3298H181.23L190.92 42H191.11L200.84 23.3298H201.02V41.99H205.85V13.6499H201.19L191.25 32.8699H191.11L181.26 13.6499ZM70.5904 41.99H75.4404V17.9099H88.2104V13.6899H75.4604V17.9099H60.4004V22.1199H70.5904V41.99ZM113.17 13.6499V17.45H122.37V41.99H127.26V17.46H136.45V13.6499H113.17ZM163.3 35.3398C163.319 35.6595 163.272 35.9798 163.16 36.28C163.036 36.5804 162.852 36.8523 162.62 37.0798C162.4 37.3206 162.126 37.5058 161.82 37.6199C161.501 37.7372 161.16 37.7851 160.82 37.76H150.22C149.897 37.7789 149.574 37.7312 149.27 37.6199C148.958 37.5026 148.674 37.3182 148.44 37.0798C148.209 36.8579 148.034 36.5837 147.93 36.28C147.811 35.9817 147.76 35.6604 147.78 35.3398V13.6499H142.89V35.1099C142.802 36.8467 143.406 38.5477 144.57 39.8398C145.15 40.4797 145.85 40.9996 146.63 41.3699C147.416 41.7378 148.264 41.9518 149.13 42H161.23C162.096 42.0431 162.962 41.9173 163.78 41.6299C164.593 41.342 165.34 40.8968 165.98 40.3198C166.624 39.7457 167.147 39.0498 167.519 38.2722C167.892 37.4946 168.106 36.6508 168.15 35.7898C168.17 35.5669 168.17 35.3428 168.15 35.1199V13.6499H163.25L163.3 35.3398ZM103.24 30.5999H93.7604L98.4304 19.1799H98.5904L103.24 30.5999ZM101.17 13.5999H96.1104L84.2504 41.9399H89.0004L91.9404 34.76H104.94L107.87 41.9299H113L101.17 13.5999Z" fill="white"/>
</g>
</svg>
